<?xml version="1.0" encoding="UTF-8"?>
<svg xmlns="http://www.w3.org/2000/svg" width="311.136" height="306.648" viewBox="0 0 311.136 306.648">
  <g transform="translate(-805 -387.648)">
    <path d="M0,0V-.408H-13.192V0l3.74,3.264L-3.06,18.156l-8.228,18.156L-24.548,3.264-19.924,0V-.408H-34.612V0l3.74,3.264,17.408,42.228h.816L-1.7,21.284,8.772,45.492h.816l15.5-42.228L28.9,0V-.408H17.68V0L22.3,3.264,10.268,36.312l-8.3-20.06L7.616,3.264,11.356,0V-.408H1.564V0l3.4,3.264-4.216,10-4.148-10ZM28.79,22.644c0,13.4,10.132,22.712,22.372,22.712,12.308,0,22.44-10.132,22.44-23.664C73.6,8.228,63.47-1.156,51.162-1.156c-12.512,0-22.372,10.2-22.372,23.8m6.732-.476c0-12.852,7-21.012,15.64-21.012,8.568,0,15.776,8.16,15.776,21.012,0,12.784-7.208,20.876-15.776,20.876s-15.64-8.024-15.64-20.876m58.227,22.44V44.2l-5.168-3.264v-18.9h5.78l8.84,15.232c3.808,6.732,7.276,7.752,10.948,7.752a20.73,20.73,0,0,0,3.4-.408V44.2c-1.088-.34-5.168-2.856-9.316-9.928L100.141,20.6c3.536-1.632,8.228-5.44,8.228-11.424,0-5.508-4.624-9.588-13.532-9.588h-16.8V0l4.488,3.264V40.936L78.041,44.2v.408ZM92.933,1.7c4.9,0,9.384,2.584,9.384,9.18,0,4.828-3.264,9.112-7.548,9.112H88.581V1.7Zm54.751,40.6h-15.64V3.264L136.6,0V-.408H121.5V0l4.488,3.264V40.936L121.5,44.2v.408H153.94V33.728h-.408Zm11.844-42.7V0l4.488,3.264V40.936L159.528,44.2v.408h19.856c14.144,0,23.6-9.52,23.6-22.848,0-14.416-11.424-22.168-25.364-22.168ZM177.48,1.768c10.472,0,18.768,7.752,18.768,20.06,0,12.716-7,20.6-17,20.6-4.556,0-7.548-.816-9.18-1.632V1.768Zm45.961,5.3c0-6.188-5.78-8.16-11.22-8.16a28.666,28.666,0,0,0-7.548.816V6.6h.408c1.088-1.972,3.6-5.372,7.344-5.372,2.992,0,5.508,1.836,5.508,5.644a8.9,8.9,0,0,1-2.652,5.916l-4.012,4.556c-1.9,2.176-2.312,3.06-2.312,4.42,0,1.768,1.5,5.3,2.924,8.5h.884c-.068-1.292-.272-3.4-.272-5.3,0-1.972.408-2.924,2.04-4.624,1.088-1.156,3.264-3.332,4.624-4.692,3.332-3.332,4.284-5.508,4.284-8.568M209.025,41.82a3.367,3.367,0,0,0,3.4,3.4,3.326,3.326,0,0,0,3.4-3.4,3.212,3.212,0,0,0-3.4-3.4,3.248,3.248,0,0,0-3.4,3.4" transform="translate(864.719 648.804)"></path>
    <path d="M0,0C-7.412,0-12.648,4.012-12.648,10.608c0,5.916,3.74,9.452,10.472,14.008,5.78,3.808,8.568,6.528,8.568,11.56A7.775,7.775,0,0,1-1.7,44.064c-8.092,0-10.744-7.616-11.832-11.628h-.476a68.584,68.584,0,0,0,.544,11.152A23.663,23.663,0,0,0-1.7,46.444c8.568,0,13.6-5.508,13.6-12.444,0-6.528-4.624-10-10.608-14.348-5.372-3.74-8.7-6.12-8.7-11.016,0-3.876,2.924-6.392,7-6.392,4.692,0,7.276,3.128,8.772,5.508H8.7V1.36A24.514,24.514,0,0,0,0,0M26.388,4.42l4.488-3.264V.748H15.848v.408L20.336,4.42V42.092l-4.488,3.264v.408H30.876v-.408l-4.488-3.264V24.072H51.753v18.02l-4.489,3.264v.408H62.292v-.408l-4.487-3.264V4.42l4.487-3.264V.748H47.264v.408L51.753,4.42V21.692H26.388ZM73.524,42.092l5.848-15.3H93.04l6.392,15.3L94.74,45.356v.408h14.688v-.408l-3.808-3.264L87.872-.2h-.748L70.8,42.092,67,45.356v.408h11.22v-.408ZM85.9,9.792l6.188,14.756H80.256Zm54.378,33.66h-15.64V4.42l4.556-3.264V.748H114.1v.408l4.488,3.264V42.092L114.1,45.356v.408h32.436V34.884h-.408Zm38.023,0h-15.64V4.42l4.556-3.264V.748h-15.1v.408l4.488,3.264V42.092l-4.488,3.264v.408h32.436V34.884h-.408ZM188.935,23.8c0,13.4,10.132,22.712,22.372,22.712,12.308,0,22.44-10.132,22.44-23.664C233.747,9.384,223.615,0,211.307,0c-12.512,0-22.372,10.2-22.372,23.8m6.732-.476c0-12.852,7-21.012,15.64-21.012,8.568,0,15.776,8.16,15.776,21.012,0,12.784-7.208,20.876-15.776,20.876s-15.64-8.024-15.64-20.876M268.173,1.156V.748H254.981v.408l3.74,3.264,6.392,14.892-8.228,18.156L243.625,4.42l4.624-3.264V.748H233.561v.408L237.3,4.42l17.408,42.228h.816L266.473,22.44l10.472,24.208h.816l15.5-42.228,3.808-3.264V.748h-11.22v.408l4.624,3.264L278.441,37.468l-8.3-20.06L275.789,4.42l3.74-3.264V.748h-9.792v.408l3.4,3.264-4.216,10-4.148-10Z" transform="translate(819.063 582.648)"></path>
    <path d="M0,0V.408L4.488,3.672V41.344L0,44.608v.408H19.856c14.144,0,23.6-9.52,23.6-22.848C43.452,7.752,32.028,0,18.088,0ZM17.952,2.176c10.472,0,18.768,7.752,18.768,20.06,0,12.716-7,20.6-17,20.6-4.556,0-7.548-.816-9.18-1.632V2.176Zm61.13,42.84V35.632h-.408L73.914,42.7H58.274V22.168H72.962l3.06,4.624h.34V15.232h-.34l-3.06,4.692H58.274V2.244h14.28l4.488,5.712h.408V0H47.734V.408l4.488,3.264V41.344l-4.488,3.264v.408Zm37.4,0V35.632h-.408l-4.76,7.072H95.673V22.168h14.688l3.06,4.624h.34V15.232h-.34l-3.06,4.692H95.673V2.244h14.28l4.488,5.712h.408V0H85.133V.408l4.488,3.264V41.344l-4.488,3.264v.408Zm37.874-32.5C154.355,4.148,147.623,0,138.715,0H122.531V.408l4.488,3.264V41.344l-4.488,3.264v.408h15.708v-.408l-5.168-3.264V2.108h3.2c7.956,0,11.9,4.624,11.9,11.22,0,7.616-6.052,12.24-11.968,13.124v.612c9.52.2,18.156-5.032,18.156-14.552m34.814,32.5v-.408l-4.488-3.264V3.672L189.169.408V0H174.141V.408l4.488,3.264V41.344l-4.488,3.264v.408Zm18.541,0v-.408l-5.1-3.6V8.636l32.3,36.38h2.176v-41l4.964-3.6V0H229.2V.408l5.1,3.6V35.7L203.018,0h-8.432V.408a42.975,42.975,0,0,1,5.236,5.1V41l-4.964,3.6v.408Zm58.139-3.672,5.848-15.3h13.668l6.392,15.3-4.692,3.264v.408h14.688v-.408l-3.808-3.264L280.2-.952h-.748l-16.32,42.3-3.808,3.264v.408h11.22v-.408Zm12.376-32.3L284.413,23.8H272.581Z" transform="translate(809.685 518.396)"></path>
    <path d="M0,0-11.084,17-22.168,0l4.556-3.264v-.408h-15.3v.408L-29.172,0l13.464,20.128V37.672L-20.2,40.936v.408H-5.168v-.408l-4.488-3.264v-18.7L2.788,0,6.6-3.264v-.408H-4.556v.408ZM5.485,19.38c0,13.4,10.132,22.712,22.372,22.712,12.308,0,22.44-10.132,22.44-23.664C50.3,4.964,40.165-4.42,27.857-4.42c-12.512,0-22.372,10.2-22.372,23.8m6.732-.476c0-12.852,7-21.012,15.64-21.012,8.568,0,15.776,8.16,15.776,21.012,0,12.784-7.208,20.876-15.776,20.876S12.217,31.756,12.217,18.9M94.258,0l4.488-3.264v-.408H86.914v.408L91.47,0V25.3c0,7.684-4.828,13.056-13.192,13.056-8.3,0-13.94-4.012-13.94-12.988V0l4.556-3.264v-.408H53.73v.408L58.286,0V25.432c0,11.424,7.82,16.66,18.9,16.66,10.2,0,17.068-7.072,17.068-16.66Zm64.121,21.624,3.6-3.264v-.408h-15.3v.408l5.576,3.264V37.2a17.384,17.384,0,0,1-9.248,2.516c-11.084,0-18.224-9.656-18.224-21.216,0-11.084,6.188-20.6,17.544-20.6,7.48,0,11.56,3.128,14.28,6.936h.34V-2.448a66.973,66.973,0,0,0-14.62-1.972c-15.164,0-24.276,11.152-24.276,23.324,0,13.532,9.86,23.188,24.616,23.188,7.14,0,12.784-2.788,15.708-3.74Zm8.981-2.244c0,13.4,10.132,22.712,22.372,22.712,12.308,0,22.44-10.132,22.44-23.664,0-13.464-10.132-22.848-22.44-22.848-12.512,0-22.372,10.2-22.372,23.8m6.732-.476c0-12.852,7-21.012,15.64-21.012,8.568,0,15.776,8.16,15.776,21.012,0,12.784-7.208,20.876-15.776,20.876s-15.64-8.024-15.64-20.876" transform="translate(868.382 457.068)"></path>
    <path d="M0,0,4.488-3.264v-.408H-10.54v.408L-6.052,0V37.672l-4.488,3.264v.408H4.488v-.408L0,37.672V19.652H25.364v18.02l-4.488,3.264v.408H35.9v-.408l-4.488-3.264V0L35.9-3.264v-.408H20.876v.408L25.364,0V17.272H0ZM40.377,19.38c0,13.4,10.132,22.712,22.372,22.712,12.308,0,22.44-10.132,22.44-23.664,0-13.464-10.132-22.848-22.44-22.848-12.512,0-22.372,10.2-22.372,23.8m6.732-.476c0-12.852,7-21.012,15.64-21.012,8.568,0,15.776,8.16,15.776,21.012,0,12.784-7.208,20.876-15.776,20.876S47.109,31.756,47.109,18.9M119.616-3.264v-.408H106.424v.408L110.164,0l6.392,14.892-8.228,18.156L95.068,0l4.624-3.264v-.408H85v.408L88.744,0l17.408,42.228h.816L117.916,18.02l10.472,24.208h.816L144.708,0l3.808-3.264v-.408H137.3v.408L141.92,0,129.884,33.048l-8.3-20.06L127.232,0l3.74-3.264v-.408H121.18v.408L124.58,0l-4.216,10L116.216,0ZM166.6-3.672v.408L171.09,0V37.672L166.6,40.936v.408h19.856c14.144,0,23.6-9.52,23.6-22.848,0-14.416-11.424-22.168-25.364-22.168ZM184.554-1.5c10.472,0,18.768,7.752,18.768,20.06,0,12.716-7,20.6-17,20.6-4.556,0-7.548-.816-9.18-1.632V-1.5ZM215.58,19.38c0,13.4,10.132,22.712,22.372,22.712,12.308,0,22.44-10.132,22.44-23.664,0-13.464-10.132-22.848-22.44-22.848-12.512,0-22.372,10.2-22.372,23.8m6.732-.476c0-12.852,7-21.012,15.64-21.012,8.568,0,15.776,8.16,15.776,21.012,0,12.784-7.208,20.876-15.776,20.876s-15.64-8.024-15.64-20.876" transform="translate(834.411 392.068)"></path>
  </g>
</svg>
