<?xml version="1.0" encoding="UTF-8"?>
<svg xmlns="http://www.w3.org/2000/svg" width="1167.574" height="353.296" viewBox="0 0 1167.574 353.296">
  <path d="M0,0C-14.824,0-25.3,8.024-25.3,21.216c0,11.832,7.48,18.9,20.944,28.016,11.56,7.616,17.136,13.056,17.136,23.12,0,8.7-6.528,15.776-16.184,15.776-16.184,0-21.488-15.232-23.664-23.256h-.952a137.167,137.167,0,0,0,1.088,22.3c4.76,2.72,12.648,5.712,23.528,5.712,17.136,0,27.2-11.016,27.2-24.888,0-13.056-9.248-19.992-21.216-28.7-10.744-7.48-17.408-12.24-17.408-22.032,0-7.752,5.848-12.784,14.008-12.784,9.384,0,14.552,6.256,17.544,11.016h.68V2.72C14.824,1.768,9.248,0,0,0M52.614,8.84,61.59,2.312V1.5H31.534v.816L40.51,8.84V84.184l-8.976,6.528v.816H61.59v-.816l-8.976-6.528V48.144h50.728v36.04l-8.976,6.528v.816h30.056v-.816l-8.976-6.528V8.84l8.976-6.528V1.5H94.366v.816l8.976,6.528V43.384H52.614Zm94.149,75.344,11.7-30.6h27.336l12.784,30.6L189.2,90.712v.816h29.376v-.816l-7.616-6.528L175.459-.408h-1.5l-32.64,84.592-7.616,6.528v.816h22.44v-.816Zm24.752-64.6L183.891,49.1H160.227ZM280.134,86.9h-31.28V8.84l9.112-6.528V1.5H227.774v.816L236.75,8.84V84.184l-8.976,6.528v.816h64.872V69.768h-.816Zm75.9,0H324.752V8.84l9.112-6.528V1.5H303.672v.816l8.976,6.528V84.184l-8.976,6.528v.816h64.872V69.768h-.817Zm21.117-39.3c0,26.792,20.264,45.424,44.744,45.424,24.616,0,44.88-20.264,44.88-47.328,0-26.928-20.264-45.7-44.88-45.7-25.024,0-44.744,20.4-44.744,47.6m13.464-.952c0-25.7,14.008-42.024,31.28-42.024,17.136,0,31.552,16.32,31.552,42.024,0,25.568-14.416,41.752-31.552,41.752s-31.28-16.048-31.28-41.752M535.449,2.312V1.5H509.065v.816l7.48,6.528,12.784,29.784L512.873,74.936l-26.52-66.1L495.6,2.312V1.5H466.225v.816L473.7,8.84,508.521,93.3h1.632l21.9-48.416L552.993,93.3h1.632L585.633,8.84l7.616-6.528V1.5h-22.44v.816l9.248,6.528-24.072,66.1-16.592-40.12L550.681,8.84l7.48-6.528V1.5H538.577v.816l6.8,6.528-8.432,19.992-8.3-19.992Zm157.892,0V1.5H666.958v.816l7.479,6.528,12.784,29.784L670.766,74.936,644.245,8.84l9.249-6.528V1.5H624.117v.816L631.6,8.84,666.414,93.3h1.632l21.9-48.416L710.885,93.3h1.633L743.526,8.84l7.616-6.528V1.5H728.7v.816L737.95,8.84l-24.072,66.1-16.592-40.12L708.573,8.84l7.481-6.528V1.5H696.47v.816l6.8,6.528-8.432,19.992-8.3-19.992Zm57.4,45.288c0,26.792,20.264,45.424,44.744,45.424,24.616,0,44.88-20.264,44.88-47.328,0-26.928-20.264-45.7-44.88-45.7-25.024,0-44.744,20.4-44.744,47.6m13.464-.952c0-25.7,14.008-42.024,31.28-42.024,17.136,0,31.552,16.32,31.552,42.024,0,25.568-14.416,41.752-31.552,41.752s-31.28-16.048-31.28-41.752m116.277,44.88v-.816l-10.336-6.528V46.376h11.56l17.68,30.464c7.616,13.464,14.552,15.5,21.9,15.5a41.459,41.459,0,0,0,6.8-.816v-.816c-2.176-.68-10.336-5.712-18.632-19.856L893.269,43.52c7.072-3.264,16.456-10.88,16.456-22.848,0-11.016-9.248-19.176-27.064-19.176H849.069v.816l8.976,6.528V84.184l-8.976,6.528v.816ZM878.853,5.712c9.792,0,18.768,5.168,18.768,18.36,0,9.656-6.528,18.224-15.1,18.224H870.149V5.712ZM988.248,86.9h-31.28V8.84l9.112-6.528V1.5H935.888v.816l8.976,6.528V84.184l-8.976,6.528v.816h64.872V69.768h-.816ZM1011.786,1.5v.816l8.975,6.528V84.184l-8.975,6.528v.816H1051.5c28.288,0,47.192-19.04,47.192-45.7C1098.69,17,1075.842,1.5,1047.962,1.5Zm35.9,4.352c20.944,0,37.536,15.5,37.536,40.12,0,25.432-14.008,41.208-34,41.208-9.112,0-15.1-1.632-18.361-3.264V5.848Zm91.759,10.608c0-12.376-11.56-16.32-22.44-16.32-8.3,0-14.008,1.224-15.1,1.632V15.5h.816c2.176-3.944,7.208-10.744,14.688-10.744,5.984,0,11.016,3.672,11.016,11.288,0,4.352-2.04,8.16-5.3,11.832l-8.024,9.112c-3.808,4.352-4.624,6.12-4.624,8.84,0,3.536,2.992,10.608,5.848,17h1.768c-.136-2.584-.544-6.8-.544-10.608,0-3.944.816-5.848,4.08-9.248,2.176-2.312,6.528-6.664,9.248-9.384,6.664-6.664,8.568-11.016,8.568-17.136m-28.832,69.5a6.734,6.734,0,0,0,6.8,6.8,6.651,6.651,0,0,0,6.8-6.8,6.424,6.424,0,0,0-6.8-6.8,6.5,6.5,0,0,0-6.8,6.8" transform="translate(28.125 260)"></path>
  <path d="M0,0V.816L8.976,7.344V82.688L0,89.216v.816H39.712C68,90.032,86.9,70.992,86.9,44.336,86.9,15.5,64.056,0,36.176,0ZM35.9,4.352c20.944,0,37.536,15.5,37.536,40.12,0,25.432-14.008,41.208-34,41.208-9.112,0-15.1-1.632-18.36-3.264V4.352ZM158,90.032V71.264h-.816l-9.52,14.144h-31.28V44.336h29.376l6.12,9.248h.68V30.464h-.68l-6.12,9.384H116.385V4.488h28.56l8.976,11.424h.816V0H95.305V.816l8.976,6.528V82.688l-8.976,6.528v.816Zm74.648,0V71.264h-.816l-9.52,14.144h-31.28V44.336h29.376l6.12,9.248h.68V30.464h-.68l-6.12,9.384H191.033V4.488h28.56l8.976,11.424h.816V0H169.953V.816l8.976,6.528V82.688l-8.976,6.528v.816Zm75.6-65.008C308.248,8.3,294.784,0,276.968,0H244.6V.816l8.976,6.528V82.688L244.6,89.216v.816h31.416v-.816L265.68,82.688V4.216h6.392c15.912,0,23.8,9.248,23.8,22.44,0,15.232-12.1,24.48-23.936,26.248v1.224c19.04.408,36.312-10.064,36.312-29.1m69.628,65.008v-.816L368.9,82.688V7.344L377.876.816V0H347.819V.816L356.8,7.344V82.688l-8.977,6.528v.816Zm36.947,0v-.816l-10.2-7.208V17.272l64.6,72.76h4.352V8.024L483.5.816V0H457.8V.816L468,8.024V71.4L405.439,0H388.575V.816a85.953,85.953,0,0,1,10.472,10.2V82.008l-9.928,7.208v.816ZM531.1,82.688l11.7-30.6h27.336l12.784,30.6-9.384,6.528v.816h29.376v-.816l-7.616-6.528L559.795-1.9h-1.5l-32.64,84.592-7.616,6.528v.816h22.44v-.816Zm24.752-64.6L568.227,47.6H544.563Z" transform="translate(282.525 131.496)"></path>
  <path d="M0,0,8.976-6.528v-.816H-21.08v.816L-12.1,0V75.344l-8.976,6.528v.816H8.976v-.816L0,75.344V39.3H50.728v36.04l-8.976,6.528v.816H71.808v-.816l-8.976-6.528V0l8.976-6.528v-.816H41.752v.816L50.728,0V34.544H0ZM80.59,38.76c0,26.792,20.264,45.424,44.744,45.424,24.616,0,44.88-20.264,44.88-47.328,0-26.928-20.264-45.7-44.88-45.7-25.024,0-44.744,20.4-44.744,47.6m13.464-.952c0-25.7,14.008-42.024,31.28-42.024,17.136,0,31.552,16.32,31.552,42.024,0,25.568-14.416,41.752-31.552,41.752s-31.28-16.048-31.28-41.752M238.891-6.528v-.816H212.507v.816L219.987,0l12.784,29.784L216.315,66.1,189.795,0l9.248-6.528v-.816H169.667v.816L177.147,0l34.816,84.456H213.6l21.9-48.416,20.944,48.416h1.632L289.075,0l7.616-6.528v-.816h-22.44v.816L283.5,0,259.427,66.1l-16.592-40.12L254.123,0l7.48-6.528v-.816H242.019v.816L248.819,0l-8.432,19.992L232.091,0Zm93.972-.816v.816L341.839,0V75.344l-8.976,6.528v.816h39.712c28.288,0,47.192-19.04,47.192-45.7,0-28.832-22.848-44.336-50.728-44.336Zm35.9,4.352c20.944,0,37.536,15.5,37.536,40.12,0,25.432-14.008,41.208-34,41.208-9.112,0-15.1-1.632-18.36-3.264V-2.992ZM430.685,38.76c0,26.792,20.264,45.424,44.744,45.424,24.616,0,44.88-20.264,44.88-47.328,0-26.928-20.264-45.7-44.88-45.7-25.024,0-44.744,20.4-44.744,47.6m13.464-.952c0-25.7,14.008-42.024,31.28-42.024,17.136,0,31.552,16.32,31.552,42.024,0,25.568-14.416,41.752-31.552,41.752s-31.28-16.048-31.28-41.752M621.9,0,599.729,34,577.561,0l9.112-6.528v-.816h-30.6v.816L563.553,0l26.928,40.256V75.344l-8.976,6.528v.816h30.056v-.816l-8.976-6.528v-37.4L627.473,0l7.616-6.528v-.816h-22.3v.816Zm10.78,38.76c0,26.792,20.264,45.424,44.744,45.424,24.616,0,44.88-20.264,44.88-47.328,0-26.928-20.264-45.7-44.88-45.7-25.024,0-44.744,20.4-44.744,47.6m13.464-.952c0-25.7,14.008-42.024,31.28-42.024,17.136,0,31.552,16.32,31.552,42.024,0,25.568-14.416,41.752-31.552,41.752s-31.28-16.048-31.28-41.752M810.072,0l8.976-6.528v-.816H795.384v.816L804.5,0V50.592c0,15.368-9.656,26.112-26.384,26.112-16.592,0-27.88-8.024-27.88-25.976V0l9.112-6.528v-.816H729.016v.816L738.128,0V50.864c0,22.848,15.64,33.32,37.808,33.32,20.4,0,34.136-14.144,34.136-33.32ZM938.315,43.248l7.208-6.528V35.9h-30.6v.816l11.152,6.528V74.392a34.769,34.769,0,0,1-18.5,5.032c-22.168,0-36.448-19.312-36.448-42.432,0-22.168,12.376-41.208,35.088-41.208,14.96,0,23.12,6.256,28.56,13.872h.68V-4.9c-4.76-1.088-16.864-3.944-29.24-3.944-30.328,0-48.552,22.3-48.552,46.648,0,27.064,19.72,46.376,49.232,46.376,14.28,0,25.568-5.576,31.416-7.48ZM956.14,38.76c0,26.792,20.264,45.424,44.744,45.424,24.616,0,44.88-20.264,44.88-47.328,0-26.928-20.264-45.7-44.88-45.7-25.024,0-44.744,20.4-44.744,47.6m13.464-.952c0-25.7,14.008-42.024,31.28-42.024,17.136,0,31.552,16.32,31.552,42.024,0,25.568-14.416,41.752-31.552,41.752S969.6,63.512,969.6,37.808" transform="translate(69.188 8.84)"></path>
</svg>
