<?xml version="1.0" encoding="UTF-8"?>
<svg xmlns="http://www.w3.org/2000/svg" width="1202.16" height="123.62" viewBox="0 0 1202.16 123.62">
  <g transform="translate(-337 -403.62)">
    <path d="M0-1.105H8.125v-46.41H0Zm18.655,0H26.39V-35.23h.195L47.71-1.105h8.58v-46.41H48.555v34.19h-.13l-21.19-34.19h-8.58Zm63.829,0h8.385L95.224-13.39h18.525L118.1-1.105h8.71l-17.875-46.41h-8.645Zm21.97-38.415h.195L111.6-19.565H97.434Zm56.42,38.415h8.385l9.49-35.49h.13l9.295,35.49h8.255l12.8-46.41h-8.255l-8.645,35.49h-.13l-9.1-35.49h-8.32l-9.36,35.49h-.13l-8.385-35.49h-8.255Zm79.617-39.39a12.578,12.578,0,0,1,4.388,4,18.052,18.052,0,0,1,2.5,5.687,26.228,26.228,0,0,1,.813,6.5,26.222,26.222,0,0,1-.813,6.5,18.048,18.048,0,0,1-2.5,5.688,12.565,12.565,0,0,1-4.388,4,13,13,0,0,1-6.4,1.495,13.006,13.006,0,0,1-6.4-1.495,12.536,12.536,0,0,1-4.387-4,17.982,17.982,0,0,1-2.5-5.688,26.174,26.174,0,0,1-.812-6.5,26.18,26.18,0,0,1,.812-6.5,17.987,17.987,0,0,1,2.5-5.687,12.548,12.548,0,0,1,4.387-4,13.017,13.017,0,0,1,6.4-1.5,13.016,13.016,0,0,1,6.4,1.5m-15.73-6.175a20.872,20.872,0,0,0-6.987,5.265,23.386,23.386,0,0,0-4.388,7.735,28.439,28.439,0,0,0-1.527,9.36,28.633,28.633,0,0,0,1.527,9.425,23.376,23.376,0,0,0,4.388,7.735,20.5,20.5,0,0,0,6.987,5.233A21.9,21.9,0,0,0,234.089,0a21.907,21.907,0,0,0,9.327-1.917A20.536,20.536,0,0,0,250.4-7.15a23.427,23.427,0,0,0,4.387-7.735,28.66,28.66,0,0,0,1.528-9.425,28.466,28.466,0,0,0-1.528-9.36A23.437,23.437,0,0,0,250.4-41.4a20.906,20.906,0,0,0-6.988-5.265,21.576,21.576,0,0,0-9.327-1.95,21.571,21.571,0,0,0-9.328,1.95M264.619-1.105h8.125v-19.11H284.7a12.494,12.494,0,0,1,4.582.715,6.059,6.059,0,0,1,2.828,2.243,9.6,9.6,0,0,1,1.43,3.834,33.477,33.477,0,0,1,.39,5.493q0,1.69.162,3.51a7.556,7.556,0,0,0,1.073,3.315h8.71a9.768,9.768,0,0,1-1.918-4.777,41.157,41.157,0,0,1-.617-7.443,13.074,13.074,0,0,0-.683-4.55,9.047,9.047,0,0,0-1.722-2.957A6.642,6.642,0,0,0,296.7-22.49a8.341,8.341,0,0,0-2.242-.65v-.13q.585-.195,1.852-.78a8.908,8.908,0,0,0,2.568-1.917,11.994,11.994,0,0,0,2.275-3.51,13.48,13.48,0,0,0,.975-5.493q0-5.914-3.835-9.23t-11.505-3.315H264.619Zm8.125-39.78h13.2a17.266,17.266,0,0,1,3.022.26,6.578,6.578,0,0,1,2.6,1.04,5.266,5.266,0,0,1,1.788,2.177A8.625,8.625,0,0,1,294-33.8a7.189,7.189,0,0,1-2.015,5.558,8.455,8.455,0,0,1-5.915,1.852H272.744Zm38.85,39.78h31.72v-7.02h-23.6v-39.39h-8.125Zm37.855,0h19.24a21.642,21.642,0,0,0,9.23-1.82,17.145,17.145,0,0,0,6.37-4.972,21.268,21.268,0,0,0,3.673-7.378,32.891,32.891,0,0,0,1.2-9.035,32.9,32.9,0,0,0-1.2-9.035,21.285,21.285,0,0,0-3.673-7.378,17.166,17.166,0,0,0-6.37-4.972,21.657,21.657,0,0,0-9.23-1.82h-19.24Zm8.125-39.78h7.995a20.278,20.278,0,0,1,7.768,1.268,11.369,11.369,0,0,1,4.745,3.51,12.7,12.7,0,0,1,2.34,5.265,32.678,32.678,0,0,1,.617,6.532,32.688,32.688,0,0,1-.617,6.533,12.705,12.705,0,0,1-2.34,5.265A11.367,11.367,0,0,1,373.337-9a20.278,20.278,0,0,1-7.768,1.268h-7.995Zm60.774,39.78h8.125v-19.11h11.96a12.5,12.5,0,0,1,4.583.715,6.056,6.056,0,0,1,2.827,2.243,9.582,9.582,0,0,1,1.43,3.834,33.477,33.477,0,0,1,.39,5.493q0,1.69.163,3.51A7.555,7.555,0,0,0,448.9-1.105h8.71a9.778,9.778,0,0,1-1.917-4.777,41.061,41.061,0,0,1-.618-7.443,13.075,13.075,0,0,0-.682-4.55,9.031,9.031,0,0,0-1.723-2.957,6.63,6.63,0,0,0-2.242-1.658,8.347,8.347,0,0,0-2.243-.65v-.13q.585-.195,1.853-.78a8.892,8.892,0,0,0,2.567-1.917,11.974,11.974,0,0,0,2.275-3.51,13.48,13.48,0,0,0,.975-5.493q0-5.914-3.835-9.23t-11.505-3.315H418.348Zm8.125-39.78h13.2a17.277,17.277,0,0,1,3.023.26,6.583,6.583,0,0,1,2.6,1.04,5.264,5.264,0,0,1,1.787,2.177,8.61,8.61,0,0,1,.65,3.608,7.186,7.186,0,0,1-2.015,5.558A8.454,8.454,0,0,1,439.8-26.39H426.473ZM464.459-17.81a20.4,20.4,0,0,0,1.365,7.8,15.017,15.017,0,0,0,3.867,5.558A16.122,16.122,0,0,0,475.7-1.105,25.916,25.916,0,0,0,483.5,0a25.916,25.916,0,0,0,7.8-1.105,16.118,16.118,0,0,0,6.012-3.347,15.02,15.02,0,0,0,3.868-5.558,20.4,20.4,0,0,0,1.365-7.8v-29.7h-8.125v27.04q0,2.34-.228,4.745a10.833,10.833,0,0,1-1.3,4.322,8.28,8.28,0,0,1-3.25,3.153A12.57,12.57,0,0,1,483.5-7.02a12.569,12.569,0,0,1-6.143-1.235,8.28,8.28,0,0,1-3.25-3.153,10.833,10.833,0,0,1-1.3-4.322q-.228-2.4-.227-4.745v-27.04h-8.125Zm48.281,16.7h7.735V-35.23h.2L541.795-1.105h8.58v-46.41H542.64v34.19h-.13l-21.19-34.19h-8.58Zm48.073,0h7.735V-35.23h.2L589.868-1.105h8.58v-46.41h-7.735v34.19h-.13l-21.19-34.19h-8.58Zm48.2,0h8.125v-46.41h-8.125Zm18.655,0h7.735V-35.23h.2L656.726-1.105h8.58v-46.41h-7.735v34.19h-.13l-21.19-34.19h-8.58Zm88.607-24.44h-19.76v6.175h12.35a17.184,17.184,0,0,1-.91,5.33,10.64,10.64,0,0,1-2.5,4.063,10.97,10.97,0,0,1-4.062,2.535,15.123,15.123,0,0,1-5.525.812,13.006,13.006,0,0,1-6.4-1.495,12.545,12.545,0,0,1-4.387-4,18.027,18.027,0,0,1-2.5-5.688,26.175,26.175,0,0,1-.812-6.5,26.181,26.181,0,0,1,.812-6.5,18.031,18.031,0,0,1,2.5-5.687,12.557,12.557,0,0,1,4.387-4,13.017,13.017,0,0,1,6.4-1.5,15.084,15.084,0,0,1,4.225.585,11.822,11.822,0,0,1,3.64,1.755,10.123,10.123,0,0,1,2.7,2.893,10.2,10.2,0,0,1,1.4,4h7.93a17.455,17.455,0,0,0-2.21-6.89,16.581,16.581,0,0,0-4.42-4.972,19.212,19.212,0,0,0-6.078-2.991,25.259,25.259,0,0,0-7.182-1.007,21.578,21.578,0,0,0-9.328,1.95,20.873,20.873,0,0,0-6.987,5.265,23.4,23.4,0,0,0-4.388,7.735,28.465,28.465,0,0,0-1.527,9.36,28.659,28.659,0,0,0,1.527,9.425,23.394,23.394,0,0,0,4.388,7.735,20.5,20.5,0,0,0,6.987,5.233A21.909,21.909,0,0,0,695.868,0a18.411,18.411,0,0,0,7.475-1.43,19.312,19.312,0,0,0,6.5-5.135l1.235,5.46h5.2Zm56.972-14.95a12.575,12.575,0,0,1,4.387,4,18.078,18.078,0,0,1,2.5,5.687,26.227,26.227,0,0,1,.812,6.5,26.221,26.221,0,0,1-.812,6.5,18.074,18.074,0,0,1-2.5,5.688,12.563,12.563,0,0,1-4.387,4,13.009,13.009,0,0,1-6.4,1.495,13,13,0,0,1-6.4-1.495,12.539,12.539,0,0,1-4.388-4,18,18,0,0,1-2.5-5.688,26.13,26.13,0,0,1-.813-6.5,26.136,26.136,0,0,1,.813-6.5,18.008,18.008,0,0,1,2.5-5.687,12.551,12.551,0,0,1,4.388-4,13.01,13.01,0,0,1,6.4-1.5,13.02,13.02,0,0,1,6.4,1.5M757.52-46.67a20.867,20.867,0,0,0-6.988,5.265,23.384,23.384,0,0,0-4.387,7.735,28.439,28.439,0,0,0-1.528,9.36,28.633,28.633,0,0,0,1.528,9.425,23.374,23.374,0,0,0,4.387,7.735,20.5,20.5,0,0,0,6.988,5.233A21.9,21.9,0,0,0,766.847,0a21.915,21.915,0,0,0,9.328-1.917,20.522,20.522,0,0,0,6.987-5.233,23.429,23.429,0,0,0,4.388-7.735,28.685,28.685,0,0,0,1.527-9.425,28.491,28.491,0,0,0-1.527-9.36,23.439,23.439,0,0,0-4.388-7.735,20.892,20.892,0,0,0-6.987-5.265,21.584,21.584,0,0,0-9.328-1.95,21.57,21.57,0,0,0-9.327,1.95m39.344,28.86a20.4,20.4,0,0,0,1.365,7.8A15.005,15.005,0,0,0,802.1-4.452a16.122,16.122,0,0,0,6.013,3.347A25.916,25.916,0,0,0,815.909,0a25.916,25.916,0,0,0,7.8-1.105,16.126,16.126,0,0,0,6.012-3.347,15.02,15.02,0,0,0,3.868-5.558,20.4,20.4,0,0,0,1.365-7.8v-29.7h-8.125v27.04q0,2.34-.228,4.745a10.834,10.834,0,0,1-1.3,4.322,8.28,8.28,0,0,1-3.25,3.153,12.571,12.571,0,0,1-6.142,1.235,12.567,12.567,0,0,1-6.143-1.235,8.28,8.28,0,0,1-3.25-3.153,10.818,10.818,0,0,1-1.3-4.322q-.228-2.4-.227-4.745v-27.04h-8.125Zm43.965-22.685h14.69v39.39h8.125v-39.39H878.4v-7.02h-37.57Zm91.1,0a12.569,12.569,0,0,1,4.388,4,18.052,18.052,0,0,1,2.5,5.687,26.182,26.182,0,0,1,.813,6.5,26.176,26.176,0,0,1-.813,6.5,18.047,18.047,0,0,1-2.5,5.688,12.557,12.557,0,0,1-4.388,4,13,13,0,0,1-6.4,1.495,13.006,13.006,0,0,1-6.4-1.495,12.546,12.546,0,0,1-4.387-4,18.028,18.028,0,0,1-2.5-5.688,26.175,26.175,0,0,1-.812-6.5,26.181,26.181,0,0,1,.812-6.5,18.033,18.033,0,0,1,2.5-5.687,12.558,12.558,0,0,1,4.387-4,13.017,13.017,0,0,1,6.4-1.5,13.013,13.013,0,0,1,6.4,1.5M916.2-46.67a20.872,20.872,0,0,0-6.987,5.265,23.4,23.4,0,0,0-4.388,7.735,28.465,28.465,0,0,0-1.527,9.36,28.659,28.659,0,0,0,1.527,9.425,23.394,23.394,0,0,0,4.388,7.735A20.5,20.5,0,0,0,916.2-1.917,21.909,21.909,0,0,0,925.523,0a21.907,21.907,0,0,0,9.327-1.917,20.516,20.516,0,0,0,6.988-5.233,23.409,23.409,0,0,0,4.387-7.735,28.66,28.66,0,0,0,1.528-9.425,28.466,28.466,0,0,0-1.528-9.36,23.419,23.419,0,0,0-4.387-7.735,20.886,20.886,0,0,0-6.988-5.265,21.576,21.576,0,0,0-9.327-1.95,21.578,21.578,0,0,0-9.328,1.95M956.053-1.105h8.125v-20.6h20.995v-6.63H964.178V-40.495H988.1v-7.02H956.053Zm56.094-39.39h14.69v39.39h8.125v-39.39h14.755v-7.02h-37.57Zm43.614,39.39h8.125v-46.41h-8.125Zm18.746,0h7.735V-36.92h.13l12.87,35.815h6.7l12.87-35.815h.13V-1.105h7.735v-46.41h-11.31l-12.48,36.335h-.13l-12.8-36.335h-11.44Zm58.812,0h33.865v-7.02h-25.74V-21.71h23.4v-6.63h-23.4V-40.495h25.285v-7.02h-33.41Zm49.406,0h8.71V-9.23h-8.71ZM1179.8-32.76a11.729,11.729,0,0,1,1.917-7.053q1.917-2.631,5.948-2.632a5.979,5.979,0,0,1,1.95.39,6.459,6.459,0,0,1,2.08,1.235,6.959,6.959,0,0,1,1.657,2.243,7.561,7.561,0,0,1,.683,3.347,8.264,8.264,0,0,1-.423,2.795,7.458,7.458,0,0,1-1.17,2.113,11.6,11.6,0,0,1-1.69,1.722q-.943.78-1.982,1.69a18.185,18.185,0,0,0-2.243,2.243,10.854,10.854,0,0,0-1.592,2.632,13.732,13.732,0,0,0-.943,3.478,33.917,33.917,0,0,0-.292,4.842h7.02a15.974,15.974,0,0,1,.422-3.965,9.582,9.582,0,0,1,1.2-2.827,11.667,11.667,0,0,1,1.82-2.178q1.038-.975,2.275-2.015,1.038-.909,2.08-1.852a11.82,11.82,0,0,0,1.852-2.145,10.255,10.255,0,0,0,1.3-2.86,14.031,14.031,0,0,0,.488-3.933,13.562,13.562,0,0,0-1.1-5.59,11.687,11.687,0,0,0-3.023-4.127,13.384,13.384,0,0,0-4.485-2.535,17.081,17.081,0,0,0-5.557-.878,17.547,17.547,0,0,0-6.468,1.138,14.042,14.042,0,0,0-4.94,3.217,13.805,13.805,0,0,0-3.12,5.005,18.764,18.764,0,0,0-1.072,6.5Z" transform="translate(337 527.24)"></path>
    <path d="M0,0H8.125V-20.93H29.25V0h8.125V-46.41H29.25v18.46H8.125V-46.41H0ZM74.216-39.39a12.584,12.584,0,0,1,4.388,4,18.068,18.068,0,0,1,2.5,5.688,26.228,26.228,0,0,1,.813,6.5,26.222,26.222,0,0,1-.813,6.5,18.032,18.032,0,0,1-2.5,5.687,12.559,12.559,0,0,1-4.388,4,13,13,0,0,1-6.4,1.495,13.006,13.006,0,0,1-6.4-1.495,12.53,12.53,0,0,1-4.387-4,17.967,17.967,0,0,1-2.5-5.687,26.175,26.175,0,0,1-.812-6.5,26.18,26.18,0,0,1,.812-6.5,18,18,0,0,1,2.5-5.688,12.555,12.555,0,0,1,4.387-4,13.017,13.017,0,0,1,6.4-1.495,13.016,13.016,0,0,1,6.4,1.495m-15.73-6.175A20.873,20.873,0,0,0,51.5-40.3a23.386,23.386,0,0,0-4.388,7.735,28.439,28.439,0,0,0-1.527,9.36,28.633,28.633,0,0,0,1.527,9.425A23.376,23.376,0,0,0,51.5-6.045,20.5,20.5,0,0,0,58.486-.812a21.9,21.9,0,0,0,9.328,1.917A21.907,21.907,0,0,0,77.141-.812a20.536,20.536,0,0,0,6.988-5.233,23.427,23.427,0,0,0,4.387-7.735A28.66,28.66,0,0,0,90.044-23.2a28.466,28.466,0,0,0-1.528-9.36A23.437,23.437,0,0,0,84.129-40.3a20.906,20.906,0,0,0-6.988-5.265,21.576,21.576,0,0,0-9.327-1.95,21.571,21.571,0,0,0-9.328,1.95M104.922,0h8.385l9.49-35.49h.13L132.222,0h8.255l12.8-46.41h-8.255l-8.645,35.49h-.13l-9.1-35.49h-8.32l-9.36,35.49h-.13l-8.385-35.49H92.7Zm75.659,0h19.24a21.645,21.645,0,0,0,9.23-1.82,17.153,17.153,0,0,0,6.37-4.972,21.266,21.266,0,0,0,3.672-7.378,32.852,32.852,0,0,0,1.2-9.035,32.863,32.863,0,0,0-1.2-9.035,21.283,21.283,0,0,0-3.672-7.378,17.174,17.174,0,0,0-6.37-4.972,21.66,21.66,0,0,0-9.23-1.82h-19.24Zm8.125-39.78h8a20.276,20.276,0,0,1,7.767,1.268A11.361,11.361,0,0,1,209.213-35a12.68,12.68,0,0,1,2.34,5.265,32.613,32.613,0,0,1,.618,6.533,32.6,32.6,0,0,1-.618,6.532,12.674,12.674,0,0,1-2.34,5.265,11.354,11.354,0,0,1-4.745,3.51A20.276,20.276,0,0,1,196.7-6.63h-8Zm66.2.39a12.581,12.581,0,0,1,4.387,4,18.07,18.07,0,0,1,2.5,5.688,26.227,26.227,0,0,1,.812,6.5,26.221,26.221,0,0,1-.812,6.5,18.034,18.034,0,0,1-2.5,5.687,12.555,12.555,0,0,1-4.387,4,13.009,13.009,0,0,1-6.4,1.495,13,13,0,0,1-6.4-1.495,12.541,12.541,0,0,1-4.388-4,17.987,17.987,0,0,1-2.5-5.687,26.129,26.129,0,0,1-.813-6.5,26.134,26.134,0,0,1,.813-6.5,18.023,18.023,0,0,1,2.5-5.688,12.567,12.567,0,0,1,4.388-4,13.01,13.01,0,0,1,6.4-1.495,13.02,13.02,0,0,1,6.4,1.495m-15.73-6.175a20.876,20.876,0,0,0-6.988,5.265,23.384,23.384,0,0,0-4.387,7.735,28.439,28.439,0,0,0-1.528,9.36A28.633,28.633,0,0,0,227.8-13.78a23.374,23.374,0,0,0,4.387,7.735,20.507,20.507,0,0,0,6.988,5.233A21.9,21.9,0,0,0,248.5,1.105a21.912,21.912,0,0,0,9.328-1.917,20.522,20.522,0,0,0,6.987-5.233A23.411,23.411,0,0,0,269.2-13.78a28.686,28.686,0,0,0,1.527-9.425,28.492,28.492,0,0,0-1.527-9.36,23.421,23.421,0,0,0-4.388-7.735,20.892,20.892,0,0,0-6.987-5.265,21.581,21.581,0,0,0-9.328-1.95,21.57,21.57,0,0,0-9.327,1.95M307.778,0h8.385l9.49-35.49h.13L335.078,0h8.255l12.8-46.41h-8.255l-8.645,35.49h-.13l-9.1-35.49h-8.32l-9.36,35.49h-.13l-8.385-35.49h-8.255Zm54.378,0h33.865V-7.02h-25.74V-20.6h23.4v-6.63h-23.4V-39.39h25.285v-7.02h-33.41Zm58.5-39.39h14.69V0h8.125V-39.39h14.755v-7.02h-37.57ZM464.185,0h8.125V-20.93h21.125V0h8.125V-46.41h-8.125v18.46H472.31V-46.41h-8.125Zm47.962,0h8.125V-46.41h-8.125ZM530.8,0h7.735V-34.125h.2L559.857,0h8.58V-46.41H560.7v34.19h-.13l-21.19-34.19H530.8Zm48.223,0h8.125V-15.6l6.63-6.565L608.99,0h10.14L599.3-27.885,617.83-46.41H607.82L587.15-25.285V-46.41h-8.125ZM645.52,0h8.125V-20.6H674.64v-6.63H653.645V-39.39h23.92v-7.02H645.52Zm64.55-39.39a12.576,12.576,0,0,1,4.388,4,18.069,18.069,0,0,1,2.5,5.688,26.182,26.182,0,0,1,.813,6.5,26.176,26.176,0,0,1-.813,6.5,18.033,18.033,0,0,1-2.5,5.687,12.55,12.55,0,0,1-4.388,4,13,13,0,0,1-6.4,1.495,13.006,13.006,0,0,1-6.4-1.495,12.538,12.538,0,0,1-4.387-4,17.989,17.989,0,0,1-2.5-5.687,26.175,26.175,0,0,1-.812-6.5,26.181,26.181,0,0,1,.812-6.5,18.025,18.025,0,0,1,2.5-5.688,12.564,12.564,0,0,1,4.387-4,13.017,13.017,0,0,1,6.4-1.495,13.013,13.013,0,0,1,6.4,1.495m-15.73-6.175a20.872,20.872,0,0,0-6.987,5.265,23.4,23.4,0,0,0-4.388,7.735,28.465,28.465,0,0,0-1.527,9.36,28.659,28.659,0,0,0,1.527,9.425,23.392,23.392,0,0,0,4.388,7.735A20.5,20.5,0,0,0,694.34-.812a21.908,21.908,0,0,0,9.328,1.917,21.907,21.907,0,0,0,9.327-1.917,20.516,20.516,0,0,0,6.988-5.233,23.409,23.409,0,0,0,4.387-7.735A28.66,28.66,0,0,0,725.9-23.2a28.466,28.466,0,0,0-1.528-9.36,23.419,23.419,0,0,0-4.387-7.735,20.886,20.886,0,0,0-6.988-5.265,21.576,21.576,0,0,0-9.327-1.95,21.577,21.577,0,0,0-9.328,1.95M734.2,0h8.125V-19.11h11.96a12.49,12.49,0,0,1,4.582.715,6.063,6.063,0,0,1,2.828,2.242,9.593,9.593,0,0,1,1.43,3.835,33.473,33.473,0,0,1,.39,5.493q0,1.69.162,3.51A7.569,7.569,0,0,0,764.748,0h8.71a9.788,9.788,0,0,1-1.918-4.777,41.157,41.157,0,0,1-.617-7.443,13.073,13.073,0,0,0-.683-4.55,9.046,9.046,0,0,0-1.722-2.958,6.643,6.643,0,0,0-2.243-1.657,8.331,8.331,0,0,0-2.242-.65v-.13q.585-.195,1.852-.78a8.882,8.882,0,0,0,2.568-1.918,11.976,11.976,0,0,0,2.275-3.509,13.481,13.481,0,0,0,.975-5.493q0-5.914-3.835-9.23T756.363-46.41H734.2Zm8.125-39.78h13.2a17.265,17.265,0,0,1,3.022.26,6.577,6.577,0,0,1,2.6,1.04,5.266,5.266,0,0,1,1.788,2.177,8.609,8.609,0,0,1,.65,3.608,7.186,7.186,0,0,1-2.015,5.558,8.455,8.455,0,0,1-5.915,1.852H742.323ZM781.173,0h33.865V-7.02H789.3V-20.6h23.4v-6.63H789.3V-39.39h25.285v-7.02h-33.41Zm53.54,0h9.035l15.86-46.41h-8.255l-11.9,36.725h-.13L827.693-46.41h-8.45Zm30.621,0H899.2V-7.02h-25.74V-20.6h23.4v-6.63h-23.4V-39.39h25.285v-7.02h-33.41ZM907.18,0H915.3V-19.11h11.96a12.5,12.5,0,0,1,4.583.715,6.06,6.06,0,0,1,2.827,2.242,9.593,9.593,0,0,1,1.43,3.835,33.473,33.473,0,0,1,.39,5.493q0,1.69.163,3.51A7.567,7.567,0,0,0,937.73,0h8.71a9.778,9.778,0,0,1-1.917-4.777,41.059,41.059,0,0,1-.618-7.443,13.077,13.077,0,0,0-.682-4.55,9.047,9.047,0,0,0-1.723-2.958,6.639,6.639,0,0,0-2.242-1.657,8.347,8.347,0,0,0-2.243-.65v-.13q.585-.195,1.853-.78a8.878,8.878,0,0,0,2.567-1.918,11.955,11.955,0,0,0,2.275-3.509,13.481,13.481,0,0,0,.975-5.493q0-5.914-3.835-9.23T929.345-46.41H907.18ZM915.3-39.78h13.2a17.278,17.278,0,0,1,3.023.26,6.583,6.583,0,0,1,2.6,1.04A5.264,5.264,0,0,1,935.91-36.3a8.609,8.609,0,0,1,.65,3.608,7.186,7.186,0,0,1-2.015,5.558,8.453,8.453,0,0,1-5.915,1.852H915.3Z" transform="translate(465.575 451.135)"></path>
  </g>
</svg>
