<?xml version="1.0" encoding="UTF-8"?>
<svg xmlns="http://www.w3.org/2000/svg" width="287.611" height="173.758" viewBox="0 0 287.611 173.758">
  <g transform="translate(-817 -453.758)">
    <path d="M0,0H7.345V19.695h4.063V0h7.377V-3.51H0ZM22.119,19.695h4.062V-3.51H22.119Zm9.682,0h3.867V1.788h.065l6.435,17.907h3.348L51.951,1.788h.065V19.695h3.867V-3.51H50.228l-6.24,18.168h-.065L37.521-3.51H31.8Zm29.711,0H78.445v-3.51H65.575V9.393h11.7V6.077h-11.7V0H78.217V-3.51H61.512Zm25.034,0H90.9V15.633H86.546ZM85.084,3.867A5.86,5.86,0,0,1,86.043.341,3.433,3.433,0,0,1,89.016-.975a2.98,2.98,0,0,1,.975.2,3.227,3.227,0,0,1,1.04.617A3.475,3.475,0,0,1,91.86.959,3.771,3.771,0,0,1,92.2,2.632a4.122,4.122,0,0,1-.211,1.4A3.724,3.724,0,0,1,91.4,5.086a5.729,5.729,0,0,1-.845.861q-.471.392-.991.845a9.124,9.124,0,0,0-1.121,1.122,5.448,5.448,0,0,0-.8,1.316,6.935,6.935,0,0,0-.471,1.739,17.028,17.028,0,0,0-.146,2.421h3.51a7.977,7.977,0,0,1,.211-1.982,4.8,4.8,0,0,1,.6-1.414,5.873,5.873,0,0,1,.91-1.089Q92.786,8.418,93.4,7.9q.519-.456,1.04-.927A5.908,5.908,0,0,0,95.37,5.9a5.106,5.106,0,0,0,.65-1.43A7,7,0,0,0,96.264,2.5a6.76,6.76,0,0,0-.553-2.8A5.819,5.819,0,0,0,94.2-2.356a6.708,6.708,0,0,0-2.242-1.268,8.557,8.557,0,0,0-2.779-.438,8.774,8.774,0,0,0-3.234.568,7.045,7.045,0,0,0-2.47,1.609,6.927,6.927,0,0,0-1.56,2.5,9.4,9.4,0,0,0-.536,3.25Z" transform="translate(911.162 607.821)"></path>
    <path d="M0,0H4.062V-9.555h5.98a6.227,6.227,0,0,1,2.292.358,3.023,3.023,0,0,1,1.413,1.121,4.766,4.766,0,0,1,.715,1.917,16.733,16.733,0,0,1,.2,2.747q0,.844.081,1.755A3.78,3.78,0,0,0,15.275,0H19.63a4.889,4.889,0,0,1-.959-2.389,20.567,20.567,0,0,1-.308-3.721,6.524,6.524,0,0,0-.342-2.275,4.533,4.533,0,0,0-.861-1.479,3.314,3.314,0,0,0-1.121-.828,4.113,4.113,0,0,0-1.122-.325v-.065c.2-.065.5-.2.927-.39a4.463,4.463,0,0,0,1.284-.959,6,6,0,0,0,1.137-1.755,6.737,6.737,0,0,0,.488-2.746,5.776,5.776,0,0,0-1.918-4.615Q14.917-23.2,11.083-23.2H0ZM4.062-19.89h6.6a8.677,8.677,0,0,1,1.511.13,3.286,3.286,0,0,1,1.3.52,2.631,2.631,0,0,1,.894,1.089,4.31,4.31,0,0,1,.325,1.8,3.588,3.588,0,0,1-1.008,2.778,4.222,4.222,0,0,1-2.957.927H4.062Zm19.3,11.538a10.2,10.2,0,0,0,.683,3.9A7.5,7.5,0,0,0,25.98-1.674,8.057,8.057,0,0,0,28.987,0a12.958,12.958,0,0,0,3.9.553A12.958,12.958,0,0,0,36.787,0a8.061,8.061,0,0,0,3.006-1.674,7.5,7.5,0,0,0,1.934-2.778,10.2,10.2,0,0,0,.682-3.9V-23.2H38.347v13.52q0,1.17-.114,2.373a5.432,5.432,0,0,1-.65,2.161,4.149,4.149,0,0,1-1.625,1.576,6.285,6.285,0,0,1-3.071.618,6.286,6.286,0,0,1-3.072-.618A4.142,4.142,0,0,1,28.19-5.151a5.432,5.432,0,0,1-.65-2.161q-.114-1.2-.113-2.373V-23.2H23.364ZM47.8,0h3.867V-17.062h.1L62.331,0h4.29V-23.2H62.754V-6.11h-.065L52.094-23.2H47.8ZM72.139,0h3.868V-17.062h.1L86.667,0h4.29V-23.2H87.089V-6.11h-.065L76.429-23.2h-4.29Zm24.4,0h4.062V-23.2H96.543Zm9.633,0h3.867V-17.062h.1L120.7,0h4.29V-23.2h-3.867V-6.11h-.065L110.466-23.2h-4.29Zm44.609-12.22H140.9v3.088h6.175a8.609,8.609,0,0,1-.455,2.665,5.334,5.334,0,0,1-1.251,2.031,5.488,5.488,0,0,1-2.032,1.267,7.569,7.569,0,0,1-2.762.407,6.493,6.493,0,0,1-3.2-.748,6.257,6.257,0,0,1-2.194-2,8.983,8.983,0,0,1-1.251-2.843,13.044,13.044,0,0,1-.407-3.25,13.038,13.038,0,0,1,.407-3.25,8.979,8.979,0,0,1,1.251-2.844,6.276,6.276,0,0,1,2.194-2,6.5,6.5,0,0,1,3.2-.747,7.536,7.536,0,0,1,2.112.292,5.9,5.9,0,0,1,1.82.878,5.047,5.047,0,0,1,1.349,1.446,5.1,5.1,0,0,1,.7,2h3.965a8.722,8.722,0,0,0-1.1-3.445,8.288,8.288,0,0,0-2.21-2.487,9.616,9.616,0,0,0-3.039-1.495,12.647,12.647,0,0,0-3.591-.5,10.787,10.787,0,0,0-4.664.975,10.447,10.447,0,0,0-3.494,2.632,11.683,11.683,0,0,0-2.193,3.868,14.2,14.2,0,0,0-.764,4.68,14.3,14.3,0,0,0,.764,4.712,11.683,11.683,0,0,0,2.193,3.868,10.262,10.262,0,0,0,3.494,2.616,10.945,10.945,0,0,0,4.664.959,9.21,9.21,0,0,0,3.737-.715,9.66,9.66,0,0,0,3.25-2.568L148.185,0h2.6Zm28.486-7.475a6.29,6.29,0,0,1,2.193,2,9,9,0,0,1,1.252,2.844,13.132,13.132,0,0,1,.406,3.25,13.138,13.138,0,0,1-.406,3.25,9.008,9.008,0,0,1-1.252,2.843,6.271,6.271,0,0,1-2.193,2,6.5,6.5,0,0,1-3.2.748,6.5,6.5,0,0,1-3.2-.748,6.275,6.275,0,0,1-2.194-2,9.028,9.028,0,0,1-1.251-2.843,13.09,13.09,0,0,1-.406-3.25,13.084,13.084,0,0,1,.406-3.25,9.024,9.024,0,0,1,1.251-2.844,6.294,6.294,0,0,1,2.194-2,6.506,6.506,0,0,1,3.2-.747,6.513,6.513,0,0,1,3.2.747m-7.865-3.087a10.427,10.427,0,0,0-3.494,2.632,11.685,11.685,0,0,0-2.194,3.868,14.229,14.229,0,0,0-.764,4.68,14.329,14.329,0,0,0,.764,4.712,11.685,11.685,0,0,0,2.194,3.868,10.243,10.243,0,0,0,3.494,2.616,10.941,10.941,0,0,0,4.663.959,10.945,10.945,0,0,0,4.664-.959,10.262,10.262,0,0,0,3.494-2.616,11.721,11.721,0,0,0,2.194-3.868,14.329,14.329,0,0,0,.763-4.712,14.228,14.228,0,0,0-.763-4.68,11.721,11.721,0,0,0-2.194-3.868,10.447,10.447,0,0,0-3.494-2.632,10.787,10.787,0,0,0-4.664-.975,10.783,10.783,0,0,0-4.663.975m19.977,14.43a10.2,10.2,0,0,0,.683,3.9A7.5,7.5,0,0,0,194-1.674,8.057,8.057,0,0,0,197.006,0a12.958,12.958,0,0,0,3.9.553,12.958,12.958,0,0,0,3.9-.553,8.053,8.053,0,0,0,3.006-1.674,7.5,7.5,0,0,0,1.934-2.778,10.2,10.2,0,0,0,.682-3.9V-23.2h-4.062v13.52q0,1.17-.114,2.373a5.432,5.432,0,0,1-.65,2.161,4.142,4.142,0,0,1-1.625,1.576,6.285,6.285,0,0,1-3.071.618,6.286,6.286,0,0,1-3.072-.618,4.142,4.142,0,0,1-1.625-1.576,5.432,5.432,0,0,1-.65-2.161q-.114-1.2-.113-2.373V-23.2h-4.063Zm22.288-11.343h7.345V0h4.063V-19.695h7.377V-23.2H213.671Zm45.549,0a6.29,6.29,0,0,1,2.193,2,9.048,9.048,0,0,1,1.252,2.844,13.132,13.132,0,0,1,.406,3.25,13.138,13.138,0,0,1-.406,3.25,9.053,9.053,0,0,1-1.252,2.843,6.271,6.271,0,0,1-2.193,2,6.5,6.5,0,0,1-3.2.748,6.5,6.5,0,0,1-3.2-.748,6.266,6.266,0,0,1-2.194-2,9.029,9.029,0,0,1-1.251-2.843,13.09,13.09,0,0,1-.406-3.25,13.085,13.085,0,0,1,.406-3.25,9.024,9.024,0,0,1,1.251-2.844,6.285,6.285,0,0,1,2.194-2,6.506,6.506,0,0,1,3.2-.747,6.513,6.513,0,0,1,3.2.747m-7.865-3.087a10.427,10.427,0,0,0-3.494,2.632,11.685,11.685,0,0,0-2.194,3.868,14.229,14.229,0,0,0-.764,4.68,14.329,14.329,0,0,0,.764,4.712,11.685,11.685,0,0,0,2.194,3.868,10.243,10.243,0,0,0,3.494,2.616,10.941,10.941,0,0,0,4.663.959,10.948,10.948,0,0,0,4.664-.959,10.262,10.262,0,0,0,3.494-2.616A11.721,11.721,0,0,0,266.37-6.89a14.355,14.355,0,0,0,.763-4.712,14.254,14.254,0,0,0-.763-4.68,11.721,11.721,0,0,0-2.194-3.868,10.447,10.447,0,0,0-3.494-2.632,10.79,10.79,0,0,0-4.664-.975,10.783,10.783,0,0,0-4.663.975M271.589,0h4.062V-10.3h10.5v-3.315h-10.5v-6.078h11.96V-23.2H271.589Z" transform="translate(817 590.016)"></path>
    <path d="M45.556-75h4.062V-98.205H45.556Zm9.633,0h3.867V-92.063h.1L69.716-75h4.29V-98.205H70.139v17.1h-.065l-10.595-17.1h-4.29ZM87.1-75H91.3l2.177-6.143h9.263L104.913-75h4.355l-8.937-23.205H96.008ZM98.088-94.208h.1l3.477,9.978H94.578ZM126.3-75h4.193l4.745-17.745h.065L139.948-75h4.128l6.4-23.205h-4.127L142.028-80.46h-.065l-4.55-17.745h-4.16l-4.68,17.745h-.065l-4.192-17.745h-4.128Zm40.144-19.695a6.282,6.282,0,0,1,2.193,2,9.007,9.007,0,0,1,1.252,2.843,13.137,13.137,0,0,1,.406,3.25,13.131,13.131,0,0,1-.406,3.25,9,9,0,0,1-1.252,2.844,6.263,6.263,0,0,1-2.193,2,6.5,6.5,0,0,1-3.2.747,6.5,6.5,0,0,1-3.2-.747,6.275,6.275,0,0,1-2.194-2,9.024,9.024,0,0,1-1.251-2.844,13.085,13.085,0,0,1-.406-3.25,13.09,13.09,0,0,1,.406-3.25,9.029,9.029,0,0,1,1.251-2.843,6.294,6.294,0,0,1,2.194-2,6.507,6.507,0,0,1,3.2-.748,6.513,6.513,0,0,1,3.2.748m-7.865-3.088a10.44,10.44,0,0,0-3.494,2.633,11.691,11.691,0,0,0-2.194,3.867,14.237,14.237,0,0,0-.764,4.68,14.331,14.331,0,0,0,.764,4.713,11.681,11.681,0,0,0,2.194,3.867,10.255,10.255,0,0,0,3.494,2.617,10.94,10.94,0,0,0,4.663.958,10.945,10.945,0,0,0,4.664-.958,10.264,10.264,0,0,0,3.494-2.617,11.716,11.716,0,0,0,2.194-3.867,14.33,14.33,0,0,0,.763-4.713,14.237,14.237,0,0,0-.763-4.68A11.726,11.726,0,0,0,171.4-95.15a10.449,10.449,0,0,0-3.494-2.633,10.787,10.787,0,0,0-4.664-.975,10.783,10.783,0,0,0-4.663.975M178.811-75h4.063v-9.555h5.98a6.248,6.248,0,0,1,2.291.357,3.038,3.038,0,0,1,1.414,1.122,4.78,4.78,0,0,1,.714,1.917,16.618,16.618,0,0,1,.2,2.746q0,.846.081,1.755A3.779,3.779,0,0,0,194.086-75h4.355a4.889,4.889,0,0,1-.959-2.389,20.567,20.567,0,0,1-.308-3.721,6.524,6.524,0,0,0-.342-2.275,4.533,4.533,0,0,0-.861-1.479,3.331,3.331,0,0,0-1.121-.829,4.189,4.189,0,0,0-1.121-.325v-.065q.292-.1.926-.39a4.458,4.458,0,0,0,1.284-.958,6,6,0,0,0,1.137-1.755,6.742,6.742,0,0,0,.488-2.747,5.777,5.777,0,0,0-1.918-4.615q-1.918-1.658-5.752-1.657H178.811Zm4.063-19.89h6.6a8.677,8.677,0,0,1,1.511.13,3.286,3.286,0,0,1,1.3.52,2.631,2.631,0,0,1,.894,1.089,4.308,4.308,0,0,1,.325,1.8,3.591,3.591,0,0,1-1.008,2.779,4.222,4.222,0,0,1-2.957.926h-6.662ZM202.6-75h15.86v-3.51h-11.8V-98.205H202.6Zm19.242,0h9.62a10.819,10.819,0,0,0,4.615-.91A8.563,8.563,0,0,0,239.26-78.4a10.613,10.613,0,0,0,1.837-3.689,16.466,16.466,0,0,0,.6-4.518,16.469,16.469,0,0,0-.6-4.517,10.622,10.622,0,0,0-1.837-3.689,8.584,8.584,0,0,0-3.185-2.486,10.834,10.834,0,0,0-4.615-.91h-9.62ZM225.9-94.89h4a10.126,10.126,0,0,1,3.884.634,5.678,5.678,0,0,1,2.373,1.755,6.338,6.338,0,0,1,1.17,2.632,16.381,16.381,0,0,1,.308,3.266,16.391,16.391,0,0,1-.308,3.267,6.338,6.338,0,0,1-1.17,2.632,5.678,5.678,0,0,1-2.373,1.755,10.126,10.126,0,0,1-3.884.634h-4Z" transform="translate(817 627.516)"></path>
    <path d="M0,0H7.345V19.695h4.063V0h7.377V-3.51H0ZM22.074,19.695h4.062V9.23H36.7V19.695h4.062V-3.51H36.7V5.72H26.136V-3.51H22.074Zm24.29,0h4.062V-3.51H46.364Zm9.633,0h3.867V2.633h.1L70.524,19.695h4.29V-3.51H70.947v17.1h-.065l-10.6-17.1H56Zm24.416,0h4.063V11.9l3.315-3.282L95.4,19.695h5.07L90.553,5.753,99.816-3.51H94.811L84.476,7.052V-3.51H80.413Zm33.248,0h4.062V9.393h10.5V6.077h-10.5V0h11.96V-3.51H113.661ZM146.264,0a6.294,6.294,0,0,1,2.194,2,9.028,9.028,0,0,1,1.251,2.843,13.18,13.18,0,0,1,0,6.5,9.024,9.024,0,0,1-1.251,2.844,6.275,6.275,0,0,1-2.194,2,7.232,7.232,0,0,1-6.4,0,6.257,6.257,0,0,1-2.194-2,8.979,8.979,0,0,1-1.251-2.844,13.211,13.211,0,0,1,0-6.5A8.983,8.983,0,0,1,137.668,2a6.276,6.276,0,0,1,2.194-2,7.232,7.232,0,0,1,6.4,0M138.4-3.087a10.42,10.42,0,0,0-3.493,2.632,11.685,11.685,0,0,0-2.194,3.868,14.2,14.2,0,0,0-.764,4.679,14.3,14.3,0,0,0,.764,4.713,11.7,11.7,0,0,0,2.194,3.868,10.261,10.261,0,0,0,3.493,2.616,11.832,11.832,0,0,0,9.328,0,10.284,10.284,0,0,0,3.494-2.616,11.711,11.711,0,0,0,2.193-3.868,14.331,14.331,0,0,0,.764-4.713,14.227,14.227,0,0,0-.764-4.679,11.7,11.7,0,0,0-2.193-3.868,10.444,10.444,0,0,0-3.494-2.632,11.643,11.643,0,0,0-9.328,0m20.235,22.782H162.7V10.14h5.98a6.248,6.248,0,0,1,2.291.357,3.033,3.033,0,0,1,1.414,1.122,4.8,4.8,0,0,1,.715,1.917,16.743,16.743,0,0,1,.2,2.747q0,.844.081,1.755a3.781,3.781,0,0,0,.537,1.657h4.355a4.889,4.889,0,0,1-.959-2.389A20.562,20.562,0,0,1,177,13.585a6.549,6.549,0,0,0-.341-2.275,4.551,4.551,0,0,0-.861-1.479A3.308,3.308,0,0,0,174.672,9a4.157,4.157,0,0,0-1.121-.326V8.613q.293-.1.926-.391a4.445,4.445,0,0,0,1.284-.958A6,6,0,0,0,176.9,5.509a6.743,6.743,0,0,0,.487-2.747,5.778,5.778,0,0,0-1.917-4.615q-1.918-1.656-5.753-1.657H158.634ZM162.7-.195h6.6a8.685,8.685,0,0,1,1.511.13,3.292,3.292,0,0,1,1.3.52A2.631,2.631,0,0,1,173,1.544a4.31,4.31,0,0,1,.325,1.8,3.593,3.593,0,0,1-1.008,2.778,4.224,4.224,0,0,1-2.957.926H162.7Zm19.724,19.89h16.933v-3.51h-12.87V9.393h11.7V6.077h-11.7V0h12.642V-3.51H182.42Zm27.04,0h4.517l7.93-23.2H217.78l-5.948,18.362h-.065L205.95-3.51h-4.225Zm15.613,0h16.932v-3.51h-12.87V9.393h11.7V6.077h-11.7V0h12.643V-3.51H225.073Zm21.228,0h4.063V10.14h5.98a6.248,6.248,0,0,1,2.291.357,3.034,3.034,0,0,1,1.414,1.122,4.8,4.8,0,0,1,.715,1.917,16.743,16.743,0,0,1,.2,2.747q0,.844.081,1.755a3.793,3.793,0,0,0,.536,1.657h4.355a4.889,4.889,0,0,1-.958-2.389,20.472,20.472,0,0,1-.309-3.721,6.55,6.55,0,0,0-.341-2.275,4.534,4.534,0,0,0-.862-1.479A3.3,3.3,0,0,0,262.34,9a4.157,4.157,0,0,0-1.121-.326V8.613q.293-.1.926-.391a4.445,4.445,0,0,0,1.284-.958,6,6,0,0,0,1.137-1.755,6.742,6.742,0,0,0,.488-2.747,5.779,5.779,0,0,0-1.918-4.615q-1.917-1.656-5.752-1.657H246.3Zm4.063-19.89h6.6a8.7,8.7,0,0,1,1.512.13,3.3,3.3,0,0,1,1.3.52,2.637,2.637,0,0,1,.893,1.089,4.294,4.294,0,0,1,.325,1.8,3.593,3.593,0,0,1-1.007,2.778,4.227,4.227,0,0,1-2.958.926h-6.662Z" transform="translate(826.735 495.321)"></path>
    <path d="M0,0H4.062V-10.465H14.625V0h4.062V-23.2H14.625v9.23H4.062V-23.2H0ZM37.413-19.695a6.285,6.285,0,0,1,2.194,2,9.053,9.053,0,0,1,1.252,2.843,13.137,13.137,0,0,1,.406,3.25,13.126,13.126,0,0,1-.406,3.25,9.048,9.048,0,0,1-1.252,2.844,6.266,6.266,0,0,1-2.194,2,6.5,6.5,0,0,1-3.2.747,6.5,6.5,0,0,1-3.2-.747,6.266,6.266,0,0,1-2.194-2,9.024,9.024,0,0,1-1.251-2.844,13.078,13.078,0,0,1-.406-3.25,13.09,13.09,0,0,1,.406-3.25A9.029,9.029,0,0,1,28.817-17.7a6.285,6.285,0,0,1,2.194-2,6.507,6.507,0,0,1,3.2-.748,6.507,6.507,0,0,1,3.2.748m-7.864-3.088a10.43,10.43,0,0,0-3.494,2.633,11.691,11.691,0,0,0-2.194,3.867A14.237,14.237,0,0,0,23.1-11.6a14.331,14.331,0,0,0,.764,4.713,11.681,11.681,0,0,0,2.194,3.867A10.245,10.245,0,0,0,29.549-.406a10.94,10.94,0,0,0,4.663.958,10.948,10.948,0,0,0,4.664-.958A10.264,10.264,0,0,0,42.37-3.023,11.716,11.716,0,0,0,44.564-6.89a14.357,14.357,0,0,0,.763-4.713,14.263,14.263,0,0,0-.763-4.68A11.726,11.726,0,0,0,42.37-20.15a10.45,10.45,0,0,0-3.494-2.633,10.79,10.79,0,0,0-4.664-.975,10.783,10.783,0,0,0-4.663.975M53.1,0h4.193l4.745-17.745H62.1L66.751,0h4.128l6.4-23.2H73.154L68.831-5.46h-.065L64.216-23.2h-4.16L55.376-5.46h-.065L51.119-23.2H46.991Zm37.83,0h9.62a10.822,10.822,0,0,0,4.615-.91A8.572,8.572,0,0,0,108.351-3.4a10.628,10.628,0,0,0,1.836-3.689,16.465,16.465,0,0,0,.6-4.518,16.469,16.469,0,0,0-.6-4.517,10.637,10.637,0,0,0-1.836-3.689,8.592,8.592,0,0,0-3.185-2.486,10.838,10.838,0,0,0-4.615-.91h-9.62Zm4.062-19.89h4a10.124,10.124,0,0,1,3.883.634,5.678,5.678,0,0,1,2.373,1.755,6.338,6.338,0,0,1,1.17,2.632,16.379,16.379,0,0,1,.309,3.266,16.389,16.389,0,0,1-.309,3.267,6.338,6.338,0,0,1-1.17,2.632,5.678,5.678,0,0,1-2.373,1.755,10.124,10.124,0,0,1-3.883.634h-4Zm33.393.195a6.294,6.294,0,0,1,2.194,2,9.028,9.028,0,0,1,1.251,2.843,13.091,13.091,0,0,1,.407,3.25,13.079,13.079,0,0,1-.407,3.25,9.024,9.024,0,0,1-1.251,2.844,6.275,6.275,0,0,1-2.194,2,6.5,6.5,0,0,1-3.2.747,6.5,6.5,0,0,1-3.2-.747,6.257,6.257,0,0,1-2.194-2,8.979,8.979,0,0,1-1.251-2.844,13.078,13.078,0,0,1-.406-3.25,13.09,13.09,0,0,1,.406-3.25A8.983,8.983,0,0,1,119.79-17.7a6.276,6.276,0,0,1,2.194-2,6.507,6.507,0,0,1,3.2-.748,6.507,6.507,0,0,1,3.2.748m-7.865-3.088a10.436,10.436,0,0,0-3.493,2.633,11.691,11.691,0,0,0-2.194,3.867,14.211,14.211,0,0,0-.764,4.68,14.3,14.3,0,0,0,.764,4.713,11.681,11.681,0,0,0,2.194,3.867,10.251,10.251,0,0,0,3.493,2.617,10.945,10.945,0,0,0,4.664.958,10.948,10.948,0,0,0,4.664-.958,10.274,10.274,0,0,0,3.494-2.617,11.7,11.7,0,0,0,2.193-3.867A14.331,14.331,0,0,0,136.3-11.6a14.237,14.237,0,0,0-.764-4.68,11.706,11.706,0,0,0-2.193-3.867,10.46,10.46,0,0,0-3.494-2.633,10.79,10.79,0,0,0-4.664-.975,10.787,10.787,0,0,0-4.664.975M154.825,0h4.192l4.745-17.745h.065L168.475,0H172.6l6.4-23.2h-4.128L170.555-5.46h-.065L165.94-23.2h-4.16L157.1-5.46h-.065L152.842-23.2h-4.127Zm27.5,0h16.932V-3.51h-12.87V-10.3h11.7v-3.315h-11.7v-6.077h12.643V-23.2H182.326Z" transform="translate(860.982 477.516)"></path>
  </g>
</svg>
