<?xml version="1.0" encoding="UTF-8"?>
<svg xmlns="http://www.w3.org/2000/svg" id="Layer_1" data-name="Layer 1" viewBox="0 0 1142.73 198.62">
  <path d="m0,1.1h8.12v18.46h21.12V1.1h8.12v46.41h-8.12v-20.93H8.12v20.93H0V1.1ZM65.85,0c3.47,0,6.58.65,9.33,1.95,2.75,1.3,5.08,3.06,6.99,5.27,1.91,2.21,3.37,4.79,4.39,7.73,1.02,2.95,1.53,6.07,1.53,9.36s-.51,6.48-1.53,9.43c-1.02,2.95-2.48,5.52-4.39,7.73-1.91,2.21-4.24,3.95-6.99,5.23-2.75,1.28-5.86,1.92-9.33,1.92s-6.58-.64-9.33-1.92c-2.75-1.28-5.08-3.02-6.99-5.23-1.91-2.21-3.37-4.79-4.39-7.73-1.02-2.95-1.53-6.09-1.53-9.43s.51-6.41,1.53-9.36c1.02-2.95,2.48-5.52,4.39-7.73,1.91-2.21,4.24-3.97,6.99-5.27,2.75-1.3,5.86-1.95,9.33-1.95Zm0,6.63c-2.47,0-4.6.5-6.4,1.49-1.8,1-3.26,2.33-4.39,4-1.13,1.67-1.96,3.56-2.5,5.69-.54,2.12-.81,4.29-.81,6.5s.27,4.38.81,6.5c.54,2.12,1.38,4.02,2.5,5.69,1.13,1.67,2.59,3,4.39,4,1.8,1,3.93,1.5,6.4,1.5s4.6-.5,6.4-1.5c1.8-1,3.26-2.33,4.39-4,1.13-1.67,1.96-3.56,2.5-5.69.54-2.12.81-4.29.81-6.5s-.27-4.38-.81-6.5c-.54-2.12-1.38-4.02-2.5-5.69-1.13-1.67-2.59-3-4.39-4-1.8-1-3.93-1.49-6.4-1.49Zm22.93-5.53h8.25l8.38,35.49h.13L114.91,1.1h8.32l9.1,35.49h.13L141.1,1.1h8.26l-12.81,46.41h-8.25l-9.29-35.49h-.13l-9.49,35.49h-8.39L88.78,1.1Zm83.98,0h19.24c3.55,0,6.63.61,9.23,1.82,2.6,1.21,4.72,2.87,6.37,4.97,1.65,2.1,2.87,4.56,3.67,7.38.8,2.82,1.2,5.83,1.2,9.04s-.4,6.22-1.2,9.04c-.8,2.82-2.03,5.28-3.67,7.38-1.65,2.1-3.77,3.76-6.37,4.97-2.6,1.21-5.68,1.82-9.23,1.82h-19.24V1.1Zm8.12,39.78h8c3.16,0,5.75-.42,7.77-1.27,2.01-.85,3.6-2.02,4.74-3.51,1.15-1.49,1.93-3.25,2.34-5.26.41-2.02.62-4.19.62-6.53s-.21-4.52-.62-6.53c-.41-2.02-1.19-3.77-2.34-5.27-1.15-1.5-2.73-2.67-4.74-3.51-2.02-.84-4.6-1.27-7.77-1.27h-8v33.15ZM238.52,0c3.47,0,6.58.65,9.33,1.95,2.75,1.3,5.08,3.06,6.99,5.27,1.91,2.21,3.37,4.79,4.39,7.73,1.02,2.95,1.53,6.07,1.53,9.36s-.51,6.48-1.53,9.43c-1.02,2.95-2.48,5.52-4.39,7.73-1.91,2.21-4.24,3.95-6.99,5.23-2.75,1.28-5.86,1.92-9.33,1.92s-6.58-.64-9.33-1.92c-2.75-1.28-5.08-3.02-6.99-5.23-1.91-2.21-3.37-4.79-4.39-7.73-1.02-2.95-1.53-6.09-1.53-9.43s.51-6.41,1.53-9.36c1.02-2.95,2.48-5.52,4.39-7.73,1.91-2.21,4.24-3.97,6.99-5.27,2.75-1.3,5.86-1.95,9.33-1.95Zm0,6.63c-2.47,0-4.6.5-6.4,1.49-1.8,1-3.26,2.33-4.39,4-1.13,1.67-1.96,3.56-2.5,5.69-.54,2.12-.81,4.29-.81,6.5s.27,4.38.81,6.5c.54,2.12,1.38,4.02,2.5,5.69,1.13,1.67,2.59,3,4.39,4,1.8,1,3.93,1.5,6.4,1.5s4.6-.5,6.4-1.5c1.8-1,3.26-2.33,4.39-4,1.13-1.67,1.96-3.56,2.5-5.69.54-2.12.81-4.29.81-6.5s-.27-4.38-.81-6.5c-.54-2.12-1.38-4.02-2.5-5.69-1.13-1.67-2.59-3-4.39-4-1.8-1-3.93-1.49-6.4-1.49Zm43.16-5.53h8.25l8.38,35.49h.13l9.36-35.49h8.32l9.1,35.49h.13l8.65-35.49h8.26l-12.81,46.41h-8.25l-9.29-35.49h-.13l-9.49,35.49h-8.39l-12.22-46.41Zm64.63,0h33.41v7.02h-25.29v12.16h23.4v6.63h-23.4v13.58h25.74v7.02h-33.87V1.1Zm71.43,0h8.65l17.88,46.41h-8.71l-4.35-12.29h-18.52l-4.35,12.29h-8.39L417.75,1.1Zm-2.86,27.95h14.17l-6.96-19.96h-.19l-7.02,19.96Zm62.32-13.19c-.35-1.34-.82-2.58-1.43-3.71-.61-1.13-1.39-2.1-2.34-2.93-.95-.82-2.07-1.46-3.35-1.92-1.28-.46-2.76-.68-4.45-.68-2.47,0-4.6.5-6.4,1.49-1.8,1-3.26,2.33-4.39,4-1.13,1.67-1.96,3.56-2.5,5.69-.54,2.12-.81,4.29-.81,6.5s.27,4.38.81,6.5c.54,2.12,1.38,4.02,2.5,5.69,1.13,1.67,2.59,3,4.39,4,1.8,1,3.93,1.5,6.4,1.5,1.82,0,3.42-.31,4.81-.94,1.39-.63,2.58-1.5,3.58-2.6,1-1.1,1.78-2.39,2.34-3.87.56-1.47.93-3.06,1.1-4.75h7.93c-.17,2.77-.77,5.31-1.79,7.6-1.02,2.3-2.39,4.28-4.13,5.95-1.73,1.67-3.77,2.96-6.11,3.87-2.34.91-4.92,1.36-7.73,1.36-3.47,0-6.58-.64-9.33-1.92-2.75-1.28-5.08-3.02-6.99-5.23-1.91-2.21-3.37-4.79-4.39-7.73-1.02-2.95-1.53-6.09-1.53-9.43s.51-6.41,1.53-9.36c1.02-2.95,2.48-5.52,4.39-7.73,1.91-2.21,4.24-3.97,6.99-5.27,2.75-1.3,5.86-1.95,9.33-1.95,2.6,0,5.05.36,7.34,1.07,2.3.71,4.32,1.75,6.08,3.12,1.75,1.36,3.17,3.02,4.26,4.97,1.08,1.95,1.75,4.18,2.02,6.7h-8.12Zm45.72,0c-.35-1.34-.82-2.58-1.43-3.71-.61-1.13-1.39-2.1-2.34-2.93-.95-.82-2.07-1.46-3.35-1.92-1.28-.46-2.76-.68-4.45-.68-2.47,0-4.6.5-6.4,1.49-1.8,1-3.26,2.33-4.39,4-1.13,1.67-1.96,3.56-2.5,5.69-.54,2.12-.81,4.29-.81,6.5s.27,4.38.81,6.5c.54,2.12,1.38,4.02,2.5,5.69,1.13,1.67,2.59,3,4.39,4,1.8,1,3.93,1.5,6.4,1.5,1.82,0,3.42-.31,4.81-.94,1.39-.63,2.58-1.5,3.58-2.6,1-1.1,1.78-2.39,2.34-3.87.56-1.47.93-3.06,1.1-4.75h7.93c-.17,2.77-.77,5.31-1.79,7.6-1.02,2.3-2.39,4.28-4.13,5.95-1.73,1.67-3.77,2.96-6.11,3.87-2.34.91-4.92,1.36-7.73,1.36-3.47,0-6.58-.64-9.33-1.92-2.75-1.28-5.08-3.02-6.99-5.23-1.91-2.21-3.37-4.79-4.39-7.73-1.02-2.95-1.53-6.09-1.53-9.43s.51-6.41,1.53-9.36c1.02-2.95,2.48-5.52,4.39-7.73,1.91-2.21,4.24-3.97,6.99-5.27,2.75-1.3,5.86-1.95,9.33-1.95,2.6,0,5.05.36,7.34,1.07,2.3.71,4.32,1.75,6.08,3.12,1.75,1.36,3.17,3.02,4.26,4.97,1.08,1.95,1.75,4.18,2.02,6.7h-8.12Zm14.49-14.76h33.41v7.02h-25.29v12.16h23.4v6.63h-23.4v13.58h25.74v7.02h-33.87V1.1Zm39.88,0h8.12v39.39h23.59v7.02h-31.72V1.1Zm35.89,0h33.41v7.02h-25.28v12.16h23.4v6.63h-23.4v13.58h25.74v7.02h-33.86V1.1Zm39.88,0h22.17c5.11,0,8.95,1.1,11.5,3.31,2.56,2.21,3.83,5.29,3.83,9.23,0,2.21-.33,4.04-.98,5.49-.65,1.45-1.41,2.62-2.27,3.51-.87.89-1.72,1.53-2.57,1.92-.85.39-1.46.65-1.85.78v.13c.69.09,1.44.3,2.24.65.8.35,1.55.9,2.24,1.66.69.76,1.27,1.75,1.72,2.96.46,1.21.68,2.73.68,4.55,0,2.73.21,5.21.62,7.44.41,2.23,1.05,3.82,1.92,4.78h-8.71c-.61-1-.96-2.1-1.07-3.31-.11-1.21-.16-2.38-.16-3.51,0-2.12-.13-3.95-.39-5.49-.26-1.54-.74-2.82-1.43-3.83-.69-1.02-1.64-1.77-2.83-2.24-1.19-.48-2.72-.71-4.58-.71h-11.96v19.11h-8.12V1.1Zm8.12,21.12h13.32c2.6,0,4.57-.62,5.92-1.85,1.34-1.23,2.02-3.09,2.02-5.56,0-1.47-.22-2.68-.65-3.61-.43-.93-1.03-1.66-1.79-2.18-.76-.52-1.62-.87-2.6-1.04-.97-.17-1.98-.26-3.02-.26h-13.19v14.49Zm51.07-21.12h8.64l17.88,46.41h-8.71l-4.36-12.29h-18.52l-4.36,12.29h-8.38l17.81-46.41Zm-2.86,27.95h14.17l-6.96-19.96h-.2l-7.02,19.96Zm23.01-27.95h37.57v7.02h-14.75v39.39h-8.12V8.12h-14.69V1.1Zm41.65,0h33.41v7.02h-25.28v12.16h23.4v6.63h-23.4v13.58h25.74v7.02h-33.86V1.1Zm54.6,0h37.57v7.02h-14.75v39.39h-8.12V8.12h-14.69V1.1Zm60.38-1.1c3.47,0,6.58.65,9.33,1.95,2.75,1.3,5.08,3.06,6.99,5.27,1.91,2.21,3.37,4.79,4.39,7.73,1.02,2.95,1.53,6.07,1.53,9.36s-.51,6.48-1.53,9.43c-1.02,2.95-2.48,5.52-4.39,7.73-1.91,2.21-4.24,3.95-6.99,5.23s-5.86,1.92-9.33,1.92-6.58-.64-9.33-1.92-5.08-3.02-6.99-5.23c-1.91-2.21-3.37-4.79-4.39-7.73-1.02-2.95-1.53-6.09-1.53-9.43s.51-6.41,1.53-9.36c1.02-2.95,2.48-5.52,4.39-7.73,1.91-2.21,4.24-3.97,6.99-5.27,2.75-1.3,5.86-1.95,9.33-1.95Zm0,6.63c-2.47,0-4.61.5-6.4,1.49-1.8,1-3.26,2.33-4.39,4-1.13,1.67-1.96,3.56-2.5,5.69-.54,2.12-.81,4.29-.81,6.5s.27,4.38.81,6.5c.54,2.12,1.38,4.02,2.5,5.69,1.13,1.67,2.59,3,4.39,4,1.8,1,3.93,1.5,6.4,1.5s4.6-.5,6.4-1.5c1.8-1,3.26-2.33,4.39-4,1.13-1.67,1.96-3.56,2.5-5.69.54-2.12.81-4.29.81-6.5s-.27-4.38-.81-6.5c-.54-2.12-1.38-4.02-2.5-5.69-1.13-1.67-2.59-3-4.39-4-1.8-1-3.93-1.49-6.4-1.49Zm22.92-5.53h8.25l8.39,35.49h.13l9.36-35.49h8.32l9.1,35.49h.13l8.64-35.49h8.25l-12.8,46.41h-8.25l-9.29-35.49h-.13l-9.49,35.49h-8.38l-12.22-46.41Zm74.74,0h8.64l17.88,46.41h-8.71l-4.36-12.29h-18.52l-4.36,12.29h-8.38l17.81-46.41Zm-2.86,27.95h14.17l-6.96-19.96h-.2l-7.02,19.96Zm33.02-27.95h22.17c5.11,0,8.95,1.1,11.5,3.31,2.56,2.21,3.83,5.29,3.83,9.23,0,2.21-.33,4.04-.98,5.49-.65,1.45-1.41,2.62-2.27,3.51-.87.89-1.72,1.53-2.57,1.92-.85.39-1.46.65-1.85.78v.13c.69.09,1.44.3,2.24.65.8.35,1.55.9,2.24,1.66.69.76,1.27,1.75,1.72,2.96.46,1.21.68,2.73.68,4.55,0,2.73.21,5.21.62,7.44.41,2.23,1.05,3.82,1.92,4.78h-8.71c-.61-1-.96-2.1-1.07-3.31-.11-1.21-.16-2.38-.16-3.51,0-2.12-.13-3.95-.39-5.49-.26-1.54-.74-2.82-1.43-3.83-.69-1.02-1.64-1.77-2.83-2.24-1.19-.48-2.72-.71-4.58-.71h-11.96v19.11h-8.12V1.1Zm8.12,21.12h13.32c2.6,0,4.57-.62,5.92-1.85,1.34-1.23,2.02-3.09,2.02-5.56,0-1.47-.22-2.68-.65-3.61-.43-.93-1.03-1.66-1.79-2.18-.76-.52-1.62-.87-2.6-1.04-.97-.17-1.98-.26-3.02-.26h-13.19v14.49Zm36.89-21.12h19.24c3.55,0,6.63.61,9.23,1.82,2.6,1.21,4.72,2.87,6.37,4.97,1.65,2.1,2.87,4.56,3.67,7.38.8,2.82,1.2,5.83,1.2,9.04s-.4,6.22-1.2,9.04c-.8,2.82-2.03,5.28-3.67,7.38-1.65,2.1-3.77,3.76-6.37,4.97-2.6,1.21-5.68,1.82-9.23,1.82h-19.24V1.1Zm8.12,39.78h7.99c3.16,0,5.75-.42,7.77-1.27,2.02-.85,3.6-2.02,4.75-3.51,1.15-1.49,1.93-3.25,2.34-5.26.41-2.02.62-4.19.62-6.53s-.21-4.52-.62-6.53c-.41-2.02-1.19-3.77-2.34-5.27-1.15-1.5-2.73-2.67-4.75-3.51-2.01-.84-4.6-1.27-7.77-1.27h-7.99v33.15Zm43-8.84c0,1.78.3,3.29.91,4.55.61,1.26,1.45,2.29,2.54,3.09,1.08.8,2.33,1.39,3.74,1.75,1.41.37,2.94.55,4.58.55,1.78,0,3.29-.21,4.55-.62,1.26-.41,2.28-.94,3.05-1.59.78-.65,1.34-1.4,1.69-2.24.35-.84.52-1.7.52-2.57,0-1.78-.4-3.09-1.2-3.93-.8-.84-1.68-1.44-2.63-1.79-1.65-.61-3.56-1.18-5.75-1.72-2.19-.54-4.89-1.25-8.09-2.11-1.99-.52-3.65-1.2-4.97-2.05-1.32-.85-2.37-1.79-3.15-2.83s-1.33-2.15-1.66-3.31-.49-2.36-.49-3.58c0-2.34.49-4.36,1.46-6.08.98-1.71,2.26-3.13,3.87-4.26,1.6-1.13,3.42-1.96,5.46-2.5,2.04-.54,4.09-.81,6.17-.81,2.43,0,4.71.31,6.86.94,2.14.63,4.03,1.57,5.66,2.83,1.62,1.26,2.91,2.81,3.87,4.65.95,1.84,1.43,3.98,1.43,6.4h-8.12c-.22-2.99-1.23-5.1-3.05-6.34-1.82-1.23-4.14-1.85-6.96-1.85-.95,0-1.93.1-2.92.29-1,.19-1.91.52-2.73.97-.82.46-1.51,1.07-2.05,1.85-.54.78-.81,1.76-.81,2.93,0,1.65.51,2.94,1.53,3.87,1.02.93,2.35,1.64,4,2.11.17.04.86.23,2.05.55,1.19.33,2.52.68,4,1.07,1.47.39,2.91.77,4.32,1.14,1.41.37,2.42.64,3.02.81,1.52.48,2.84,1.13,3.96,1.95,1.13.82,2.07,1.77,2.83,2.83.76,1.06,1.32,2.2,1.69,3.41.37,1.21.55,2.43.55,3.64,0,2.6-.53,4.82-1.59,6.66-1.06,1.84-2.46,3.35-4.19,4.52-1.73,1.17-3.71,2.03-5.92,2.57s-4.46.81-6.76.81c-2.64,0-5.13-.33-7.47-.98s-4.38-1.65-6.11-2.99c-1.73-1.34-3.12-3.07-4.16-5.17-1.04-2.1-1.58-4.58-1.62-7.44h8.12Z"></path>
  <path d="m241.88,76.1h8.65l17.88,46.41h-8.71l-4.35-12.29h-18.52l-4.35,12.29h-8.39l17.81-46.41Zm-2.86,27.95h14.17l-6.96-19.96h-.19l-7.02,19.96Zm51.54-27.95h8.58l21.19,34.19h.13v-34.19h7.73v46.41h-8.58l-21.12-34.12h-.19v34.12h-7.73v-46.41Zm46.26,0h33.41v7.02h-25.29v12.15h23.4v6.63h-23.4v13.59h25.74v7.02h-33.87v-46.41Zm36.43,0h8.25l8.38,35.49h.13l9.36-35.49h8.32l9.1,35.49h.13l8.65-35.49h8.26l-12.81,46.41h-8.25l-9.29-35.49h-.13l-9.49,35.49h-8.39l-12.22-46.41Zm83.98,0h32.04v7.02h-23.92v12.15h21v6.63h-21v20.61h-8.12v-46.41Zm36.39,0h8.12v27.04c0,1.56.08,3.14.23,4.75.15,1.6.58,3.04,1.3,4.32.72,1.28,1.8,2.33,3.25,3.15,1.45.82,3.5,1.24,6.14,1.24s4.69-.41,6.14-1.24c1.45-.82,2.54-1.87,3.25-3.15.71-1.28,1.15-2.72,1.3-4.32.15-1.6.23-3.18.23-4.75v-27.04h8.12v29.71c0,2.99-.45,5.59-1.36,7.8s-2.2,4.06-3.87,5.56c-1.67,1.5-3.67,2.61-6.01,3.35-2.34.74-4.94,1.11-7.8,1.11s-5.46-.37-7.8-1.11-4.34-1.85-6.01-3.35c-1.67-1.5-2.96-3.35-3.87-5.56-.91-2.21-1.37-4.81-1.37-7.8v-29.71Zm42,0h37.57v7.02h-14.75v39.39h-8.12v-39.39h-14.69v-7.02Zm41.42,0h8.12v27.04c0,1.56.08,3.14.23,4.75.15,1.6.58,3.04,1.3,4.32.71,1.28,1.8,2.33,3.25,3.15,1.45.82,3.5,1.24,6.14,1.24s4.69-.41,6.14-1.24c1.45-.82,2.54-1.87,3.25-3.15.71-1.28,1.15-2.72,1.3-4.32.15-1.6.23-3.18.23-4.75v-27.04h8.12v29.71c0,2.99-.46,5.59-1.37,7.8-.91,2.21-2.2,4.06-3.87,5.56s-3.67,2.61-6.01,3.35-4.94,1.11-7.8,1.11-5.46-.37-7.8-1.11-4.34-1.85-6.01-3.35c-1.67-1.5-2.96-3.35-3.87-5.56-.91-2.21-1.37-4.81-1.37-7.8v-29.71Zm46.47,0h22.17c5.11,0,8.95,1.11,11.5,3.32,2.56,2.21,3.83,5.29,3.83,9.23,0,2.21-.33,4.04-.98,5.49-.65,1.45-1.41,2.62-2.27,3.51-.87.89-1.72,1.53-2.57,1.92-.85.39-1.46.65-1.85.78v.13c.69.09,1.44.3,2.24.65.8.35,1.55.9,2.24,1.66.69.76,1.27,1.75,1.72,2.96s.68,2.73.68,4.55c0,2.73.21,5.21.62,7.44.41,2.23,1.05,3.82,1.92,4.78h-8.71c-.61-1-.96-2.1-1.07-3.32-.11-1.21-.16-2.38-.16-3.51,0-2.12-.13-3.95-.39-5.49s-.74-2.82-1.43-3.83c-.69-1.02-1.64-1.77-2.83-2.24-1.19-.48-2.72-.72-4.58-.72h-11.96v19.11h-8.12v-46.41Zm8.12,21.12h13.32c2.6,0,4.57-.62,5.92-1.85,1.34-1.23,2.02-3.09,2.02-5.56,0-1.47-.22-2.67-.65-3.61-.43-.93-1.03-1.66-1.79-2.18-.76-.52-1.62-.87-2.6-1.04-.97-.17-1.98-.26-3.02-.26h-13.19v14.5Zm36.89-21.12h33.41v7.02h-25.28v12.15h23.4v6.63h-23.4v13.59h25.74v7.02h-33.86v-46.41Zm54.47,0h8.25l8.39,35.49h.13l9.36-35.49h8.32l9.1,35.49h.13l8.64-35.49h8.25l-12.8,46.41h-8.25l-9.29-35.49h-.13l-9.49,35.49h-8.38l-12.22-46.41Zm64.54,0h8.12v18.46h21.12v-18.46h8.12v46.41h-8.12v-20.93h-21.12v20.93h-8.12v-46.41Zm46.03,0h33.41v7.02h-25.28v12.15h23.4v6.63h-23.4v13.59h25.74v7.02h-33.86v-46.41Zm39.73,0h8.58l21.19,34.19h.13v-34.19h7.74v46.41h-8.58l-21.12-34.12h-.2v34.12h-7.73v-46.41Z"></path>
  <path d="m125.3,151.11h8.25l8.38,35.49h.13l9.36-35.49h8.32l9.1,35.49h.13l8.65-35.49h8.26l-12.81,46.41h-8.25l-9.29-35.49h-.13l-9.49,35.49h-8.39l-12.22-46.41Zm64.63,0h33.41v7.02h-25.29v12.15h23.4v6.63h-23.4v13.59h25.74v7.02h-33.87v-46.41Zm39.45,14.56c1.56-.22,2.61-.88,3.15-1.98.54-1.11.81-2.37.81-3.8h-3.97v-8.78h8.12v8.78c0,2.51-.73,4.65-2.18,6.4-1.45,1.75-3.44,2.81-5.95,3.15v-3.77Zm16.66-14.56h22.17c5.11,0,8.95,1.11,11.5,3.32,2.56,2.21,3.83,5.29,3.83,9.23,0,2.21-.32,4.04-.97,5.49-.65,1.45-1.41,2.62-2.28,3.51-.87.89-1.72,1.53-2.57,1.92-.84.39-1.46.65-1.85.78v.13c.69.09,1.44.3,2.24.65.8.35,1.55.9,2.24,1.66.69.76,1.27,1.75,1.72,2.96s.68,2.73.68,4.55c0,2.73.21,5.21.62,7.44.41,2.23,1.05,3.82,1.92,4.78h-8.71c-.61-1-.96-2.1-1.07-3.32-.11-1.21-.16-2.38-.16-3.51,0-2.12-.13-3.95-.39-5.49-.26-1.54-.74-2.82-1.43-3.83-.69-1.02-1.64-1.77-2.83-2.24-1.19-.48-2.72-.72-4.58-.72h-11.96v19.11h-8.12v-46.41Zm8.12,21.12h13.33c2.6,0,4.57-.62,5.92-1.85,1.34-1.23,2.01-3.09,2.01-5.56,0-1.47-.22-2.67-.65-3.61-.43-.93-1.03-1.66-1.79-2.18-.76-.52-1.62-.87-2.6-1.04-.98-.17-1.98-.26-3.02-.26h-13.19v14.5Zm36.89-21.12h33.41v7.02h-25.29v12.15h23.4v6.63h-23.4v13.59h25.74v7.02h-33.87v-46.41Zm64.35,30.94c0,1.78.3,3.29.91,4.55.61,1.26,1.45,2.29,2.53,3.09,1.08.8,2.33,1.39,3.74,1.75,1.41.37,2.94.55,4.58.55,1.78,0,3.29-.21,4.55-.62,1.26-.41,2.27-.94,3.06-1.59.78-.65,1.34-1.4,1.69-2.24.35-.84.52-1.7.52-2.57,0-1.78-.4-3.09-1.2-3.93-.8-.84-1.68-1.44-2.63-1.79-1.65-.61-3.56-1.18-5.75-1.72-2.19-.54-4.89-1.25-8.09-2.11-1.99-.52-3.65-1.2-4.97-2.05-1.32-.84-2.37-1.79-3.15-2.83-.78-1.04-1.33-2.15-1.66-3.32-.33-1.17-.49-2.36-.49-3.58,0-2.34.49-4.37,1.46-6.08.98-1.71,2.26-3.13,3.87-4.26,1.6-1.13,3.42-1.96,5.46-2.5,2.04-.54,4.1-.81,6.18-.81,2.43,0,4.71.31,6.86.94,2.15.63,4.03,1.57,5.65,2.83,1.62,1.26,2.91,2.81,3.87,4.65.95,1.84,1.43,3.98,1.43,6.4h-8.12c-.22-2.99-1.23-5.1-3.05-6.34-1.82-1.24-4.14-1.85-6.96-1.85-.95,0-1.93.1-2.92.29-1,.2-1.91.52-2.73.98-.82.46-1.51,1.07-2.05,1.85-.54.78-.81,1.75-.81,2.92,0,1.65.51,2.94,1.53,3.87,1.02.93,2.35,1.64,4,2.11.17.04.86.23,2.05.55,1.19.33,2.52.68,4,1.07,1.47.39,2.91.77,4.32,1.14,1.41.37,2.42.64,3.02.81,1.52.48,2.84,1.13,3.96,1.95,1.13.82,2.07,1.77,2.83,2.83.76,1.06,1.32,2.2,1.69,3.41.37,1.21.55,2.43.55,3.64,0,2.6-.53,4.82-1.59,6.66-1.06,1.84-2.46,3.35-4.19,4.52-1.73,1.17-3.71,2.03-5.92,2.57-2.21.54-4.46.81-6.76.81-2.64,0-5.14-.33-7.48-.98-2.34-.65-4.38-1.65-6.11-2.99-1.73-1.34-3.12-3.06-4.16-5.17-1.04-2.1-1.58-4.58-1.62-7.44h8.12Zm35.9-30.94h8.12v18.46h21.12v-18.46h8.12v46.41h-8.12v-20.93h-21.12v20.93h-8.12v-46.41Zm58.79,0h8.65l17.88,46.41h-8.71l-4.35-12.29h-18.52l-4.35,12.29h-8.39l17.81-46.41Zm-2.86,27.95h14.17l-6.96-19.96h-.19l-7.02,19.96Zm62.32-13.2c-.35-1.34-.82-2.58-1.43-3.71-.61-1.13-1.39-2.1-2.34-2.92-.95-.82-2.07-1.46-3.35-1.92-1.28-.46-2.76-.68-4.45-.68-2.47,0-4.6.5-6.4,1.5-1.8,1-3.26,2.33-4.39,4-1.13,1.67-1.96,3.56-2.5,5.69-.54,2.12-.81,4.29-.81,6.5s.27,4.38.81,6.5c.54,2.12,1.38,4.02,2.5,5.69,1.13,1.67,2.59,3,4.39,4,1.8,1,3.93,1.49,6.4,1.49,1.82,0,3.42-.31,4.81-.94,1.39-.63,2.58-1.5,3.58-2.6,1-1.11,1.78-2.39,2.34-3.87.56-1.47.93-3.06,1.1-4.75h7.93c-.17,2.77-.77,5.31-1.79,7.6-1.02,2.3-2.39,4.28-4.13,5.95-1.73,1.67-3.77,2.96-6.11,3.87s-4.92,1.37-7.73,1.37c-3.47,0-6.58-.64-9.33-1.92-2.75-1.28-5.08-3.02-6.99-5.23-1.91-2.21-3.37-4.79-4.39-7.74-1.02-2.95-1.53-6.09-1.53-9.42s.51-6.41,1.53-9.36c1.02-2.95,2.48-5.52,4.39-7.73,1.91-2.21,4.24-3.96,6.99-5.27,2.75-1.3,5.86-1.95,9.33-1.95,2.6,0,5.05.36,7.34,1.07,2.3.71,4.32,1.75,6.08,3.12s3.17,3.02,4.26,4.97c1.08,1.95,1.75,4.18,2.02,6.69h-8.12Zm14.49-14.75h8.12v21.12l20.67-21.12h10.01l-18.52,18.53,19.82,27.88h-10.14l-15.21-22.17-6.63,6.57v15.6h-8.12v-46.41Zm43.74,0h8.12v39.39h23.6v7.02h-31.72v-46.41Zm35.89,0h33.41v7.02h-25.28v12.15h23.4v6.63h-23.4v13.59h25.74v7.02h-33.86v-46.41Zm39.88,0h19.24c3.55,0,6.63.61,9.23,1.82,2.6,1.21,4.72,2.87,6.37,4.97,1.65,2.1,2.87,4.56,3.67,7.38.8,2.82,1.2,5.83,1.2,9.04s-.4,6.22-1.2,9.04c-.8,2.82-2.03,5.28-3.67,7.38-1.65,2.1-3.77,3.76-6.37,4.97-2.6,1.21-5.68,1.82-9.23,1.82h-19.24v-46.41Zm8.12,39.78h7.99c3.16,0,5.75-.42,7.77-1.27,2.02-.84,3.6-2.01,4.75-3.51,1.15-1.5,1.93-3.25,2.34-5.27.41-2.01.62-4.19.62-6.53s-.21-4.52-.62-6.53c-.41-2.02-1.19-3.77-2.34-5.27-1.15-1.49-2.73-2.67-4.75-3.51-2.01-.84-4.6-1.27-7.77-1.27h-7.99v33.15Zm52.45-39.78h37.57v7.02h-14.75v39.39h-8.12v-39.39h-14.69v-7.02Zm60.38-1.1c3.47,0,6.58.65,9.33,1.95,2.75,1.3,5.08,3.06,6.99,5.27,1.91,2.21,3.37,4.79,4.39,7.73,1.02,2.95,1.53,6.07,1.53,9.36s-.51,6.48-1.53,9.42c-1.02,2.95-2.48,5.53-4.39,7.74-1.91,2.21-4.24,3.96-6.99,5.23s-5.86,1.92-9.33,1.92-6.58-.64-9.33-1.92-5.08-3.02-6.99-5.23c-1.91-2.21-3.37-4.79-4.39-7.74-1.02-2.95-1.53-6.09-1.53-9.42s.51-6.41,1.53-9.36c1.02-2.95,2.48-5.52,4.39-7.73,1.91-2.21,4.24-3.96,6.99-5.27,2.75-1.3,5.86-1.95,9.33-1.95Zm0,6.63c-2.47,0-4.61.5-6.4,1.5-1.8,1-3.26,2.33-4.39,4-1.13,1.67-1.96,3.56-2.5,5.69-.54,2.12-.81,4.29-.81,6.5s.27,4.38.81,6.5c.54,2.12,1.38,4.02,2.5,5.69,1.13,1.67,2.59,3,4.39,4,1.8,1,3.93,1.49,6.4,1.49s4.6-.5,6.4-1.49c1.8-1,3.26-2.33,4.39-4,1.13-1.67,1.96-3.56,2.5-5.69.54-2.12.81-4.29.81-6.5s-.27-4.38-.81-6.5c-.54-2.12-1.38-4.02-2.5-5.69-1.13-1.67-2.59-3-4.39-4-1.8-1-3.93-1.5-6.4-1.5Zm43.29-5.53h37.57v7.02h-14.75v39.39h-8.12v-39.39h-14.69v-7.02Zm60.38-1.1c3.47,0,6.58.65,9.33,1.95,2.75,1.3,5.08,3.06,6.99,5.27,1.91,2.21,3.37,4.79,4.39,7.73,1.02,2.95,1.53,6.07,1.53,9.36s-.51,6.48-1.53,9.42c-1.02,2.95-2.48,5.53-4.39,7.74-1.91,2.21-4.24,3.96-6.99,5.23s-5.86,1.92-9.33,1.92-6.58-.64-9.33-1.92-5.08-3.02-6.99-5.23c-1.91-2.21-3.37-4.79-4.39-7.74-1.02-2.95-1.53-6.09-1.53-9.42s.51-6.41,1.53-9.36c1.02-2.95,2.48-5.52,4.39-7.73,1.91-2.21,4.24-3.96,6.99-5.27,2.75-1.3,5.86-1.95,9.33-1.95Zm0,6.63c-2.47,0-4.61.5-6.4,1.5-1.8,1-3.26,2.33-4.39,4-1.13,1.67-1.96,3.56-2.5,5.69-.54,2.12-.81,4.29-.81,6.5s.27,4.38.81,6.5c.54,2.12,1.38,4.02,2.5,5.69,1.13,1.67,2.59,3,4.39,4,1.8,1,3.93,1.49,6.4,1.49s4.6-.5,6.4-1.49c1.8-1,3.26-2.33,4.39-4,1.13-1.67,1.96-3.56,2.5-5.69.54-2.12.81-4.29.81-6.5s-.27-4.38-.81-6.5c-.54-2.12-1.38-4.02-2.5-5.69-1.13-1.67-2.59-3-4.39-4-1.8-1-3.93-1.5-6.4-1.5Zm28.57-5.53h19.24c3.55,0,6.63.61,9.23,1.82,2.6,1.21,4.72,2.87,6.37,4.97,1.65,2.1,2.87,4.56,3.67,7.38.8,2.82,1.2,5.83,1.2,9.04s-.4,6.22-1.2,9.04c-.8,2.82-2.03,5.28-3.67,7.38-1.65,2.1-3.77,3.76-6.37,4.97-2.6,1.21-5.68,1.82-9.23,1.82h-19.24v-46.41Zm8.12,39.78h7.99c3.16,0,5.75-.42,7.77-1.27,2.02-.84,3.6-2.01,4.75-3.51,1.15-1.5,1.93-3.25,2.34-5.27.41-2.01.62-4.19.62-6.53s-.21-4.52-.62-6.53c-.41-2.02-1.19-3.77-2.34-5.27-1.15-1.49-2.73-2.67-4.75-3.51-2.01-.84-4.6-1.27-7.77-1.27h-7.99v33.15Zm48.6-39.78h8.64l17.88,46.41h-8.71l-4.36-12.29h-18.52l-4.36,12.29h-8.38l17.81-46.41Zm-2.86,27.95h14.17l-6.96-19.96h-.2l-7.02,19.96Zm39.49.26l-17.42-28.21h9.42l12.29,20.8,12.09-20.8h9.1l-17.35,28.21v18.2h-8.12v-18.2Z"></path>
</svg>
