<?xml version="1.0" encoding="UTF-8"?>
<svg xmlns="http://www.w3.org/2000/svg" xmlns:xlink="http://www.w3.org/1999/xlink" version="1.1" id="Layer_1" x="0px" y="0px" viewBox="0 0 769.1 348.6" style="enable-background:new 0 0 769.1 348.6;" xml:space="preserve">
<path d="M196.7,1.1h8.1v18.5h21.1V1.1h8.1v46.4h-8.1V26.6h-21.1v20.9h-8.1V1.1z M262.5,0c3.5,0,6.6,0.6,9.3,2c2.8,1.3,5.1,3.1,7,5.3  c1.9,2.2,3.4,4.8,4.4,7.7c1,2.9,1.5,6.1,1.5,9.4c0,3.3-0.5,6.5-1.5,9.4c-1,2.9-2.5,5.5-4.4,7.7c-1.9,2.2-4.2,4-7,5.2  s-5.9,1.9-9.3,1.9c-3.5,0-6.6-0.6-9.3-1.9s-5.1-3-7-5.2c-1.9-2.2-3.4-4.8-4.4-7.7c-1-2.9-1.5-6.1-1.5-9.4c0-3.3,0.5-6.4,1.5-9.4  c1-2.9,2.5-5.5,4.4-7.7c1.9-2.2,4.2-4,7-5.3C256,0.6,259.1,0,262.5,0z M262.5,6.6c-2.5,0-4.6,0.5-6.4,1.5c-1.8,1-3.3,2.3-4.4,4  c-1.1,1.7-2,3.6-2.5,5.7c-0.5,2.1-0.8,4.3-0.8,6.5s0.3,4.4,0.8,6.5c0.5,2.1,1.4,4,2.5,5.7c1.1,1.7,2.6,3,4.4,4  c1.8,1,3.9,1.5,6.4,1.5c2.5,0,4.6-0.5,6.4-1.5c1.8-1,3.3-2.3,4.4-4c1.1-1.7,2-3.6,2.5-5.7c0.5-2.1,0.8-4.3,0.8-6.5s-0.3-4.4-0.8-6.5  c-0.5-2.1-1.4-4-2.5-5.7c-1.1-1.7-2.6-3-4.4-4C267.1,7.1,265,6.6,262.5,6.6z M285.5,1.1h8.3l8.4,35.5h0.1l9.4-35.5h8.3l9.1,35.5h0.1  l8.6-35.5h8.3l-12.8,46.4H325L315.7,12h-0.1l-9.5,35.5h-8.4L285.5,1.1z M369.4,1.1h19.2c3.6,0,6.6,0.6,9.2,1.8  c2.6,1.2,4.7,2.9,6.4,5c1.6,2.1,2.9,4.6,3.7,7.4c0.8,2.8,1.2,5.8,1.2,9c0,3.2-0.4,6.2-1.2,9c-0.8,2.8-2,5.3-3.7,7.4  c-1.6,2.1-3.8,3.8-6.4,5c-2.6,1.2-5.7,1.8-9.2,1.8h-19.2V1.1z M377.6,40.9h8c3.2,0,5.8-0.4,7.8-1.3c2-0.8,3.6-2,4.7-3.5  c1.1-1.5,1.9-3.2,2.3-5.3c0.4-2,0.6-4.2,0.6-6.5s-0.2-4.5-0.6-6.5c-0.4-2-1.2-3.8-2.3-5.3c-1.1-1.5-2.7-2.7-4.7-3.5  c-2-0.8-4.6-1.3-7.8-1.3h-8V40.9z M435.2,0c3.5,0,6.6,0.6,9.3,2c2.8,1.3,5.1,3.1,7,5.3c1.9,2.2,3.4,4.8,4.4,7.7  c1,2.9,1.5,6.1,1.5,9.4c0,3.3-0.5,6.5-1.5,9.4c-1,2.9-2.5,5.5-4.4,7.7c-1.9,2.2-4.2,4-7,5.2s-5.9,1.9-9.3,1.9  c-3.5,0-6.6-0.6-9.3-1.9s-5.1-3-7-5.2c-1.9-2.2-3.4-4.8-4.4-7.7c-1-2.9-1.5-6.1-1.5-9.4c0-3.3,0.5-6.4,1.5-9.4  c1-2.9,2.5-5.5,4.4-7.7c1.9-2.2,4.2-4,7-5.3C428.6,0.6,431.7,0,435.2,0z M435.2,6.6c-2.5,0-4.6,0.5-6.4,1.5c-1.8,1-3.3,2.3-4.4,4  c-1.1,1.7-2,3.6-2.5,5.7c-0.5,2.1-0.8,4.3-0.8,6.5s0.3,4.4,0.8,6.5c0.5,2.1,1.4,4,2.5,5.7c1.1,1.7,2.6,3,4.4,4  c1.8,1,3.9,1.5,6.4,1.5s4.6-0.5,6.4-1.5c1.8-1,3.3-2.3,4.4-4c1.1-1.7,2-3.6,2.5-5.7c0.5-2.1,0.8-4.3,0.8-6.5s-0.3-4.4-0.8-6.5  c-0.5-2.1-1.4-4-2.5-5.7c-1.1-1.7-2.6-3-4.4-4C439.8,7.1,437.7,6.6,435.2,6.6z M478.4,1.1h8.3l8.4,35.5h0.1l9.4-35.5h8.3l9.1,35.5  h0.1l8.6-35.5h8.3l-12.8,46.4h-8.3L508.6,12h-0.1L499,47.5h-8.4L478.4,1.1z M543,1.1h33.4v7h-25.3v12.2h23.4v6.6h-23.4v13.6h25.7v7  H543V1.1z"></path>
<path d="M30.6,76.1h8.6l17.9,46.4h-8.7L44,110.2H25.5l-4.4,12.3h-8.4L30.6,76.1z M27.7,104.1h14.2l-7-20h-0.2L27.7,104.1z   M90.1,90.9c-0.3-1.3-0.8-2.6-1.4-3.7c-0.6-1.1-1.4-2.1-2.3-2.9c-1-0.8-2.1-1.5-3.3-1.9s-2.8-0.7-4.5-0.7c-2.5,0-4.6,0.5-6.4,1.5  c-1.8,1-3.3,2.3-4.4,4c-1.1,1.7-2,3.6-2.5,5.7c-0.5,2.1-0.8,4.3-0.8,6.5s0.3,4.4,0.8,6.5c0.5,2.1,1.4,4,2.5,5.7c1.1,1.7,2.6,3,4.4,4  c1.8,1,3.9,1.5,6.4,1.5c1.8,0,3.4-0.3,4.8-0.9c1.4-0.6,2.6-1.5,3.6-2.6s1.8-2.4,2.3-3.9c0.6-1.5,0.9-3.1,1.1-4.7h7.9  c-0.2,2.8-0.8,5.3-1.8,7.6c-1,2.3-2.4,4.3-4.1,5.9c-1.7,1.7-3.8,3-6.1,3.9c-2.3,0.9-4.9,1.4-7.7,1.4c-3.5,0-6.6-0.6-9.3-1.9  c-2.8-1.3-5.1-3-7-5.2s-3.4-4.8-4.4-7.7c-1-2.9-1.5-6.1-1.5-9.4c0-3.3,0.5-6.4,1.5-9.4c1-2.9,2.5-5.5,4.4-7.7s4.2-4,7-5.3  c2.8-1.3,5.9-2,9.3-2c2.6,0,5,0.4,7.3,1.1c2.3,0.7,4.3,1.8,6.1,3.1c1.8,1.4,3.2,3,4.3,5c1.1,2,1.8,4.2,2,6.7H90.1z M135.8,90.9  c-0.3-1.3-0.8-2.6-1.4-3.7c-0.6-1.1-1.4-2.1-2.3-2.9c-1-0.8-2.1-1.5-3.3-1.9c-1.3-0.5-2.8-0.7-4.5-0.7c-2.5,0-4.6,0.5-6.4,1.5  c-1.8,1-3.3,2.3-4.4,4c-1.1,1.7-2,3.6-2.5,5.7c-0.5,2.1-0.8,4.3-0.8,6.5s0.3,4.4,0.8,6.5c0.5,2.1,1.4,4,2.5,5.7c1.1,1.7,2.6,3,4.4,4  c1.8,1,3.9,1.5,6.4,1.5c1.8,0,3.4-0.3,4.8-0.9c1.4-0.6,2.6-1.5,3.6-2.6c1-1.1,1.8-2.4,2.3-3.9c0.6-1.5,0.9-3.1,1.1-4.7h7.9  c-0.2,2.8-0.8,5.3-1.8,7.6c-1,2.3-2.4,4.3-4.1,5.9c-1.7,1.7-3.8,3-6.1,3.9c-2.3,0.9-4.9,1.4-7.7,1.4c-3.5,0-6.6-0.6-9.3-1.9  s-5.1-3-7-5.2c-1.9-2.2-3.4-4.8-4.4-7.7c-1-2.9-1.5-6.1-1.5-9.4c0-3.3,0.5-6.4,1.5-9.4c1-2.9,2.5-5.5,4.4-7.7c1.9-2.2,4.2-4,7-5.3  c2.8-1.3,5.9-2,9.3-2c2.6,0,5,0.4,7.3,1.1c2.3,0.7,4.3,1.8,6.1,3.1c1.8,1.4,3.2,3,4.3,5c1.1,2,1.8,4.2,2,6.7H135.8z M150.3,76.1  h33.4v7h-25.3v12.2h23.4v6.6h-23.4v13.6h25.7v7h-33.9V76.1z M190.2,76.1h8.1v39.4h23.6v7h-31.7V76.1z M226,76.1h33.4v7h-25.3v12.2  h23.4v6.6h-23.4v13.6h25.7v7H226V76.1z M265.9,76.1h22.2c5.1,0,8.9,1.1,11.5,3.3c2.6,2.2,3.8,5.3,3.8,9.2c0,2.2-0.3,4-1,5.5  c-0.6,1.5-1.4,2.6-2.3,3.5c-0.9,0.9-1.7,1.5-2.6,1.9c-0.8,0.4-1.5,0.6-1.9,0.8v0.1c0.7,0.1,1.4,0.3,2.2,0.7c0.8,0.3,1.5,0.9,2.2,1.7  c0.7,0.8,1.3,1.7,1.7,3c0.5,1.2,0.7,2.7,0.7,4.5c0,2.7,0.2,5.2,0.6,7.4c0.4,2.2,1.1,3.8,1.9,4.8h-8.7c-0.6-1-1-2.1-1.1-3.3  c-0.1-1.2-0.2-2.4-0.2-3.5c0-2.1-0.1-4-0.4-5.5c-0.3-1.5-0.7-2.8-1.4-3.8c-0.7-1-1.6-1.8-2.8-2.2c-1.2-0.5-2.7-0.7-4.6-0.7h-12v19.1  h-8.1V76.1z M274.1,97.2h13.3c2.6,0,4.6-0.6,5.9-1.9c1.3-1.2,2-3.1,2-5.6c0-1.5-0.2-2.7-0.7-3.6c-0.4-0.9-1-1.7-1.8-2.2  c-0.8-0.5-1.6-0.9-2.6-1c-1-0.2-2-0.3-3-0.3h-13.2V97.2z M325.1,76.1h8.6l17.9,46.4h-8.7l-4.4-12.3h-18.5l-4.4,12.3h-8.4L325.1,76.1  z M322.3,104.1h14.2l-7-20h-0.2L322.3,104.1z M345.3,76.1h37.6v7h-14.8v39.4H360V83.1h-14.7V76.1z M386.9,76.1h33.4v7H395v12.2h23.4  v6.6H395v13.6h25.7v7h-33.9V76.1z M441.5,76.1h37.6v7h-14.8v39.4h-8.1V83.1h-14.7V76.1z M501.9,75c3.5,0,6.6,0.6,9.3,2  c2.8,1.3,5.1,3.1,7,5.3c1.9,2.2,3.4,4.8,4.4,7.7c1,2.9,1.5,6.1,1.5,9.4c0,3.3-0.5,6.5-1.5,9.4c-1,2.9-2.5,5.5-4.4,7.7  c-1.9,2.2-4.2,4-7,5.2s-5.9,1.9-9.3,1.9c-3.5,0-6.6-0.6-9.3-1.9s-5.1-3-7-5.2c-1.9-2.2-3.4-4.8-4.4-7.7c-1-2.9-1.5-6.1-1.5-9.4  c0-3.3,0.5-6.4,1.5-9.4c1-2.9,2.5-5.5,4.4-7.7c1.9-2.2,4.2-4,7-5.3C495.3,75.6,498.4,75,501.9,75z M501.9,81.6  c-2.5,0-4.6,0.5-6.4,1.5c-1.8,1-3.3,2.3-4.4,4c-1.1,1.7-2,3.6-2.5,5.7c-0.5,2.1-0.8,4.3-0.8,6.5s0.3,4.4,0.8,6.5  c0.5,2.1,1.4,4,2.5,5.7c1.1,1.7,2.6,3,4.4,4c1.8,1,3.9,1.5,6.4,1.5s4.6-0.5,6.4-1.5c1.8-1,3.3-2.3,4.4-4c1.1-1.7,2-3.6,2.5-5.7  c0.5-2.1,0.8-4.3,0.8-6.5s-0.3-4.4-0.8-6.5c-0.5-2.1-1.4-4-2.5-5.7c-1.1-1.7-2.6-3-4.4-4C506.5,82.1,504.4,81.6,501.9,81.6z   M524.8,76.1h8.3l8.4,35.5h0.1l9.4-35.5h8.3l9.1,35.5h0.1l8.6-35.5h8.3l-12.8,46.4h-8.3L555.1,87h-0.1l-9.5,35.5h-8.4L524.8,76.1z   M599.6,76.1h8.6l17.9,46.4h-8.7l-4.4-12.3h-18.5l-4.4,12.3h-8.4L599.6,76.1z M596.7,104.1h14.2l-7-20h-0.2L596.7,104.1z   M629.7,76.1h22.2c5.1,0,8.9,1.1,11.5,3.3c2.6,2.2,3.8,5.3,3.8,9.2c0,2.2-0.3,4-1,5.5c-0.6,1.5-1.4,2.6-2.3,3.5  c-0.9,0.9-1.7,1.5-2.6,1.9c-0.8,0.4-1.5,0.6-1.9,0.8v0.1c0.7,0.1,1.4,0.3,2.2,0.7c0.8,0.3,1.5,0.9,2.2,1.7c0.7,0.8,1.3,1.7,1.7,3  c0.5,1.2,0.7,2.7,0.7,4.5c0,2.7,0.2,5.2,0.6,7.4c0.4,2.2,1.1,3.8,1.9,4.8h-8.7c-0.6-1-1-2.1-1.1-3.3c-0.1-1.2-0.2-2.4-0.2-3.5  c0-2.1-0.1-4-0.4-5.5c-0.3-1.5-0.7-2.8-1.4-3.8c-0.7-1-1.6-1.8-2.8-2.2c-1.2-0.5-2.7-0.7-4.6-0.7h-12v19.1h-8.1V76.1z M637.9,97.2  h13.3c2.6,0,4.6-0.6,5.9-1.9c1.3-1.2,2-3.1,2-5.6c0-1.5-0.2-2.7-0.7-3.6c-0.4-0.9-1-1.7-1.8-2.2c-0.8-0.5-1.6-0.9-2.6-1  c-1-0.2-2-0.3-3-0.3h-13.2V97.2z M674.7,76.1H694c3.6,0,6.6,0.6,9.2,1.8c2.6,1.2,4.7,2.9,6.4,5c1.6,2.1,2.9,4.6,3.7,7.4  c0.8,2.8,1.2,5.8,1.2,9c0,3.2-0.4,6.2-1.2,9c-0.8,2.8-2,5.3-3.7,7.4c-1.6,2.1-3.8,3.8-6.4,5c-2.6,1.2-5.7,1.8-9.2,1.8h-19.2V76.1z   M682.9,115.9h8c3.2,0,5.8-0.4,7.8-1.3c2-0.8,3.6-2,4.7-3.5c1.1-1.5,1.9-3.2,2.3-5.3c0.4-2,0.6-4.2,0.6-6.5s-0.2-4.5-0.6-6.5  c-0.4-2-1.2-3.8-2.3-5.3c-1.1-1.5-2.7-2.7-4.7-3.5c-2-0.8-4.6-1.3-7.8-1.3h-8V115.9z M725.9,107c0,1.8,0.3,3.3,0.9,4.6  c0.6,1.3,1.5,2.3,2.5,3.1c1.1,0.8,2.3,1.4,3.7,1.8c1.4,0.4,2.9,0.6,4.6,0.6c1.8,0,3.3-0.2,4.5-0.6c1.3-0.4,2.3-0.9,3.1-1.6  c0.8-0.6,1.3-1.4,1.7-2.2c0.3-0.8,0.5-1.7,0.5-2.6c0-1.8-0.4-3.1-1.2-3.9c-0.8-0.8-1.7-1.4-2.6-1.8c-1.6-0.6-3.6-1.2-5.8-1.7  c-2.2-0.5-4.9-1.2-8.1-2.1c-2-0.5-3.7-1.2-5-2c-1.3-0.8-2.4-1.8-3.2-2.8s-1.3-2.1-1.7-3.3s-0.5-2.4-0.5-3.6c0-2.3,0.5-4.4,1.5-6.1  c1-1.7,2.3-3.1,3.9-4.3c1.6-1.1,3.4-2,5.5-2.5c2-0.5,4.1-0.8,6.2-0.8c2.4,0,4.7,0.3,6.9,0.9c2.1,0.6,4,1.6,5.7,2.8  c1.6,1.3,2.9,2.8,3.9,4.6c1,1.8,1.4,4,1.4,6.4h-8.1c-0.2-3-1.2-5.1-3.1-6.3c-1.8-1.2-4.1-1.9-7-1.9c-1,0-1.9,0.1-2.9,0.3  c-1,0.2-1.9,0.5-2.7,1c-0.8,0.5-1.5,1.1-2,1.9c-0.5,0.8-0.8,1.8-0.8,2.9c0,1.6,0.5,2.9,1.5,3.9c1,0.9,2.3,1.6,4,2.1  c0.2,0,0.9,0.2,2,0.6c1.2,0.3,2.5,0.7,4,1.1c1.5,0.4,2.9,0.8,4.3,1.1c1.4,0.4,2.4,0.6,3,0.8c1.5,0.5,2.8,1.1,4,2  c1.1,0.8,2.1,1.8,2.8,2.8c0.8,1.1,1.3,2.2,1.7,3.4c0.4,1.2,0.6,2.4,0.6,3.6c0,2.6-0.5,4.8-1.6,6.7c-1.1,1.8-2.5,3.3-4.2,4.5  c-1.7,1.2-3.7,2-5.9,2.6s-4.5,0.8-6.8,0.8c-2.6,0-5.1-0.3-7.5-1s-4.4-1.6-6.1-3c-1.7-1.3-3.1-3.1-4.2-5.2c-1-2.1-1.6-4.6-1.6-7.4  H725.9z"></path>
<path d="M162.8,151.1h8.6l17.9,46.4h-8.7l-4.4-12.3h-18.5l-4.4,12.3H145L162.8,151.1z M160,179.1h14.2l-7-20H167L160,179.1z   M211.5,151.1h8.6l21.2,34.2h0.1v-34.2h7.7v46.4h-8.6l-21.1-34.1h-0.2v34.1h-7.7V151.1z M257.8,151.1h33.4v7h-25.3v12.2h23.4v6.6  h-23.4v13.6h25.7v7h-33.9V151.1z M294.2,151.1h8.3l8.4,35.5h0.1l9.4-35.5h8.3l9.1,35.5h0.1l8.6-35.5h8.3L342,197.5h-8.3l-9.3-35.5  h-0.1l-9.5,35.5h-8.4L294.2,151.1z M378.2,151.1h32v7h-23.9v12.2h21v6.6h-21v20.6h-8.1V151.1z M414.6,151.1h8.1v27  c0,1.6,0.1,3.1,0.2,4.7c0.2,1.6,0.6,3,1.3,4.3c0.7,1.3,1.8,2.3,3.2,3.2c1.5,0.8,3.5,1.2,6.1,1.2c2.6,0,4.7-0.4,6.1-1.2  c1.5-0.8,2.5-1.9,3.2-3.2c0.7-1.3,1.1-2.7,1.3-4.3c0.2-1.6,0.2-3.2,0.2-4.7v-27h8.1v29.7c0,3-0.5,5.6-1.4,7.8  c-0.9,2.2-2.2,4.1-3.9,5.6c-1.7,1.5-3.7,2.6-6,3.3c-2.3,0.7-4.9,1.1-7.8,1.1c-2.9,0-5.5-0.4-7.8-1.1s-4.3-1.9-6-3.3  c-1.7-1.5-3-3.3-3.9-5.6s-1.4-4.8-1.4-7.8V151.1z M456.6,151.1h37.6v7h-14.8v39.4h-8.1v-39.4h-14.7V151.1z M498,151.1h8.1v27  c0,1.6,0.1,3.1,0.2,4.7c0.2,1.6,0.6,3,1.3,4.3c0.7,1.3,1.8,2.3,3.2,3.2c1.5,0.8,3.5,1.2,6.1,1.2c2.6,0,4.7-0.4,6.1-1.2  c1.5-0.8,2.5-1.9,3.2-3.2c0.7-1.3,1.1-2.7,1.3-4.3c0.2-1.6,0.2-3.2,0.2-4.7v-27h8.1v29.7c0,3-0.5,5.6-1.4,7.8  c-0.9,2.2-2.2,4.1-3.9,5.6c-1.7,1.5-3.7,2.6-6,3.3c-2.3,0.7-4.9,1.1-7.8,1.1c-2.9,0-5.5-0.4-7.8-1.1s-4.3-1.9-6-3.3  c-1.7-1.5-3-3.3-3.9-5.6s-1.4-4.8-1.4-7.8V151.1z M544.5,151.1h22.2c5.1,0,8.9,1.1,11.5,3.3c2.6,2.2,3.8,5.3,3.8,9.2  c0,2.2-0.3,4-1,5.5c-0.6,1.5-1.4,2.6-2.3,3.5c-0.9,0.9-1.7,1.5-2.6,1.9c-0.8,0.4-1.5,0.7-1.9,0.8v0.1c0.7,0.1,1.4,0.3,2.2,0.7  c0.8,0.3,1.5,0.9,2.2,1.7c0.7,0.8,1.3,1.7,1.7,3s0.7,2.7,0.7,4.5c0,2.7,0.2,5.2,0.6,7.4c0.4,2.2,1.1,3.8,1.9,4.8H575  c-0.6-1-1-2.1-1.1-3.3c-0.1-1.2-0.2-2.4-0.2-3.5c0-2.1-0.1-4-0.4-5.5s-0.7-2.8-1.4-3.8c-0.7-1-1.6-1.8-2.8-2.2  c-1.2-0.5-2.7-0.7-4.6-0.7h-12v19.1h-8.1V151.1z M552.6,172.2h13.3c2.6,0,4.6-0.6,5.9-1.9c1.3-1.2,2-3.1,2-5.6  c0-1.5-0.2-2.7-0.7-3.6c-0.4-0.9-1-1.7-1.8-2.2c-0.8-0.5-1.6-0.9-2.6-1c-1-0.2-2-0.3-3-0.3h-13.2V172.2z M589.5,151.1h33.4v7h-25.3  v12.2H621v6.6h-23.4v13.6h25.7v7h-33.9V151.1z"></path>
<path d="M0,226.1h8.3l8.4,35.5h0.1l9.4-35.5h8.3l9.1,35.5h0.1l8.6-35.5h8.3l-12.8,46.4h-8.3L30.2,237h-0.1l-9.5,35.5h-8.4L0,226.1z   M64.5,226.1h8.1v18.5h21.1v-18.5h8.1v46.4h-8.1v-20.9H72.7v20.9h-8.1V226.1z M110.6,226.1H144v7h-25.3v12.2h23.4v6.6h-23.4v13.6  h25.7v7h-33.9V226.1z M150.3,226.1h8.6l21.2,34.2h0.1v-34.2h7.7v46.4h-8.6l-21.1-34.1H158v34.1h-7.7V226.1z M211.1,226.1h8.3  l8.4,35.5h0.1l9.4-35.5h8.3l9.1,35.5h0.1l8.6-35.5h8.3l-12.8,46.4h-8.3l-9.3-35.5h-0.1l-9.5,35.5h-8.4L211.1,226.1z M275.7,226.1  h33.4v7h-25.3v12.2h23.4v6.6h-23.4v13.6h25.7v7h-33.9V226.1z M315.2,240.7c1.6-0.2,2.6-0.9,3.2-2c0.5-1.1,0.8-2.4,0.8-3.8h-4v-8.8  h8.1v8.8c0,2.5-0.7,4.6-2.2,6.4s-3.4,2.8-5.9,3.2V240.7z M331.8,226.1H354c5.1,0,8.9,1.1,11.5,3.3c2.6,2.2,3.8,5.3,3.8,9.2  c0,2.2-0.3,4-1,5.5c-0.6,1.5-1.4,2.6-2.3,3.5c-0.9,0.9-1.7,1.5-2.6,1.9c-0.8,0.4-1.5,0.7-1.9,0.8v0.1c0.7,0.1,1.4,0.3,2.2,0.7  c0.8,0.3,1.5,0.9,2.2,1.7c0.7,0.8,1.3,1.7,1.7,3s0.7,2.7,0.7,4.5c0,2.7,0.2,5.2,0.6,7.4c0.4,2.2,1.1,3.8,1.9,4.8h-8.7  c-0.6-1-1-2.1-1.1-3.3c-0.1-1.2-0.2-2.4-0.2-3.5c0-2.1-0.1-4-0.4-5.5s-0.7-2.8-1.4-3.8c-0.7-1-1.6-1.8-2.8-2.2  c-1.2-0.5-2.7-0.7-4.6-0.7h-12v19.1h-8.1V226.1z M340,247.2h13.3c2.6,0,4.6-0.6,5.9-1.9c1.3-1.2,2-3.1,2-5.6c0-1.5-0.2-2.7-0.7-3.6  c-0.4-0.9-1-1.7-1.8-2.2c-0.8-0.5-1.6-0.9-2.6-1c-1-0.2-2-0.3-3-0.3H340V247.2z M376.8,226.1h33.4v7H385v12.2h23.4v6.6H385v13.6  h25.7v7h-33.9V226.1z M441.2,257c0,1.8,0.3,3.3,0.9,4.5c0.6,1.3,1.5,2.3,2.5,3.1c1.1,0.8,2.3,1.4,3.7,1.8s2.9,0.6,4.6,0.6  c1.8,0,3.3-0.2,4.5-0.6c1.3-0.4,2.3-0.9,3.1-1.6c0.8-0.6,1.3-1.4,1.7-2.2c0.3-0.8,0.5-1.7,0.5-2.6c0-1.8-0.4-3.1-1.2-3.9  c-0.8-0.8-1.7-1.4-2.6-1.8c-1.6-0.6-3.6-1.2-5.8-1.7c-2.2-0.5-4.9-1.2-8.1-2.1c-2-0.5-3.7-1.2-5-2c-1.3-0.8-2.4-1.8-3.2-2.8  s-1.3-2.1-1.7-3.3s-0.5-2.4-0.5-3.6c0-2.3,0.5-4.4,1.5-6.1c1-1.7,2.3-3.1,3.9-4.3c1.6-1.1,3.4-2,5.5-2.5c2-0.5,4.1-0.8,6.2-0.8  c2.4,0,4.7,0.3,6.9,0.9c2.1,0.6,4,1.6,5.7,2.8c1.6,1.3,2.9,2.8,3.9,4.6c1,1.8,1.4,4,1.4,6.4h-8.1c-0.2-3-1.2-5.1-3.1-6.3  c-1.8-1.2-4.1-1.9-7-1.9c-1,0-1.9,0.1-2.9,0.3c-1,0.2-1.9,0.5-2.7,1s-1.5,1.1-2,1.9c-0.5,0.8-0.8,1.8-0.8,2.9c0,1.6,0.5,2.9,1.5,3.9  c1,0.9,2.3,1.6,4,2.1c0.2,0,0.9,0.2,2,0.6c1.2,0.3,2.5,0.7,4,1.1c1.5,0.4,2.9,0.8,4.3,1.1c1.4,0.4,2.4,0.6,3,0.8  c1.5,0.5,2.8,1.1,4,2c1.1,0.8,2.1,1.8,2.8,2.8c0.8,1.1,1.3,2.2,1.7,3.4c0.4,1.2,0.6,2.4,0.6,3.6c0,2.6-0.5,4.8-1.6,6.7  c-1.1,1.8-2.5,3.3-4.2,4.5c-1.7,1.2-3.7,2-5.9,2.6c-2.2,0.5-4.5,0.8-6.8,0.8c-2.6,0-5.1-0.3-7.5-1c-2.3-0.6-4.4-1.6-6.1-3  c-1.7-1.3-3.1-3.1-4.2-5.2c-1-2.1-1.6-4.6-1.6-7.4H441.2z M477.1,226.1h8.1v18.5h21.1v-18.5h8.1v46.4h-8.1v-20.9h-21.1v20.9h-8.1  V226.1z M535.9,226.1h8.6l17.9,46.4h-8.7l-4.4-12.3h-18.5l-4.4,12.3h-8.4L535.9,226.1z M533,254.1h14.2l-7-20H540L533,254.1z   M595.3,240.9c-0.3-1.3-0.8-2.6-1.4-3.7c-0.6-1.1-1.4-2.1-2.3-2.9c-1-0.8-2.1-1.5-3.3-1.9c-1.3-0.5-2.8-0.7-4.5-0.7  c-2.5,0-4.6,0.5-6.4,1.5c-1.8,1-3.3,2.3-4.4,4c-1.1,1.7-2,3.6-2.5,5.7c-0.5,2.1-0.8,4.3-0.8,6.5s0.3,4.4,0.8,6.5  c0.5,2.1,1.4,4,2.5,5.7c1.1,1.7,2.6,3,4.4,4c1.8,1,3.9,1.5,6.4,1.5c1.8,0,3.4-0.3,4.8-0.9c1.4-0.6,2.6-1.5,3.6-2.6  c1-1.1,1.8-2.4,2.3-3.9c0.6-1.5,0.9-3.1,1.1-4.7h7.9c-0.2,2.8-0.8,5.3-1.8,7.6c-1,2.3-2.4,4.3-4.1,5.9c-1.7,1.7-3.8,3-6.1,3.9  c-2.3,0.9-4.9,1.4-7.7,1.4c-3.5,0-6.6-0.6-9.3-1.9s-5.1-3-7-5.2c-1.9-2.2-3.4-4.8-4.4-7.7c-1-2.9-1.5-6.1-1.5-9.4  c0-3.3,0.5-6.4,1.5-9.4c1-2.9,2.5-5.5,4.4-7.7c1.9-2.2,4.2-4,7-5.3c2.8-1.3,5.9-1.9,9.3-1.9c2.6,0,5,0.4,7.3,1.1s4.3,1.8,6.1,3.1  c1.8,1.4,3.2,3,4.3,5c1.1,1.9,1.8,4.2,2,6.7H595.3z M609.8,226.1h8.1v21.1l20.7-21.1h10l-18.5,18.5l19.8,27.9h-10.1l-15.2-22.2  l-6.6,6.6v15.6h-8.1V226.1z M653.6,226.1h8.1v39.4h23.6v7h-31.7V226.1z M689.5,226.1h33.4v7h-25.3v12.2H721v6.6h-23.4v13.6h25.7v7  h-33.9V226.1z M729.4,226.1h19.2c3.6,0,6.6,0.6,9.2,1.8c2.6,1.2,4.7,2.9,6.4,5c1.6,2.1,2.9,4.6,3.7,7.4c0.8,2.8,1.2,5.8,1.2,9  c0,3.2-0.4,6.2-1.2,9c-0.8,2.8-2,5.3-3.7,7.4c-1.6,2.1-3.8,3.8-6.4,5c-2.6,1.2-5.7,1.8-9.2,1.8h-19.2V226.1z M737.5,265.9h8  c3.2,0,5.8-0.4,7.8-1.3c2-0.8,3.6-2,4.7-3.5c1.1-1.5,1.9-3.2,2.3-5.3c0.4-2,0.6-4.2,0.6-6.5s-0.2-4.5-0.6-6.5  c-0.4-2-1.2-3.8-2.3-5.3c-1.1-1.5-2.7-2.7-4.7-3.5c-2-0.8-4.6-1.3-7.8-1.3h-8V265.9z"></path>
<path d="M230.2,301.1h37.6v7H253v39.4h-8.1v-39.4h-14.7V301.1z M290.6,300c3.5,0,6.6,0.6,9.3,1.9c2.8,1.3,5.1,3.1,7,5.3  c1.9,2.2,3.4,4.8,4.4,7.7c1,2.9,1.5,6.1,1.5,9.4c0,3.3-0.5,6.5-1.5,9.4c-1,2.9-2.5,5.5-4.4,7.7c-1.9,2.2-4.2,4-7,5.2  s-5.9,1.9-9.3,1.9c-3.5,0-6.6-0.6-9.3-1.9s-5.1-3-7-5.2c-1.9-2.2-3.4-4.8-4.4-7.7c-1-2.9-1.5-6.1-1.5-9.4c0-3.3,0.5-6.4,1.5-9.4  c1-2.9,2.5-5.5,4.4-7.7c1.9-2.2,4.2-4,7-5.3C284,300.6,287.1,300,290.6,300z M290.6,306.6c-2.5,0-4.6,0.5-6.4,1.5  c-1.8,1-3.3,2.3-4.4,4c-1.1,1.7-2,3.6-2.5,5.7c-0.5,2.1-0.8,4.3-0.8,6.5s0.3,4.4,0.8,6.5c0.5,2.1,1.4,4,2.5,5.7c1.1,1.7,2.6,3,4.4,4  c1.8,1,3.9,1.5,6.4,1.5s4.6-0.5,6.4-1.5c1.8-1,3.3-2.3,4.4-4c1.1-1.7,2-3.6,2.5-5.7c0.5-2.1,0.8-4.3,0.8-6.5s-0.3-4.4-0.8-6.5  c-0.5-2.1-1.4-4-2.5-5.7c-1.1-1.7-2.6-3-4.4-4C295.2,307.1,293.1,306.6,290.6,306.6z M333.9,301.1h37.6v7h-14.8v39.4h-8.1v-39.4  h-14.7V301.1z M394.3,300c3.5,0,6.6,0.6,9.3,1.9c2.8,1.3,5.1,3.1,7,5.3c1.9,2.2,3.4,4.8,4.4,7.7c1,2.9,1.5,6.1,1.5,9.4  c0,3.3-0.5,6.5-1.5,9.4c-1,2.9-2.5,5.5-4.4,7.7c-1.9,2.2-4.2,4-7,5.2s-5.9,1.9-9.3,1.9c-3.5,0-6.6-0.6-9.3-1.9s-5.1-3-7-5.2  c-1.9-2.2-3.4-4.8-4.4-7.7c-1-2.9-1.5-6.1-1.5-9.4c0-3.3,0.5-6.4,1.5-9.4c1-2.9,2.5-5.5,4.4-7.7c1.9-2.2,4.2-4,7-5.3  C387.7,300.6,390.8,300,394.3,300z M394.3,306.6c-2.5,0-4.6,0.5-6.4,1.5c-1.8,1-3.3,2.3-4.4,4c-1.1,1.7-2,3.6-2.5,5.7  c-0.5,2.1-0.8,4.3-0.8,6.5s0.3,4.4,0.8,6.5c0.5,2.1,1.4,4,2.5,5.7c1.1,1.7,2.6,3,4.4,4c1.8,1,3.9,1.5,6.4,1.5s4.6-0.5,6.4-1.5  c1.8-1,3.3-2.3,4.4-4c1.1-1.7,2-3.6,2.5-5.7c0.5-2.1,0.8-4.3,0.8-6.5s-0.3-4.4-0.8-6.5c-0.5-2.1-1.4-4-2.5-5.7c-1.1-1.7-2.6-3-4.4-4  C398.9,307.1,396.7,306.6,394.3,306.6z M422.8,301.1h19.2c3.6,0,6.6,0.6,9.2,1.8c2.6,1.2,4.7,2.9,6.4,5c1.6,2.1,2.9,4.6,3.7,7.4  c0.8,2.8,1.2,5.8,1.2,9c0,3.2-0.4,6.2-1.2,9c-0.8,2.8-2,5.3-3.7,7.4c-1.6,2.1-3.8,3.8-6.4,5c-2.6,1.2-5.7,1.8-9.2,1.8h-19.2V301.1z   M431,340.9h8c3.2,0,5.8-0.4,7.8-1.3c2-0.8,3.6-2,4.7-3.5c1.1-1.5,1.9-3.2,2.3-5.3c0.4-2,0.6-4.2,0.6-6.5s-0.2-4.5-0.6-6.5  c-0.4-2-1.2-3.8-2.3-5.3c-1.1-1.5-2.7-2.7-4.7-3.5c-2-0.8-4.6-1.3-7.8-1.3h-8V340.9z M479.5,301.1h8.6l17.9,46.4h-8.7l-4.4-12.3  h-18.5l-4.4,12.3h-8.4L479.5,301.1z M476.7,329.1h14.2l-7-20h-0.2L476.7,329.1z M516.2,329.3l-17.4-28.2h9.4l12.3,20.8l12.1-20.8  h9.1l-17.4,28.2v18.2h-8.1V329.3z"></path>
</svg>
