<svg xmlns="http://www.w3.org/2000/svg" xmlns:xlink="http://www.w3.org/1999/xlink" width="35" height="35" viewBox="0 0 35 35"><path d="M2.538,1.029c.623-.023,1.245-.006,1.869-.006h.257v-3.24c-.333-.033-.68-.08-1.028-.1C3-2.343,2.357-2.375,1.719-2.359a4.7,4.7,0,0,0-2.707.835,4.056,4.056,0,0,0-1.625,2.7,9.565,9.565,0,0,0-.113,1.39c-.017.728,0,1.453,0,2.181V5.02h-3.1V8.642h3.081v9.093H1.017V8.656H4.089c.156-1.2.312-2.394.472-3.635H.993S1,3.228,1.022,2.45c.03-1.067.662-1.391,1.516-1.421" transform="translate(17.182 10.177)"/></svg>
