<?xml version="1.0" encoding="UTF-8"?><svg id="Layer_1" xmlns="http://www.w3.org/2000/svg" viewBox="0 0 2042.77 2042.15"><path d="M1021.51,.02c543.02-3.65,1021.67,434.78,1021.26,1021.9-.4,573.89-464.43,1020.33-1022.71,1020.22C456.81,2042.04-3.55,1582.41,.02,1017.85,3.75,428.49,483.4-3.71,1021.51,.02Zm-6.25,1994.81c23.15-1.48,40.25-1.96,57.21-3.78,32-3.43,63.94-7.51,95.88-11.55,43.65-5.53,86.07-16.55,128.03-29.39,61.76-18.89,121.93-41.97,178.24-73.78,37.69-21.3,74.86-43.75,110.81-67.86,52.69-35.34,102.51-74.66,143.72-123.34,30.04-35.48,59.51-71.62,86.76-109.26,31.33-43.28,58.13-89.6,79.71-138.66,12.84-29.17,26.41-58.12,37.33-88.02,21.71-59.44,39.64-120.04,47.73-183.11,4.57-35.67,10.9-71.22,13.15-107.04,1.85-29.5-.04-59.39-2.29-88.95-2.44-32.06-5.46-64.26-11.38-95.81-8-42.64-17.31-85.18-29.09-126.91-20.59-72.96-49.97-142.64-89.07-207.66-23.9-39.75-49.77-78.44-76.82-116.12-29.04-40.46-60.89-78.82-99.39-111.02-25.07-20.96-49.33-42.99-75.32-62.74-47.89-36.39-99.32-67.45-152.93-94.63-25.65-13-52.36-23.99-78.96-35.01-61.53-25.49-125.37-43.81-190.71-55.86-41.4-7.64-83.5-12.93-125.51-15.44-37.23-2.22-74.87-.59-112.14,2.06-29.87,2.13-59.72,7.06-89.1,13.08-39.52,8.1-79.16,16.57-117.68,28.37-37.66,11.54-74.57,26.08-110.7,41.85-34.93,15.24-69.6,31.77-102.28,51.27-37.14,22.16-72.81,47.06-107.48,72.96-29.46,22.01-57.25,46.4-84.5,71.16-15.67,14.24-29.5,30.71-42.87,47.22-23.17,28.58-46.53,57.15-67.67,87.22-30.93,44.01-57.14,90.85-80.51,139.47-29.22,60.8-51.41,123.95-68.71,188.91-16.42,61.64-24.89,124.74-29.13,188.22-1.99,29.86,.14,60.1,2.03,90.07,1.76,27.96,4.72,55.92,8.93,83.62,4.5,29.63,9.17,59.48,17.2,88.28,12.33,44.23,26.36,88.1,41.95,131.29,17.58,48.68,40.42,95.26,67.69,139.24,22.62,36.48,46.73,72.16,72.2,106.71,20.17,27.36,42.55,53.24,65.56,78.29,16.22,17.66,34.42,33.71,53.02,48.91,28.46,23.26,57.29,46.21,87.29,67.42,43.7,30.89,89.76,58.08,138.81,79.84,28.84,12.79,57.34,26.6,86.9,37.49,71.51,26.33,145.32,44.39,220.86,54.27,36.15,4.73,72.72,6.25,103.21,8.74Z"/><path d="M1023.82,1898.92c-239.31-3.28-442.05-82.18-610.61-241.16-184.67-174.16-279.14-391.12-279.24-644.92-.19-484.76,394.8-885.89,891.1-882.64,478.93,3.13,877.17,396.16,875.48,884.05-.84,243.18-87.82,452.39-259.6,624.34-171.85,172.02-381.59,256.26-617.14,260.32Zm476.51-1211.11c-28.82,0-56.46,0-84.1,0-130.83,0-261.65,0-392.48,0-155.42,0-310.84,0-466.26,.03-5.24,0-10.7-.28-15.66,1.04-3.25,.87-7.59,3.92-8.35,6.81-5.33,20.32-10.61,40.71-14.46,61.35-4.83,25.88-8.25,52.02-12.33,78.03-6.74,42.87-11.05,85.94-10.3,129.41,.11,6.62,1.38,13.24,1.27,19.85-.51,29.39-2.87,58.85-1.66,88.16,1.55,37.63,5.49,75.18,9.17,112.69,2.03,20.74,4.57,41.54,8.73,61.94,6.34,31.1,15.29,61.69,21.01,92.88,2.03,11.07,6.12,12.18,15.33,12.18,311.54-.18,623.08-.15,934.62-.15h12.52c56.84-221.22,58.88-441.72,2.96-664.23ZM313.68,1002.89v-.04c44.54,0,89.09-.1,133.63,.11,6.72,.03,10.21-1.37,10.69-9.02,3.08-48.47,6.1-96.96,10.1-145.36,1.91-23.09,5.16-46.14,9.17-68.97,4.72-26.87,10.31-53.63,16.81-80.12,2.32-9.45-.47-10.91-8.46-10.9-80.67,.14-161.33,.26-242,.08-7.36-.02-10.85,3.09-12.96,9.45-9.33,28.04-20.51,55.6-27.74,84.16-10.58,41.8-19.73,84.08-26.82,126.6-4.47,26.77-3.8,54.37-6.03,81.55-.8,9.72,2.2,12.76,12.08,12.66,43.84-.48,87.68-.21,131.52-.21Zm1224.41-314.29c26.2,103.99,37.34,207.89,39.5,313.69,4.32,.23,7.73,.57,11.13,.58,88.01,.03,176.02-.14,264.03,.25,9.76,.04,11.54-3.3,11.42-12.09-.51-39.1-4.03-77.86-11.58-116.21-5-25.39-9.28-51.02-16.21-75.9-9.04-32.46-20.63-64.2-30.61-96.41-3.19-10.31-8.66-14.1-19.73-14.04-75.38,.42-150.77,.17-226.15,.13-6.21,0-12.42,0-21.8,0Zm-.84,662.9c2.56,.2,4.61,.51,6.65,.51,80.65,.03,161.31-.08,241.96,.21,7.08,.03,10.02-3.15,12.06-8.8,10.61-29.42,22.91-58.37,31.39-88.4,9.57-33.87,17.09-68.47,22.93-103.18,5.63-33.48,8-67.51,11.71-101.31,.37-3.33,.05-6.74,.05-10.14h-285.1c-4.39,53.04-6.68,105.45-13.6,157.24-6.85,51.25-18.37,101.88-28.04,153.87Zm-1037.2,.54c-26.99-103.19-40.34-206.76-41.68-311.56H169.36c3.09,30.12,5.06,59.32,9.33,88.17,4.49,30.35,9.15,60.95,17.39,90.41,11.58,41.42,26.64,81.86,39.95,122.81,2.79,8.57,8.15,10.37,16.58,10.34,78.19-.3,156.38-.18,234.57-.18h12.87ZM1382.44,341.56c8.48,13.07,15.43,24.08,22.67,34.89,29.55,44.13,55.13,90.51,74.76,139.81,16.3,40.95,30.63,82.7,44.92,124.41,2.87,8.36,6.31,10.63,14.65,10.6,76.81-.3,153.63-.17,230.44-.2,3.57,0,7.14-.44,11.38-.72-.76-2.84-.87-4.27-1.5-5.42-13.62-24.69-26.92-49.57-41.06-73.97-27.29-47.09-60.09-90.33-97.63-129.5-29.01-30.28-60.7-58.01-91.59-86.46-5.94-5.47-13.57-12.67-20.56-12.84-47.66-1.13-95.36-.59-146.49-.59ZM250.97,649.62c4.36,.98,5.36,1.4,6.37,1.4,80.64,.04,161.27-.08,241.91,.25,7.88,.03,9.61-4.78,11.03-9.99,13.57-49.72,31.77-97.71,53.11-144.57,19.5-42.83,41.63-84.17,68.27-123.03,6.75-9.85,13.13-19.96,20.43-31.09-3.89-.52-5.86-1.01-7.83-1.02-45.23-.04-90.45-.21-135.68,.22-4.67,.04-10.11,2.71-13.84,5.8-18.34,15.14-37.27,29.79-54.02,46.58-27.91,27.97-55.56,56.38-80.95,86.6-21.07,25.07-39.89,52.25-57.58,79.86-18.14,28.31-33.7,58.27-51.22,88.98Zm409.93,1047.68c-1.77-3.35-2.3-4.59-3.03-5.7-19.91-30.26-41.62-59.5-59.39-90.96-36.05-63.81-64.31-131.21-84.75-201.71-2.28-7.88-5.73-10.93-14.43-10.89-76.46,.38-152.93,.21-229.4,.26-3.65,0-7.3,.46-11.83,.76,1.24,3.05,1.7,4.73,2.54,6.19,15.43,26.47,30.17,53.39,46.53,79.29,53.33,84.41,121.4,155.32,200.22,216.21,7.21,5.57,14.91,7.97,24.1,7.9,39.62-.3,79.25-.09,118.87-.14,2.96,0,5.92-.65,10.56-1.2Zm1116.62-307.73c-3.7-.57-5.68-1.15-7.65-1.15-79.26-.04-158.53-.02-237.79-.07-5.04,0-7.88,1.04-9.64,6.88-5.83,19.28-12.63,38.27-19.2,57.32-21.06,61.07-48.14,119.34-82.44,174.11-14.72,23.51-30.43,46.4-46.15,70.28,2.91,.45,5.22,1.11,7.54,1.11,42.79,.07,85.58,.23,128.36-.19,4.74-.05,10.22-2.5,14.05-5.5,18.12-14.18,36.31-28.36,53.52-43.61,37.26-33.01,72.38-68.27,102.21-108.21,22.54-30.18,43.96-61.27,64.63-92.77,11.94-18.2,21.4-38.04,32.56-58.2ZM773.6,650.63c14.86-104.88,33.8-208.04,68.16-309.08-45.73,0-89.18,.2-132.63-.2-7.28-.07-11.83,2.47-15.82,7.94-8.22,11.3-17.12,22.14-24.96,33.69-49.84,73.45-86.31,153.4-114.43,237.33-3.21,9.57-5.09,19.59-7.82,30.32h227.49Zm718.59-.24c-16.47-43.37-30.85-85.05-48.02-125.54-26.8-63.18-60.8-122.41-103.39-176.53-4.02-5.11-7.74-6.91-13.86-6.88-41.05,.2-82.1,.09-123.15,.13-3.01,0-6.02,.34-10.03,.58,2.78,9.25,5.46,17.36,7.66,25.59,10.03,37.4,20.76,74.63,29.61,112.31,7.65,32.56,13.43,65.58,19.45,98.51,3.69,20.18,7.06,40.49,8.97,60.9,.85,9.11,3.18,11.87,12.32,11.82,69.11-.34,138.23-.18,207.35-.21,3.09,0,6.18-.31,13.08-.68Zm-232.31,738.67c-15.48,104.2-34.63,207.74-70.91,308.52,4.92,.23,8.33,.52,11.74,.52,38.23,.03,76.46-.19,114.69,.2,7.48,.08,12.78-2.16,16.89-8.07,20.9-30.06,43.02-59.36,62.45-90.34,32.29-51.5,55.7-107.41,76.56-164.36,5.44-14.84,9.81-30.07,15.11-46.46h-226.52Zm-710.49-.77c1.02,4.83,1.31,8.27,2.48,11.39,12.7,33.85,24.79,67.96,38.49,101.41,28.17,68.84,65.94,132.11,112.87,189.9,4.19,5.16,8.34,7.32,15,7.27,38.91-.3,77.82-.13,116.73-.17,3.32,0,6.65-.41,10.6-.68-5.76-17.94-11.67-34.51-16.36-51.41-8.33-29.98-16.49-60.03-23.65-90.3-5.86-24.76-10.48-49.82-15.07-74.86-4.9-26.7-9.73-53.44-13.29-80.34-1.22-9.24-3.49-12.47-13.2-12.41-67.68,.4-135.36,.2-203.04,.2-3.39,0-6.78,0-11.55,0ZM880.48,341.57c-36.87,100.35-55.58,203.9-70.35,308.66h189.34c.2-3.6,.48-6.36,.48-9.13,.02-96.14,.01-192.28,0-288.41,0-1.4,.55-3.25-.13-4.13-1.99-2.54-4.46-6.67-6.79-6.69-37.49-.42-74.99-.3-112.56-.3Zm344.73,309.05c-4.6-27.64-8.67-54.01-13.45-80.25-6.53-35.88-12.07-72.04-20.85-107.39-9.46-38.08-22.35-75.3-33.29-113.03-1.99-6.85-5.41-8.57-11.98-8.52-33.3,.25-66.6,.1-99.91,.15-2.71,0-5.42,.44-8.84,.74v308.3h188.31Zm-188.37,1047.48c37.14,0,72.86,.11,108.58-.25,2.37-.02,6.01-3.13,6.85-5.57,9.51-27.75,19.95-55.29,27.44-83.6,10.03-37.88,18.06-76.32,26.23-114.67,4.55-21.36,7.82-42.99,11.38-64.55,2.18-13.22,3.82-26.53,5.78-40.33h-186.26v308.97Zm-37.4-308.9h-188.05c4.61,27.39,8.62,53.72,13.53,79.88,6.47,34.5,12.12,69.26,20.92,103.18,10.14,39.1,23.54,77.34,34.99,116.1,2.38,8.05,6.55,9.99,14.29,9.9,31.21-.36,62.43-.13,93.64-.17,3.41,0,6.81-.34,10.68-.54v-308.35ZM734.06,302.26l1.3,2.66c38.17,0,76.35,.18,114.52-.33,3.2-.04,8.04-4.11,9.24-7.37,13.86-37.6,32.47-72.56,56.38-104.73,2.03-2.73,3.32-6.01,6.33-11.57-76.13,23.94-135.77,66.81-187.76,121.34Zm566.68,2.67c-20.94-40.05-156.2-126.54-184.88-118.79,1.44,2.48,2.57,4.94,4.14,7.06,23.26,31.29,41.21,65.6,55.25,101.76,3.59,9.25,7.94,10.2,15.88,10.09,23.15-.33,46.31-.12,69.47-.12h40.13Zm-301.94-.59V171.28c-41.23,7.62-92.44,95.76-101.86,133.05h101.86Zm38.24-.39h103.16c-3.24-7.11-5.91-13.15-8.73-19.13-15.09-31.97-31.88-62.95-56.69-88.61-10.35-10.7-21.62-20.69-37.73-25.5v133.25Zm-239.11-105.63c-66.83,11.51-223.96,83.03-237.85,106.27,1.6,.13,2.88,.33,4.16,.33,37.16,.02,74.33,.17,111.49-.23,3.84-.04,8.67-2.5,11.31-5.41,31.79-35.16,65.42-68.2,105.03-94.68,2.32-1.55,3.93-4.16,5.86-6.28Zm440.72-1.82c-.73,.72-1.45,1.44-2.18,2.16,4.11,3.29,8.15,6.66,12.33,9.86,17.8,13.64,36.74,26.04,53.17,41.17,16.36,15.07,29.96,33.1,45.36,49.27,3.12,3.27,8.85,5.65,13.41,5.71,35.38,.46,70.76,.27,106.14,.22,2.59,0,5.17-.45,8.32-.74-20.28-25.32-162.53-89.74-236.55-107.66Zm46.87,1538.42c-35.84,0-70.88-.12-105.92,.25-2.62,.03-6.6,3.04-7.59,5.59-13.8,35.33-32.48,67.88-54.93,98.36-.67,.91-.38,2.53-.54,3.83,31.36,3.7,165.61-81.33,168.98-108.02Zm-539.02,1.38c3.54,4.56,5.25,7.44,7.58,9.67,44.14,42.16,94,75.32,151.77,95.89,3.75,1.34,7.94,1.43,13.68,2.4-1.79-3.93-2.17-5.3-2.95-6.38-21.9-29.96-39.1-62.51-54.09-96.37-1.42-3.21-7.26-6.27-11.1-6.34-30.85-.51-61.71-.32-92.56-.24-3.27,0-6.53,.69-12.31,1.35Zm154.87-1.39c1.19,4.31,1.5,7.06,2.66,9.4,5.71,11.56,10.42,23.86,17.75,34.32,14.56,20.78,29.84,41.17,46.37,60.39,7.49,8.71,17.68,16.17,31.77,17.55,0-39.22,.13-77-.31-114.77-.03-2.32-4.46-6.54-6.89-6.58-29.74-.46-59.49-.3-91.34-.3Zm135.91,.57v120.62c34.94-4.44,89.08-88.93,95.19-120.62h-95.19Zm-241.61,96.5l1.75-2.72c-2.89-2.56-5.58-5.41-8.71-7.63-33.49-23.72-63.53-51.26-91.24-81.47-2.65-2.88-7.67-4.95-11.64-5.04-22.35-.47-44.72-.22-67.09-.22-13.02,0-26.04,0-39.06,0-.27,1.29-.53,2.58-.8,3.86,67.7,41.62,140.01,72.57,216.79,93.22Zm660.87-93.45c-.42-1.21-.84-2.42-1.27-3.63-35.21,0-70.44-.34-105.64,.38-5.06,.1-11.18,4.2-14.85,8.23-26.25,28.84-55.27,54.44-87.16,76.85-3.97,2.79-7.43,6.29-11.13,9.46,.55,.77,1.09,1.53,1.64,2.3,77.65-20.04,149.8-52.73,218.4-93.59Z"/><path d="M959.16,826.16h481.69v74.72h-339.85v87.47h312.36v69.19h-312.36v100.4h347.19v75.16h-489.03v-406.94Z"/><path d="M745.21,1233.06v-262.59h-161.69v-63.06c8.59,0,17.19,.23,25.78-.04,31.65-1.01,63-4.22,93.02-15.08,21.01-7.59,40.34-18.05,54.73-35.81,3.07-3.79,7-7.83,7.87-12.28,3.24-16.55,13.76-18.08,28.18-17.47,26.92,1.14,53.92,.33,81.64,.33v406h-129.54Z"/></svg>