<svg xmlns="http://www.w3.org/2000/svg" xmlns:xlink="http://www.w3.org/1999/xlink" width="35" height="35" viewBox="0 0 35 35"><path d="M1.879,3.945A4.062,4.062,0,0,1-1.89,1.134,4,4,0,0,0-.154,1.083a.276.276,0,0,0,.06-.028A4.049,4.049,0,0,1-2.727-.8a3.945,3.945,0,0,1-.592-2.152,4.027,4.027,0,0,0,1.8.49A4.077,4.077,0,0,1-3.185-4.924a4.013,4.013,0,0,1,.436-2.933A11.586,11.586,0,0,0,5.6-3.623c-.023-.162-.048-.3-.066-.445a3.928,3.928,0,0,1,.594-2.648,3.884,3.884,0,0,1,2.746-1.83,3.943,3.943,0,0,1,3.545,1.13.207.207,0,0,0,.216.064A8.2,8.2,0,0,0,15-8.259c.016-.01.035-.019.053-.028a.112.112,0,0,1,.028,0,4.145,4.145,0,0,1-1.735,2.2A7.8,7.8,0,0,0,15.6-6.692a.185.185,0,0,1,.016.019c-.155.2-.3.41-.465.607a7.968,7.968,0,0,1-1.471,1.4.132.132,0,0,0-.067.127,11.2,11.2,0,0,1-.076,1.8A11.924,11.924,0,0,1,12.49.865,11.609,11.609,0,0,1,10.3,4.058a10.832,10.832,0,0,1-5.566,3.1,12.082,12.082,0,0,1-2.256.267A11.429,11.429,0,0,1-4,5.688c-.026-.015-.052-.032-.1-.061A8.2,8.2,0,0,0-.048,5.068,8.069,8.069,0,0,0,1.879,3.945" transform="translate(11.742 18.244)"/></svg>
