<svg xmlns="http://www.w3.org/2000/svg" xmlns:xlink="http://www.w3.org/1999/xlink" width="35" height="35" viewBox="0 0 35 35"><g transform="translate(-943 -523)"><path fill="#fff" d="M0,0C-.015.053-.029.1-.041.142-.721,2.806-.8,3.4-1.5,4.633A13.868,13.868,0,0,1-2.617,6.309c-.047.06-.091.139-.185.121s-.11-.114-.121-.2A14.279,14.279,0,0,1-3.07,3.8c.035-1.064.167-1.429,1.538-7.2a.4.4,0,0,0-.032-.241A4.061,4.061,0,0,1-1.67-6.336c.621-1.968,2.851-2.118,3.241-.495.24,1-.395,2.317-.883,4.259C.284-.969,2.17.171,3.782-1,5.269-2.078,5.846-4.663,5.736-6.495c-.216-3.653-4.222-4.442-6.763-3.266C-3.94-8.414-4.6-4.8-3.288-3.152c.168.209.3.338.241.55-.085.332-.16.664-.251.992a.351.351,0,0,1-.52.233,3,3,0,0,1-1.216-.91,5.766,5.766,0,0,1,.041-6.437,7.731,7.731,0,0,1,7.458-3.289A6.315,6.315,0,0,1,8.274-6.794,8.682,8.682,0,0,1,6.68-.691C4.787,1.656,1.719,1.812.3.371.195.261.107.132,0,0" transform="translate(960.036 543.318)"/></g></svg>
