<?xml version="1.0" encoding="UTF-8"?>
<!-- Generator: Adobe Illustrator 25.2.1, SVG Export Plug-In . SVG Version: 6.00 Build 0)  -->
<svg xmlns="http://www.w3.org/2000/svg" xmlns:xlink="http://www.w3.org/1999/xlink" version="1.1" id="Layer_1" x="0px" y="0px" viewBox="0 0 1615 958" style="enable-background:new 0 0 1615 958;" xml:space="preserve">
<style type="text/css">
	.st0{fill:#1D1D1B;}
	.st1{fill-rule:evenodd;clip-rule:evenodd;fill:#1D1D1B;}
</style>
<g>
	<path class="st0" d="M1080.44,696.17c-30.41,0-48.51-15.55-49.57-37.64h28.6c0,6.87,4.31,17.01,22.78,17.34   c12.31,0,18.1-7.22,18.1-12.64c-0.74-8.68-11.57-9.4-23.18-11.22c-11.57-1.83-21.34-3.98-28.57-7.6   c-9.06-4.71-15.22-14.86-15.22-26.41c0-19.56,17.03-35.13,45.26-35.13c27.46,0,44.85,14.48,46.7,35.84h-27.54   c-0.36-5.77-1.44-14.86-17.74-14.86c-10.86,0-18.05,2.21-18.83,9.79c0,11.25,22.83,10.5,40.55,15.2c17,4.34,27.87,14.84,27.87,29.7   C1129.65,685.68,1107.57,696.17,1080.44,696.17"></path>
	<polygon class="st0" points="554.84,514.47 650.06,459.81 700.35,546.68 573.33,546.68  "></polygon>
	<rect x="740.91" y="583.96" class="st0" width="27.16" height="109.68"></rect>
	<path class="st1" d="M511.42,639.33c0,17.02,14.47,31.13,31.49,31.13c17.37,0,31.86-14.11,31.86-31.13   c0-17.01-14.49-31.48-31.86-31.48C525.89,607.84,511.42,622.31,511.42,639.33 M542.17,696.17c-31.11,0-56.82-25.72-56.82-56.85   c0-31.48,25.71-56.46,56.82-56.46c11.95,0,23.18,3.26,32.6,9.79v-8.71h26.77v109.69h-26.77v-7.26   C565.71,692.55,554.49,696.17,542.17,696.17"></path>
	<polygon class="st0" points="907.79,546.68 775.31,316.84 870.52,261.83 1035.21,546.68  "></polygon>
	<path class="st1" d="M637,639.33c0,17.02,14.48,31.13,31.88,31.13c17.01,0,31.47-14.11,31.47-31.13   c0-17.01-14.46-31.48-31.47-31.48C651.48,607.84,637,622.31,637,639.33 M668.15,696.17c-31.49,0-57.18-25.72-57.18-56.85   c0-31.48,25.68-56.46,57.18-56.46c11.94,0,22.81,3.26,32.2,9.79v-45.98h27.14v146.96h-27.14v-7.26   C690.96,692.55,680.09,696.17,668.15,696.17"></path>
	<polygon class="st0" points="665.97,416.72 761.55,362.07 868.31,546.67 768.07,546.67 768.07,573.83 740.91,573.83 740.91,546.67     "></polygon>
	<path class="st1" d="M930.57,639.33c0,17.02,14.49,31.13,31.51,31.13c17,0,31.11-14.11,31.11-31.13   c0-17.01-14.12-31.48-31.11-31.48C945.05,607.84,930.57,622.31,930.57,639.33 M960.98,696.17c-31.11,0-56.84-25.72-56.84-56.85   c0-31.48,25.72-56.46,56.84-56.46c11.98,0,23.15,3.26,32.21,9.79v-8.71h27.17v109.69h-27.17v-7.26   C984.13,692.55,973.29,696.17,960.98,696.17"></path>
	<path class="st1" d="M805.35,639.33c0,17.01,14.45,31.12,31.15,31.12c17.36,0,31.81-14.11,31.81-31.12   c0-17.02-14.45-31.49-31.81-31.49C819.8,607.84,805.35,622.31,805.35,639.33 M868.31,546.68h26.79v146.97h-26.79v-7.26   c-9.03,6.17-20.27,9.79-32.58,9.79c-31.11,0-56.83-25.72-56.83-56.84c0-31.49,25.73-56.47,56.83-56.47   c12.31,0,23.18,3.26,32.58,9.79V546.68z"></path>
</g>
</svg>
