<?xml version="1.0" encoding="UTF-8"?>
<!-- Generator: Adobe Illustrator 25.2.1, SVG Export Plug-In . SVG Version: 6.00 Build 0)  -->
<svg xmlns="http://www.w3.org/2000/svg" xmlns:xlink="http://www.w3.org/1999/xlink" version="1.1" id="Layer_1" x="0px" y="0px" viewBox="0 0 1615 958" style="enable-background:new 0 0 1615 958;" xml:space="preserve">
<g>
	<path d="M421.47,605.43c30.39,0,50.29-18.03,50.29-53.73v-37.5c0-21.28-7.6-35.34-22.43-42.19c13.75-6.49,20.63-20.55,20.63-41.83   v-27.04c0-35.7-19.9-50.13-48.85-50.13h-47.4v252.43H421.47z M407.36,381.49h9.77c13.02,0,19.54,7.94,19.54,24.16v32.45   c0,14.07-7.24,22.36-19.9,22.36h-9.41V381.49z M407.36,487.51h10.49c12.66,0,20.26,8.29,20.26,23.08v41.11   c0,16.95-6.15,25.24-18.82,25.24h-11.94V487.51z M528.86,381.49h10.49c12.67,0,19.18,7.94,19.18,23.44v36.42   c0,15.51-7.59,24.16-19.54,24.16h-10.13V381.49z M593.99,605.43c-1.09-6.49-2.17-17.31-2.9-32.81l-1.45-52.65   c-1.09-21.64-8.69-34.98-22.8-39.67c16.65-6.85,24.97-22.36,24.97-46.52v-29.93c0-35.7-20.26-50.85-50.66-50.85h-45.95v252.43   h33.65V493.28h5.43c14.11,0,20.99,8.29,21.35,24.88l1.09,50.12c0,16.59,1.08,28.85,3.62,37.14H593.99z M706.87,605.43v-29.21   h-55.36v-93.04h35.82v-28.85h-35.82v-72.12h53.91V353h-87.57v252.43H706.87z M856.79,605.43L883.2,353H851l-13.75,159.39   L820.24,353h-32.92l-17.01,159.39L758,353h-34.73l26.78,252.43h36.91l16.28-153.26l15.2,153.26H856.79z M949.76,605.43   c30.03,0,50.29-18.75,50.29-56.61v-139.2c0-37.86-20.26-56.61-50.29-56.61h-45.95v252.43H949.76z M937.46,382.21h7.6   c14.11,0,21.35,9.38,21.35,28.49v137.03c0,19.12-7.24,28.49-21.35,28.49h-7.6V382.21z M1108.3,594.61   c8.68-9.01,13.02-20.91,13.02-36.06V399.88c0-30.29-18.45-49.4-49.21-49.4c-30.76,0-49.21,19.11-49.21,49.4v158.67   c0,15.15,4.34,27.05,13.03,36.06c8.68,9.02,20.62,13.34,36.18,13.34C1087.68,607.95,1099.62,603.62,1108.3,594.61 M1056.92,398.8   c0-12.62,5.06-19.12,15.2-19.12c10.13,0,15.2,6.49,15.2,19.12v160.83c0,12.62-5.06,19.11-15.2,19.11c-10.13,0-15.2-6.49-15.2-19.11   V398.8z M1222.35,605.43h19.54V475.61h-49.93v27.41h18.45v56.61c0,12.62-5.07,19.11-15.56,19.11c-10.49,0-15.56-6.49-15.56-19.11   V398.8c0-12.62,5.07-19.12,15.2-19.12c10.13,0,15.19,6.49,15.19,19.12v38.58h31.48v-37.5c0-30.29-16.65-49.4-46.68-49.4   c-30.76,0-49.21,19.11-49.21,49.4v160.11c0,30.29,16.65,47.96,42.33,47.96c13.03,0,22.44-4.69,28.22-13.7L1222.35,605.43z"></path>
</g>
</svg>
