<?xml version="1.0" encoding="UTF-8"?>
<!-- Generator: Adobe Illustrator 25.2.1, SVG Export Plug-In . SVG Version: 6.00 Build 0)  -->
<svg xmlns="http://www.w3.org/2000/svg" xmlns:xlink="http://www.w3.org/1999/xlink" version="1.1" id="Layer_1" x="0px" y="0px" viewBox="0 0 1615 958" style="enable-background:new 0 0 1615 958;" xml:space="preserve">
<style type="text/css">
	.st0{clip-path:url(#SVGID_2_);}
	.st1{clip-path:url(#SVGID_4_);}
	.st2{clip-path:url(#SVGID_6_);}
</style>
<g>
	<defs>
		<rect id="SVGID_1_" x="0.86" y="0.24" width="1615" height="958"></rect>
	</defs>
	<clipPath id="SVGID_2_">
		<use xlink:href="#SVGID_1_" style="overflow:visible;"></use>
	</clipPath>
	<path class="st0" d="M484.42,480.21h-43.25v-43.64h45.97c21.53,0,32.59,8.15,32.59,21.34   C519.73,472.64,509.25,480.21,484.42,480.21 M441.17,374.3h34.72c23.86,0,33.94,6.79,33.94,21.14c0,14.74-11.25,21.72-29.87,21.72   h-38.79V374.3z M513.32,424.54v-0.58c13.97-4.66,21.53-17.07,21.34-32.39c-0.39-16.88-11.64-37.24-52.76-37.24H408v1.16   c6.6,5.04,8.15,11.45,8.15,18.43v106.88c0,7.18-0.78,13.38-8.15,18.23v1.36h65.18c21.34,0,38.6-0.58,50.63-6.4   c13.97-6.4,21.34-17.46,21.34-33.94C545.14,439.67,531.17,427.83,513.32,424.54"></path>
	<path class="st0" d="M620.59,420.27h-30.26V374.3h30.26c26.19,0,42.29,5.43,42.29,22.11C662.88,415.03,645.23,420.27,620.59,420.27    M681.3,481.37l-29.48-44.81c21.72-6.01,36.46-18.43,36.46-40.54c0-29.09-23.08-41.7-66.92-41.7h-64.2v1.16   c6.79,5.04,8.34,11.25,8.34,18.43v106.88c0,6.98-1.55,13.38-8.34,18.23v1.36h41.32v-1.36c-6.98-4.85-8.15-11.25-8.15-18.23v-41.32   h35.89l25.41,40.54c4.46,7.37,7.76,13.96,4.27,18.81v1.55h42.09v-1.36C690.42,494.76,686.74,489.52,681.3,481.37"></path>
	<path class="st0" d="M942.45,499.02v1.36h41.12v-1.36c-6.79-4.85-7.95-11.25-7.95-18.23v-30.45l21.73-21.53l34.72,51.21   c4.85,7.37,7.57,13.96,3.69,18.81v1.55h43.64v-1.36c-7.57-4.26-11.45-10.28-16.49-17.65l-47.72-69.83l39.38-38.6   c7.95-7.76,13.77-13.77,22.5-17.65v-0.97h-45.78v1.55c1.94,5.24-0.78,11.25-8.34,18.81l-47.33,47.33v-48.11   c0-7.18,1.16-13.38,7.95-18.43v-1.16h-41.12v1.16c6.59,5.04,8.15,11.25,8.15,18.43v106.88   C950.59,487.77,949.04,494.17,942.45,499.02"></path>
	<path class="st0" d="M1143.35,482.44c-25.22,0-48.11-7.76-55.67-23.08h-1.17l1.17,40.15h0.97c3.3-3.49,6.59-4.27,18.04-1.55   c9.12,2.13,19.2,5.24,36.85,5.24c36.85,0,65.17-13.38,65.17-45.39c0-34.53-32.78-39.57-60.71-43.64   c-21.92-3.3-41.9-6.21-41.9-22.11c0-16.68,16.1-21.53,39.77-21.53c25.41,0,41.7,7.56,49.27,22.89h1.17l1.74-40.15h-0.97   c-2.91,4.27-6.98,4.07-16.87,1.75c-9.31-2.14-20.17-5.43-37.24-5.43c-37.05,0-60.52,13-60.52,43.06   c0,34.91,32.39,39.76,59.94,43.84c21.92,3.1,42.48,6.21,42.48,22.89C1184.85,474.29,1173.02,482.44,1143.35,482.44"></path>
	<path class="st0" d="M808.77,407.15c-2.3,6.25-3.56,13.11-3.56,20.35c0,30.11,21.8,53.7,49.64,53.7c27.84,0,49.63-23.59,49.63-53.7   c0-30.11-21.8-53.7-49.63-53.7c-4.34,0-8.53,0.57-12.52,1.66c-5.32-6.81-11.72-12.7-18.99-17.46c9.5-4.13,20.14-6.4,31.51-6.4   c43.15,0,75.68,32.63,75.68,75.9c0,43.26-32.54,75.9-75.68,75.9c-43.15,0-75.69-32.63-75.69-75.9c0-16.56,4.73-31.51,13.03-43.72   l0.21,0.06c1.47,0.61,2.9,1.3,4.28,2.07C796.68,385.91,813.3,394.85,808.77,407.15L808.77,407.15z"></path>
	<path class="st0" d="M823.08,447.85c2.3-6.25,3.56-13.11,3.56-20.35c0-30.12-21.8-53.7-49.64-53.7c-27.84,0-49.63,23.59-49.63,53.7   c0,30.11,21.8,53.7,49.63,53.7c4.34,0,8.53-0.57,12.52-1.66h0c5.33,6.82,11.73,12.7,18.99,17.46c-9.5,4.13-20.14,6.4-31.51,6.4   c-43.15,0-75.68-32.63-75.68-75.9c0-43.27,32.54-75.9,75.68-75.9c43.15,0,75.69,32.63,75.69,75.9c0,16.56-4.73,31.51-13.04,43.72   l-0.21-0.06c-1.47-0.61-2.9-1.3-4.28-2.07C835.16,469.09,818.54,460.14,823.08,447.85z"></path>
</g>
<polygon points="590.01,560.66 621.45,560.66 621.45,569.03 599.05,569.03 599.05,579.96 615.24,579.96 615.24,588.33   599.05,588.33 599.05,599.53 623.07,599.53 623.07,607.9 590.01,607.9 "></polygon>
<polygon points="649.08,560.66 661.09,560.66 681.34,593.46 681.34,560.66 690.11,560.66 690.11,607.9 679.99,607.9 657.85,572.07   657.85,607.9 649.08,607.9 "></polygon>
<g>
	<defs>
		<rect id="SVGID_3_" x="0.86" y="0.24" width="1615" height="958"></rect>
	</defs>
	<clipPath id="SVGID_4_">
		<use xlink:href="#SVGID_3_" style="overflow:visible;"></use>
	</clipPath>
	<path class="st1" d="M742.44,582.19h17.14v17.41c-2.7,4.45-9.31,9.31-18.76,9.31c-13.63,0-23.89-9.99-23.89-24.63   c0-14.37,9.99-24.62,23.89-24.62c7.02,0,13.23,2.76,16.87,7.42l-5.94,5.54c-2.5-2.9-6.28-4.59-10.73-4.59   c-8.5,0-14.51,6.68-14.51,16.2c0,9.72,6.01,16.33,14.38,16.33c3.91,0,8.1-1.75,10.19-4.11v-6.28h-8.64V582.19z"></path>
</g>
<polygon points="787.09,560.66 796.13,560.66 796.13,599.53 820.83,599.53 820.83,607.9 787.09,607.9 "></polygon>
<path d="M872.16,587.73l-5.53-13.77l-5.53,13.77H872.16z M874.99,596.09h-16.74l-4.99,11.81h-9.78l19.97-47.23h6.34l19.98,47.23  h-9.79L874.99,596.09z"></path>
<polygon points="913.95,560.66 925.96,560.66 946.2,593.46 946.2,560.66 954.97,560.66 954.97,607.9 944.85,607.9 922.72,572.07   922.72,607.9 913.95,607.9 "></polygon>
<g>
	<defs>
		<rect id="SVGID_5_" x="0.86" y="0.24" width="1615" height="958"></rect>
	</defs>
	<clipPath id="SVGID_6_">
		<use xlink:href="#SVGID_5_" style="overflow:visible;"></use>
	</clipPath>
	<path class="st2" d="M993.37,599.94h4.92c12.35,0,19.23-4.12,19.23-15.66c0-11.4-6.88-15.65-19.23-15.65h-4.92V599.94z    M1026.7,584.28c0,16.94-11.41,23.62-27.4,23.62h-14.98v-47.23h14.98C1015.3,560.66,1026.7,567.35,1026.7,584.28"></path>
	<path class="st2" d="M477.48,576.62c0-1.71-0.11-2.03-0.8-2.03c-0.53,0-2.19,0.53-4.22,0.59v-0.64c2.51-0.69,6.15-2.94,10.1-5.93   h0.75v26.77c0,3.31,0.53,4.06,3.21,4.6v0.69h-12.34v-0.69c3.15-0.48,3.31-1.87,3.31-4.6V576.62z"></path>
	<path class="st2" d="M517.91,582.34c2.19-2.19,2.78-3.42,2.78-5.66c0-3.69-2.4-6.47-5.72-6.47c-2.51,0-4.54,2.03-4.54,4.38   C510.43,576.99,512.89,579.45,517.91,582.34 M515.88,599.86c2.83,0,5.29-2.19,5.29-4.65c0-3.58-3.69-6.25-7.69-8.44   c-2.62,1.93-3.69,3.9-3.69,6.63C509.79,597.08,512.46,599.86,515.88,599.86 M519.62,583.51c4.81,3.31,6.25,5.39,6.25,8.81   c0,4.17-2.78,9.14-10.79,9.14c-5.72,0-9.62-3.15-9.62-7.69c0-3.26,1.76-5.99,6.57-8.07c-4.17-2.72-5.72-4.91-5.72-8.17   c0-5.23,4.01-8.92,9.57-8.92c5.23,0,8.87,3.05,8.87,7.54C524.75,578.97,523.47,580.68,519.62,583.51"></path>
	<path class="st2" d="M1098.62,585.64c-1.6,0-3.05,0.59-4.44,1.82c-0.16,0.91-0.16,1.39-0.16,2.4c0,6.03,2.19,9.45,5.13,9.45   c2.51,0,4.54-3.04,4.54-6.73C1103.69,589.76,1102.36,585.64,1098.62,585.64 M1107.11,568.86c-8.66,1.34-12.34,9.4-12.56,15.87   c2.4-1.17,4.59-1.76,6.62-1.76c4.7,0,8.33,3.63,8.33,8.39c0,5.5-4.54,9.57-10.63,9.57c-6.73,0-11.33-5.02-11.33-12.34   c0-11.59,9.3-20.41,19.56-20.41V568.86z"></path>
	<path class="st2" d="M1137.28,585.64c-1.6,0-3.05,0.59-4.43,1.82c-0.16,0.91-0.16,1.39-0.16,2.4c0,6.03,2.19,9.45,5.13,9.45   c2.51,0,4.54-3.04,4.54-6.73C1142.36,589.76,1141.02,585.64,1137.28,585.64 M1145.78,568.86c-8.66,1.34-12.34,9.4-12.56,15.87   c2.4-1.17,4.6-1.76,6.62-1.76c4.7,0,8.34,3.63,8.34,8.39c0,5.5-4.54,9.57-10.63,9.57c-6.73,0-11.33-5.02-11.33-12.34   c0-11.59,9.3-20.41,19.56-20.41V568.86z"></path>
</g>
</svg>
