<?xml version="1.0" encoding="UTF-8"?>
<!-- Generator: Adobe Illustrator 25.2.1, SVG Export Plug-In . SVG Version: 6.00 Build 0)  -->
<svg xmlns="http://www.w3.org/2000/svg" xmlns:xlink="http://www.w3.org/1999/xlink" version="1.1" id="Layer_1" x="0px" y="0px" viewBox="0 0 1615 958" style="enable-background:new 0 0 1615 958;" xml:space="preserve">
<g>
	<path d="M1353.02,401.6c0,0-0.47,88.16,0.25,102.83h-0.43c-4.72-11.77-64.51-102.83-64.51-102.83h-37.67v155.27h30.16   c0,0,0.46-95.92-0.27-109.55h0.43c4.77,10.9,70.24,109.55,70.24,109.55h0.18h31.75V401.6H1353.02z"></path>
	<path d="M622.04,493.8l11.81-31.87c3.46-9.41,6.53-16.84,9.77-28.13h0.22c2.39,9.88,6.71,20.19,9.56,28.13l11.57,31.87H622.04z    M720.81,556.87l-48.25-126.69v-0.82h-0.31l-10.57-27.76h-35.04l-59.57,155.27h31.97l12.92-35.48h63.07l12.92,35.48H720.81z"></path>
</g>
<polygon points="512.33,556.87 512.33,492.49 444.66,492.49 444.66,556.87 414.44,556.87 414.44,401.6 444.66,401.6 444.66,464.02   512.33,464.02 512.33,401.6 542.78,401.6 542.78,556.87 "></polygon>
<g>
	<path d="M965.32,528.84c25.4,0,46.65-15.77,46.65-49.49c0-33.73-21.02-49.71-46.43-49.71h-24.31v99.21H965.32z M911.01,556.87   V401.6h55.62c44.24,0,76.65,28.69,76.65,77.74c0,49.06-32.63,77.52-76.87,77.52H911.01z"></path>
	<path d="M1144.46,530.82c24.09,0,48.62-16.65,48.62-51.69c0-35.04-24.53-51.68-48.62-51.68c-23.87,0-48.4,16.64-48.4,51.68   C1096.06,514.17,1120.58,530.82,1144.46,530.82 M1144.46,398.32c42.27,0,79.93,30.88,79.93,81.03c0,49.93-37.67,80.81-79.93,80.81   c-42.05,0-79.72-30.88-79.72-80.81C1064.74,429.2,1102.41,398.32,1144.46,398.32"></path>
	<path d="M384.88,507.38L384.88,507.38l-28.25-8.54c-4.16,14.45-17.08,31.75-43.58,31.75c-24.97,0-48.18-18.18-48.18-51.25   c0-35.26,24.53-51.9,47.74-51.9c26.94,0,38.98,16.42,42.71,31.32l31.24-9.85c-9.78-29.66-34.63-50.59-72.09-50.59   c-0.27,0-0.53,0.02-0.8,0.02c-0.36,0-0.7-0.02-1.06-0.02c-41.11,0-78.14,30.8-79.02,79.28c-0.01,0.57-0.04,1.12-0.04,1.69   c0,0.02,0,0.04,0,0.06c0,49.49,36.13,80.81,79.5,80.81c0.26,0,0.52-0.01,0.78-0.02c0.22,0,0.43,0.02,0.64,0.02   c39.85,0,63.92-21.62,72.83-52.05L384.88,507.38z"></path>
	<path d="M847.47,401.6c0,0-0.47,88.16,0.25,102.83h-0.43c-4.72-11.77-64.51-102.83-64.51-102.83h-37.67v155.27h30.16   c0,0,0.46-95.92-0.27-109.55h0.43c4.77,10.9,70.24,109.55,70.24,109.55h0.18h31.75V401.6H847.47z"></path>
</g>
</svg>
