<?xml version="1.0" encoding="UTF-8"?>
<!-- Generator: Adobe Illustrator 25.2.1, SVG Export Plug-In . SVG Version: 6.00 Build 0)  -->
<svg xmlns="http://www.w3.org/2000/svg" xmlns:xlink="http://www.w3.org/1999/xlink" version="1.1" id="Layer_1" x="0px" y="0px" viewBox="0 0 1615 958" style="enable-background:new 0 0 1615 958;" xml:space="preserve">
<style type="text/css">
	.st0{fill:#2A2522;}
</style>
<g>
	<path class="st0" d="M595.73,441.7c-11.92,0-21.92,7.56-27.14,20.35v-19.9h-10.96v83.1h10.96v-58.04   c4-9.31,12.25-14.21,22.09-14.21c2.36,0,4.42,0.21,6.27,0.62l1.14,0.27v-12.08l-0.88-0.06C596.7,441.73,596.22,441.7,595.73,441.7"></path>
	<path class="st0" d="M426.02,440.7c-13.4,0-24.45,7.4-29.38,19.94v-65.11h-10.95v129.72h10.95v-58.77   c4.26-11.52,14.02-17.74,26.14-17.74c6.33,0,11.5,1.96,15,5.7c4.04,4.4,5.6,10.83,5.6,22.92v47.89h10.96v-49.7   c0-14.03-2.2-21.98-7.61-27.43C441.9,443.26,434.74,440.7,426.02,440.7"></path>
</g>
<rect x="612.61" y="395.53" class="st0" width="10.96" height="129.72"></rect>
<g>
	<path class="st0" d="M679.89,521.85c-20.19,0-30.75-19.21-30.75-38.2c0-18.88,10.56-38,30.75-38c20.21,0,30.76,19.12,30.76,38   c0,9.6-2.84,19.08-7.8,26.04C698.92,515.23,691.74,521.85,679.89,521.85 M679.89,440.59c-25.19,0-42.13,17.31-42.13,43.06   c0,25.86,16.94,43.24,42.13,43.24c24.81,0,42.14-17.77,42.14-43.24C722.03,457.9,705.1,440.59,679.89,440.59"></path>
	<path class="st0" d="M829.51,515.27c-4.33,2.91-9.21,4.57-14.35,4.57c-8.39,0-11.82-3.84-11.82-13.26v-59.02   c19.21,0.11,29.63,0.66,32.55,0.83l1.81,0.07l-3.61-6.34h-30.75v-26.74l-10.57,8.59l-0.39,0.28v17.87h-36.4v-26.75l-10.6,8.6   l-0.36,0.29v17.86h-18.51l-4.71,7.16l1.88-0.11c0.07-0.02,8.82-0.61,21.34-1.08v60.32c0,11.93,6.57,18.49,18.49,18.49   c7.54,0,14.11-3.16,20.06-9.73l0.49-0.55l-1.24-1.86l-0.77,0.51c-4.34,2.91-9.18,4.57-14.3,4.57c-8.37,0-11.77-3.83-11.77-13.22   v-58.87l2.36-0.08c4.31-0.14,8.77-0.26,13.32-0.28l17.38-0.07l3.34,0.04v61.02c0,11.95,6.59,18.52,18.54,18.52   c7.57,0,14.16-3.16,20.14-9.73l0.47-0.55l-1.24-1.86L829.51,515.27z"></path>
	<path class="st0" d="M902.68,468.72h-51.1c3.77-14.43,14.01-22.71,28.19-22.71C890.39,446.01,901.93,451.99,902.68,468.72    M914.16,473.85l-0.09-1.01c-1.52-19.61-15.12-32.26-34.64-32.26c-23.67,0-40.83,17.57-40.83,41.78   c0,26.64,16.48,44.53,41.01,44.53c14.69,0,25.58-5.28,33.29-16.17l0.48-0.64l-1.58-1.54l-0.64,0.66   c-8.51,8.67-21.13,9.95-27.89,9.95c-20.22,0-33.29-14.55-33.29-37.12c0-3.11,0.17-5.79,0.52-8.18H914.16z"></path>
</g>
<rect x="1034.05" y="395.64" class="st0" width="10.94" height="129.69"></rect>
<g>
	<path class="st0" d="M1132.09,483.75c0,22.16-12.24,35.93-31.94,35.93c-7.59,0-16.62-2.73-22.59-6.8v-57.15   c6.36-5.24,16-7.61,22.75-7.61C1119.92,448.12,1132.09,461.97,1132.09,483.75 M1103.82,440.9c-9.74,0-19.9,4.61-26.26,11.83v-57.18   h-10.96v129.7h10.96v-9.64c7.46,7.49,16.46,11.26,26.76,11.26c23.43,0,39.17-17.31,39.17-43.12   C1143.49,458.71,1127.17,440.9,1103.82,440.9"></path>
	<path class="st0" d="M1212.16,502.18c-4.05,9.98-13.8,16.67-24.29,16.67c-16.77,0-19.89-11.52-19.89-21.19v-55.52h-10.97v55.67   c0,19.03,9.57,29.08,27.68,29.08c12.65,0,22.31-6.72,27.47-19.03v17.36h10.96v-83.08h-10.96V502.18z"></path>
	<path class="st0" d="M1279.07,441.96c-0.51-0.04-1-0.04-1.49-0.04c-12.29,0-22.56,7.57-27.92,20.4v-20.18h-10.96v83.1h10.96v-57.9   c4.98-11.17,15.13-13.35,22.77-13.74c6.62-0.37,10.3,1.33,11.5,2.03l2.5,1.43l-6.8-15.07L1279.07,441.96z"></path>
</g>
<rect x="1001.49" y="442.15" class="st0" width="10.97" height="83.1"></rect>
<polygon class="st0" points="1000.87,422.97 1000.98,422.74 1006.96,412.03 1013.08,422.97 1012.97,423.2 1006.96,433.93 "></polygon>
<g>
	<path class="st0" d="M1013.58,396.29l-0.27-0.56H906.78l-4.92,7.83c0,0,29.91-1.33,54.67-1.33v123.03h10.97V402.23   c26.79-0.21,50.36,1.34,50.36,1.34L1013.58,396.29z"></path>
	<path class="st0" d="M1374.11,442.15h-9.73l-28.83,64.49l-28.54-64.49h-12.46l34.96,78.06l-1.56,3.12   c-11.56,22.95-22.73,41.41-22.73,41.41h12.48l25.65-56.07l29.82-65.21L1374.11,442.15z"></path>
	<path class="st0" d="M361.98,491.17c-8.49,15.27-21.47,26.68-39.11,29.91c-18.54,3.4-38.79-3.22-51.06-17.47   c-12.58-14.58-18.72-34.4-15.37-53.33c3.2-18.13,14.18-34.93,30.35-43.94c11.8-6.59,27.68-8,40.61-4.14   c12.36,3.66,23.39,12.86,30.48,23.53c2.84-2.27,6-4.53,8.84-6.81c-24.94-30.48-70.4-33.11-99.59-8.84   c-13.6,11.32-23.19,28.51-24.37,46.39c-1.21,18.51,4.75,36.41,17.18,50.11c30.8,34.04,89.68,28.69,113.14-11.22   C369.38,493.97,365.67,492.57,361.98,491.17"></path>
	<path class="st0" d="M498.3,522.4c-7,0-13.59-3.38-16.39-10.02c-2.57-6.16-2.03-14,1.85-19.5c4.3-6.09,11.66-9.49,18.27-12.38   c6.36-2.74,14.93-5.11,19.32-10.93c0.03,1.34,0.03,26.25,0.03,26.25c0,3.14,0.17,6.1,0.54,8.81   C519.16,513.47,510.17,522.4,498.3,522.4 M538.43,521.27c-5.56-3.78-5.33-13.8-5.33-19.56v-32.84   c0.66-14.36-5.25-21.42-15.25-25.71c-16.12-6.9-37.98-0.32-44.73,16.67l10.55,4.34c2.03-7.34,4.99-12.94,10.51-15.87   c5.34-2.82,12.67-3.58,18.32-1.19c8.08,3.42,11.82,15.67,4.37,21.61c-3.86,3.07-8.83,4.75-13.39,6.43   c-5.51,2.05-11.06,3.93-16.41,6.34c-8.13,3.64-16.58,8.84-18.45,18.24c-1.24,6.29,0.08,13.29,4.16,18.32   c4.32,5.33,11.04,7.91,17.71,8.67c13.32,1.49,26.52-3.63,32.72-15.95c1.53,5.28,4.41,10.72,9.56,13.22   c3.82,1.86,10.26,2.36,13.39-1.11l0.1-0.12v-2.09C544.03,522.79,540.91,523.09,538.43,521.27   C538.24,521.15,539.52,522.06,538.43,521.27"></path>
</g>
</svg>
