<?xml version="1.0" encoding="UTF-8"?>
<svg xmlns="http://www.w3.org/2000/svg" xmlns:xlink="http://www.w3.org/1999/xlink" width="387" height="230" viewBox="0 0 387 230">
  <defs>
    <clipPath id="b">
      <rect width="387" height="230"></rect>
    </clipPath>
  </defs>
  <g id="a" clip-path="url(#b)">
    <path d="M0,0C8.1.412,15.9,6.859,18.957,14.909,12.663,13.37,6.507,10.471,2.591,4.243,1.851,2.732.874,1.43,0,0" transform="translate(130.456 98.708)" fill="#2b2e34"></path>
    <path d="M0,0C7.812,2.86,12.686,11.825,13.331,20.039,8.269,17.3,3.39,12.069,1.557,6.333.9,4.3.748,2.044,0,0" transform="translate(132.298 83.684)" fill="#2b2e34"></path>
    <path d="M0,0C6.943,4.69,11.412,12.494,10.679,21.355l-.3,0C3.431,16.146.17,8.5,0,0" transform="translate(132.829 68.025)" fill="#2b2e34"></path>
    <path d="M0,0,.25,0C4.363,6.995,7.02,16.452,3.672,24.8-1.6,18.265-3.956,8,0,0" transform="translate(141.488 54.372)" fill="#2b2e34"></path>
    <path d="M0,0C8.689.017,16.628,6.331,20.239,14.669,12.162,12.961,3.377,8.942,0,0" transform="translate(140.597 113.791)" fill="#2b2e34"></path>
    <path d="M0,0A11.444,11.444,0,0,1-4.609,1.4c-7.732,1.073-14.47-1.741-20.6-5.248C-17.26-8.381-6.731-5.258,0,0" transform="translate(166.921 134.465)" fill="#2b2e34"></path>
    <path d="M0,0,.234.422C-.072,7.327-1.7,13.88-6.577,18.664-7.61,19.519-8.4,20.8-9.3,21.39-10.111,12.7-7.678,3.943,0,0" transform="translate(154.584 72.833)" fill="#2b2e34"></path>
    <path d="M0,0,.2,0C1.791,4.714,3.022,10.156,1.717,15.556a30.084,30.084,0,0,1-3.463,8.819C-5.221,17.252-5.141,6.413,0,0" transform="translate(150.82 42.262)" fill="#2b2e34"></path>
    <path d="M0,0C-2.716,5.852-7.25,12.354-13.157,15.231a22.383,22.383,0,0,0-4.9,2.278C-15.8,9.284-8.707.515,0,0" transform="translate(165.838 57.173)" fill="#2b2e34"></path>
    <path d="M0,0C5.656,5.992,6.442,15.767,4.137,23.671-1.077,17.53-3.579,7.995,0,0" transform="translate(149.321 92.94)" fill="#2b2e34"></path>
    <path d="M0,0,2.217-2.12c.165,9.094-4.46,17.736-12.51,21.655l-.123-.193C-9.012,11.962-6.534,4.638,0,0" transform="translate(163.934 41.008)" fill="#2b2e34"></path>
    <path d="M0,0A4.85,4.85,0,0,1,2.074,1.414c-6.866,5.157-17.055,4.934-24.93,2.2A26.609,26.609,0,0,1,0,0" transform="translate(177.35 138.154)" fill="#2b2e34"></path>
    <path d="M0,0A13.189,13.189,0,0,1,.1,1.764C-8.057-2.525-11.72-12.129-12.98-20.958-5.247-17.374-1-8.415,0,0" transform="translate(169.516 132.06)" fill="#2b2e34"></path>
    <path d="M0,0,.889.214C9.495-3.071,22.1-4.818,29.189,2.763,22.318,5.542,13.6,3.9,7.267.88,6.052.372,4.536-.385,3.318.473c-.264.19-.578.255-.721.584C5.621,3.571,7.783,7.542,11,9.617a4.579,4.579,0,0,1-1.169,1.338C5.01,9.51,5.377,3.062.618,1.563c-1.629.449-2.851,2.117-4.036,3.392-1.5,1.717-2.666,3.764-4.119,5.42-.9.257-1.56-.5-2.27-1l.42-.665C-6.739,6.052-3.763,3.6-1.051,1.129-.858.8-1.165.516-1.4.39l-1.225.1C-9.2,3.638-17.138,7.9-24.521,3.834-18.292-2.369-7.848-3.654,0,0" transform="translate(192.436 143.93)" fill="#2b2e34"></path>
    <path d="M0,0C8.415.5,15.718,7.064,19.217,15.057a7.515,7.515,0,0,1-3.171-.329C9.232,13.032,3.141,6.694-.124.193Z" transform="translate(170.579 126.187)" fill="#2b2e34"></path>
    <path d="M0,0C-2.91,9.156-12.448,14.416-20.523,16.287-17.233,7.213-8.325,1.8,0,0" transform="translate(216.442 125.185)" fill="#2b2e34"></path>
    <path d="M0,0C.7.424,1.53.652,1.945,1.261-5.5,3.768-15.684,6.3-22.741,1-16.791-4.093-6.566-3.791,0,0" transform="translate(231.665 137.857)" fill="#2b2e34"></path>
    <path d="M0,0C7.818.956,15.335,6.578,18.767,14.445A24.276,24.276,0,0,1-.128.141Z" transform="translate(217.822 55.589)" fill="#2b2e34"></path>
    <path d="M0,0C.51-.187.853-.934,1.432-1.063A23.4,23.4,0,0,1-11.089,21.091l-.244-.07C-10.484,12.619-7.348,4.35,0,0" transform="translate(228.857 111.572)" fill="#2b2e34"></path>
    <path d="M0,0C-6.383,6.94-15.648,7.933-24.7,6.412-18.458-.657-8.964-1.9,0,0" transform="translate(245.589 127.038)" fill="#2b2e34"></path>
    <path d="M0,0C4.888,6.341,6.485,16.52,2.539,23.978-2.278,17.578-2.819,7.608,0,0" transform="translate(230.615 38.403)" fill="#2b2e34"></path>
    <path d="M0,0A20.542,20.542,0,0,1-2.919,5.644c-4.06,6.647-10.824,9.769-17.312,11.421C-17.391,7.9-8.087,2.242,0,0" transform="translate(248.318 109.269)" fill="#2b2e34"></path>
    <path d="M0,0A21.633,21.633,0,0,1,11.9,20.695C4.5,16.556.925,8.154,0,0" transform="translate(229.393 69.688)" fill="#2b2e34"></path>
    <path d="M0,0C2.1,3.907,2.451,9.6,1.474,14.476a34.251,34.251,0,0,1-5.5,12.106C-7.258,17.636-4.071,7.6,0,0" transform="translate(236.777 88.799)" fill="#2b2e34"></path>
    <path d="M0,0H.192C5.32,6.871,5.633,18.065,1.987,25.784A33.5,33.5,0,0,1-1.021,18.61C-2.774,12.969-2.755,5.167,0,0" transform="translate(238.719 49.936)" fill="#2b2e34"></path>
    <path d="M0,0C1.719-.439,3.382-1.014,5.07-1.528,2.049,6.758-6.005,15.162-14.819,15.327-11.885,9.086-6.492,2.265,0,0" transform="translate(251.473 95.835)" fill="#2b2e34"></path>
    <path d="M0,0A29.714,29.714,0,0,1,6.885-6.455C7.419,2.854,2.509,10.764-4.794,16l-.135-.084A26.437,26.437,0,0,1,0,0" transform="translate(245.187 85.896)" fill="#2b2e34"></path>
    <path d="M0,0C1.624,8.352-.111,17.271-6.471,22.938L-8.344,24.72A28.6,28.6,0,0,1-5.687,6.674,21.944,21.944,0,0,1,0,0" transform="translate(251.255 60.807)" fill="#2b2e34"></path>
    <path d="M0,0H12.461V3.347H3.9V7.529h7.42v3.093H3.9V18.1H0Z" transform="translate(120.175 173.497)" fill="#2b2e34"></path>
    <path d="M0,0H9.558a4.918,4.918,0,0,1,5.188,4.994,4.458,4.458,0,0,1-2.805,4.537v.051c1.91.507,2.458,2.407,2.58,4.234.075,1.14.051,3.269.746,4.284h-3.9a20.315,20.315,0,0,1-.619-4.336c-.275-1.9-.992-2.737-2.956-2.737H3.9V18.1H0ZM3.9,8.188h4.27c1.738,0,2.681-.76,2.681-2.585,0-1.749-.943-2.509-2.681-2.509H3.9Z" transform="translate(134.149 173.497)" fill="#2b2e34"></path>
    <path d="M0,0H13.256V3.347H3.9V7.224h8.588v3.094H3.9v4.435h9.556V18.1H0Z" transform="translate(151.158 173.497)" fill="#2b2e34"></path>
    <path d="M0,0H7.645c4.593,0,8.043,2.942,8.043,8.949,0,5.247-2.632,9.151-8.043,9.151H0ZM3.9,14.753H7.372c2.259,0,4.419-1.419,4.419-5.426,0-3.649-1.241-5.98-5.114-5.98H3.9Z" transform="translate(166.25 173.497)" fill="#2b2e34"></path>
    <path d="M0,0H7.994c4.418,0,6.13,2.864,6.13,5.8s-1.712,5.8-6.13,5.8H3.9V18.1H0ZM3.9,8.518H6.925c1.813,0,3.426-.4,3.426-2.713S8.738,3.094,6.925,3.094H3.9Z" transform="translate(186.952 173.497)" fill="#2b2e34"></path>
    <path d="M0,0H13.255V3.347H3.9V7.224h8.589v3.094H3.9v4.435h9.559V18.1H0Z" transform="translate(202.887 173.497)" fill="#2b2e34"></path>
    <path d="M0,0H9.557a4.918,4.918,0,0,1,5.188,4.994,4.459,4.459,0,0,1-2.806,4.537v.051c1.912.507,2.459,2.407,2.583,4.234.074,1.14.049,3.269.745,4.284h-3.9a20.44,20.44,0,0,1-.62-4.336c-.274-1.9-.992-2.737-2.955-2.737H3.9V18.1H0ZM3.9,8.188h4.27c1.737,0,2.681-.76,2.681-2.585,0-1.749-.944-2.509-2.681-2.509H3.9Z" transform="translate(217.98 173.497)" fill="#2b2e34"></path>
    <path d="M0,0H9.557a4.919,4.919,0,0,1,5.188,4.994,4.458,4.458,0,0,1-2.8,4.537v.051c1.91.507,2.456,2.407,2.58,4.234.073,1.14.05,3.269.744,4.284h-3.9a20.245,20.245,0,0,1-.622-4.336c-.274-1.9-.993-2.737-2.955-2.737H3.9V18.1H0ZM3.9,8.188H8.167c1.738,0,2.679-.76,2.679-2.585,0-1.749-.941-2.509-2.679-2.509H3.9Z" transform="translate(234.873 173.497)" fill="#2b2e34"></path>
    <path d="M0,0-6.53-11.053h4.4L2.012-3.9l4.119-7.149h4.345L3.9.1V7.047H0Z" transform="translate(256.349 184.55)" fill="#2b2e34"></path>
  </g>
</svg>
