<?xml version="1.0" encoding="UTF-8"?>
<!-- Generator: Adobe Illustrator 25.2.1, SVG Export Plug-In . SVG Version: 6.00 Build 0)  -->
<svg xmlns="http://www.w3.org/2000/svg" xmlns:xlink="http://www.w3.org/1999/xlink" version="1.1" id="Layer_1" x="0px" y="0px" viewBox="0 0 1615 958" style="enable-background:new 0 0 1615 958;" xml:space="preserve">
<polygon points="462.04,527.01 503.56,527.01 503.56,515.38 462.04,515.38 462.04,490.58 506.08,490.58 506.08,478.69   448.92,478.69 448.92,566.77 507.88,566.77 507.88,554.76 462.04,554.76 "></polygon>
<polygon points="301.99,566.89 314.92,566.89 314.92,527.04 354.92,527.04 354.92,515.42 314.92,515.42 314.92,490.52   357.55,490.52 357.55,478.72 301.99,478.72 "></polygon>
<g>
	<path d="M384.77,490.22h15.78c8.84,0,19.38,2.51,19.38,14.51c0,9-6.84,14.17-18.76,14.17h-16.4V490.22z M433.38,503.58   c0-5.86-1.29-24.97-31.34-24.97h-30.41v88.28h13.14V530.4h15.71l21.85,36.49h16.41l-24.25-38.03   C424.31,526.2,433.38,518.28,433.38,503.58"></path>
	<path d="M693.82,489.94h16.13c8.84,0,19.55,2.53,19.55,14.57c0,9.04-6.84,14.22-18.76,14.22h-16.92V489.94z M742.95,503.34   c0-5.88-1.29-25.06-31.34-25.06h-30.93v88.6h13.13v-36.62h16.07l22.02,36.62h16.41l-24.25-38.16   C733.88,526.06,742.95,518.1,742.95,503.34"></path>
	<path d="M534.31,490.46h14.22c21.44,0,34.77,12.37,34.77,32.27c0,19.53-13.65,32.15-34.77,32.15h-14.22V490.46z M550.92,478.69   h-29.65v88.08h29.65c22.99,0,46.26-15.12,46.26-44.04C597.18,492.3,573.94,478.69,550.92,478.69"></path>
</g>
<polygon points="621.27,527.01 662.79,527.01 662.79,515.38 621.27,515.38 621.27,490.58 665.31,490.58 665.31,478.69   608.15,478.69 608.15,566.77 667.12,566.77 667.12,554.76 621.27,554.76 "></polygon>
<rect x="760.04" y="478.96" width="13.36" height="88.07"></rect>
<g>
	<path d="M857.07,545.69c-4.86,7.17-13.03,11.27-22.43,11.27c-18.55,0-32.04-14.12-32.04-34.36c0-19.83,13.93-34.23,32.39-34.23   c8.28,0,16.61,3.98,20.75,9.92l0.36,0.53l10.38-8.11l-0.34-0.47c-5.94-8.35-18.17-13.75-31.16-13.75   c-26.72,0-46.12,19.4-46.12,46.12c0,26.87,19.19,46.37,45.64,46.37c13.91,0,25.66-5.67,33.09-15.96l0.36-0.5l-10.55-7.32   L857.07,545.69z"></path>
</g>
<polygon points="960.48,544.68 934.76,478.69 914.84,478.69 914.84,566.77 927.84,566.77 927.84,496.09 955.77,566.77   964.33,566.77 992.38,496.09 992.38,566.77 1005.74,566.77 1005.74,478.69 985.82,478.69 "></polygon>
<path d="M1076.82,533.53h-30.72l15.42-38.49L1076.82,533.53z M1055.97,478.69l-38.19,88.08h14.83l8.71-21.35h40.41l8.84,21.35h15.07  l-37.82-88.08H1055.97z"></path>
<polygon points="1200.32,478.35 1186.17,478.35 1186.17,567.1 1240.46,567.1 1240.46,553.68 1200.32,553.68 "></polygon>
<polygon points="1130.77,478.35 1116.62,478.35 1116.62,567.1 1170.91,567.1 1170.91,553.68 1130.77,553.68 "></polygon>
<polygon points="1268.42,554.76 1268.42,527.01 1308.55,527.01 1308.55,515.38 1268.42,515.38 1268.42,490.58 1311.07,490.58   1311.07,478.69 1255.3,478.69 1255.3,566.76 1312.88,566.76 1312.88,554.76 "></polygon>
<polygon points="301.99,460.47 343.95,460.47 343.95,450.05 313.5,450.05 313.5,430.39 343.04,430.39 343.04,419.97 313.5,419.97   313.5,401.59 343.95,401.59 343.95,391.16 301.99,391.16 "></polygon>
<polygon points="822.95,460.47 864.9,460.47 864.9,450.05 834.46,450.05 834.46,430.39 863.99,430.39 863.99,419.97 834.46,419.97   834.46,401.59 864.9,401.59 864.9,391.16 822.95,391.16 "></polygon>
<g>
	<path d="M366.28,401.32h11.87c20.94,0,23.2,16.94,23.2,24.22c0,12.33-6.71,24.78-21.68,24.78h-13.39V401.32z M379.13,391.17h-24.15   v69.3h25.85c19,0,32.28-14.32,32.28-34.83C413.1,403.73,400.72,391.17,379.13,391.17"></path>
	<path d="M765.86,401.32h11.87c20.94,0,23.2,16.94,23.2,24.23c0,12.33-6.7,24.78-21.68,24.78h-13.39V401.32z M778.71,391.17h-24.16   v69.3h25.85c19,0,32.28-14.32,32.28-34.83C812.68,403.73,800.3,391.17,778.71,391.17"></path>
</g>
<rect x="422.89" y="391.17" width="11.51" height="69.3"></rect>
<polygon points="445.65,401.59 465.01,401.59 465.01,460.47 476.52,460.47 476.52,401.59 495.88,401.59 495.88,391.17   445.65,391.17 "></polygon>
<rect x="507.39" y="391.17" width="11.52" height="69.3"></rect>
<g>
	<path d="M563.81,400.23c16.44,0,22.27,13.83,22.27,25.59c0,10.26-5.93,25.59-22.27,25.59c-16.34,0-22.27-15.33-22.27-25.59   C541.54,414.06,547.37,400.23,563.81,400.23 M563.81,389.81c-19.78,0-34.13,15.2-34.13,36.01c0,21.15,14.04,36.02,34.13,36.02   c19.77,0,34.12-15.19,34.12-36.02C597.93,404.67,583.89,389.81,563.81,389.81"></path>
</g>
<polygon points="652.01,441.6 619.87,391.39 619.73,391.17 607.85,391.17 607.85,460.47 618.88,460.47 618.88,409.68 651.43,460.47   663.04,460.47 663.04,391.17 652.01,391.17 "></polygon>
<g>
	<path d="M910.21,401.32h10.04c8.12,0,12.96,4.37,12.96,11.69c0,7.37-4.86,11.6-13.32,11.6h-9.68V401.32z M921.52,391.17h-22.82   v69.3h11.51v-25.71h11.22c11.39,0,23.56-5.71,23.56-21.75C944.99,396.9,932.87,391.17,921.52,391.17"></path>
</g>
<path d="M980.68,433.69h-18.77l9.38-27.87L980.68,433.69z M977.15,391.17h-11.37l-25.2,69.3h12.35l5.61-16.9h25.47l5.61,16.9h12.53  l-24.9-68.98L977.15,391.17z"></path>
<g>
	<path d="M1021.93,401.32h10.5c8.9,0,13.42,3.57,13.42,10.6c0,6.68-4.72,10.51-12.97,10.51h-10.96V401.32z M1057.63,411.1   c0-9.64-6.17-19.93-23.47-19.93h-23.75v69.3h11.52V432.3h9.94l15.17,28.16h13.85l-17.19-29.63   C1052.06,428.29,1057.63,420.44,1057.63,411.1"></path>
</g>
<polygon points="1069.01,460.47 1080.52,460.47 1080.52,430.39 1108.51,430.39 1108.51,419.97 1080.52,419.97 1080.52,401.59   1109.23,401.59 1109.23,391.16 1069.01,391.16 "></polygon>
<g>
	<path d="M1162.77,433.27c0,11.47-5.75,18.05-15.78,18.05c-10.26,0-15.68-5.99-15.68-17.32v-42.83h-11.43v43.46   c0,16.98,10.13,27.12,27.11,27.12c13.15,0,27.2-7.48,27.2-28.47v-42.11h-11.42V433.27z"></path>
</g>
<polygon points="1220.2,442.31 1199.22,391.17 1186.13,391.17 1186.13,460.47 1197.16,460.47 1197.16,412.34 1216.85,460.47   1223.55,460.47 1243.32,411.73 1243.32,460.47 1254.36,460.47 1254.36,391.17 1241.26,391.17 "></polygon>
<g>
	<path d="M673.3,439.48c0,5.52,2.64,22.44,25.75,22.44c18.3,0,24.79-11.85,24.79-21.86c0-7.31-3.56-12.94-10.31-16.28   c-2.7-1.33-6.01-2.12-9.83-3.26c-2.24-0.66-10.01-3.28-11.17-3.9c-3.52-1.61-5.36-4.34-5.36-7.89c0-4.31,2.56-9.57,11.5-9.57   c6.93,0,10.85,5.71,11.03,10.58h11.47c-1.29-13.26-8.95-20.28-22.89-20.28c-15.81,0-22.88,10.67-22.88,21.07   c0,6.35,2.38,10.78,7.49,13.92c3.2,2.03,5.73,2.77,10.91,4.37c5.19,1.59,17.99,3.57,17.99,12.27c0,4.94-3.9,10.34-12.47,10.34   c-8.69,0-13.49-4.52-14.16-11.94H673.3z"></path>
	<path d="M1263.06,439.48c0,5.52,2.64,22.44,25.74,22.44c18.3,0,24.8-11.85,24.8-21.86c0-7.31-3.57-12.94-10.32-16.28   c-2.69-1.33-6-2.12-9.83-3.26c-2.24-0.66-10-3.28-11.17-3.9c-3.52-1.61-5.36-4.34-5.36-7.89c0-4.31,2.57-9.57,11.5-9.57   c6.93,0,10.86,5.71,11.03,10.58h11.47c-1.28-13.26-8.95-20.28-22.88-20.28c-15.81,0-22.89,10.67-22.89,21.07   c0,6.35,2.38,10.78,7.5,13.92c3.2,2.03,5.72,2.77,10.91,4.37c5.19,1.59,17.99,3.57,17.99,12.27c0,4.94-3.91,10.34-12.47,10.34   c-8.68,0-13.48-4.52-14.15-11.94H1263.06z"></path>
</g>
</svg>
