<?xml version="1.0" encoding="UTF-8"?>
<!-- Generator: Adobe Illustrator 25.2.1, SVG Export Plug-In . SVG Version: 6.00 Build 0)  -->
<svg xmlns="http://www.w3.org/2000/svg" xmlns:xlink="http://www.w3.org/1999/xlink" version="1.1" id="Layer_1" x="0px" y="0px" viewBox="0 0 1615 958" style="enable-background:new 0 0 1615 958;" xml:space="preserve">
<g>
	<path d="M669.13,511.46l-39.98-54.86H609.8V582.1h19.36v-94.66l39.98,52.71l39.98-52.71v94.66h19.36V456.61h-19.36L669.13,511.46z    M591.04,704.81c0-4.91-4.17-8.34-8.88-8.34c-4.71,0-8.88,3.43-8.88,8.34s4.17,8.34,8.88,8.34   C586.87,713.15,591.04,709.72,591.04,704.81 M574.49,683.43c0,3.83,2.96,7.13,7.67,7.13c4.71,0,7.67-3.3,7.67-7.13   c0-3.84-2.96-7.13-7.67-7.13C577.46,676.3,574.49,679.6,574.49,683.43 M598.16,705.08c0,8.41-6.78,14.79-16,14.79   c-9.22,0-16-6.38-16-14.79c0-5.65,3.09-9.62,7.32-11.83c-3.22-2.28-5.57-5.65-5.57-9.95c0-7.6,5.97-12.63,14.25-12.63   c8.27,0,14.25,5.03,14.25,12.63c0,4.3-2.35,7.67-5.57,9.95C595.07,695.46,598.16,699.43,598.16,705.08 M642.27,687.41   c-3.5,0-7.33,1.47-9.82,3.62l1.48-12.58h21.1v-6.71h-27.29l-2.29,27.02h6.25c1.82-2.42,5.31-4.98,9.34-4.98   c4.91,0,9.41,3.36,9.41,9.69c0,6.32-4.5,9.68-9.41,9.68c-4.84,0-8.47-2.62-11.9-6.79l-4.91,4.71c3.36,4.77,9.41,8.8,16.81,8.8   c8.81,0,16.53-6.51,16.53-16.4C657.59,693.51,650.74,687.41,642.27,687.41 M769.28,695.27c0-9.62-6.32-17.75-16.27-17.75   c-9.95,0-16.27,8.14-16.27,17.75c0,9.61,6.66,17.75,16.27,17.75C762.62,713.02,769.28,704.88,769.28,695.27 M776.66,695.27   c0,15.8-11.55,24.6-23.66,24.6c-12.1,0-23.66-8.8-23.66-24.6c0-15.8,11.56-24.6,23.66-24.6   C765.11,670.67,776.66,679.46,776.66,695.27 M1099.36,695.27c0-9.35-6.05-16.68-16.95-16.68h-4.84v33.35h4.84   C1093.31,711.94,1099.36,704.61,1099.36,695.27 M1106.75,695.27c0,14.93-10.75,23.53-23.86,23.53h-12.57v-47.05h12.57   C1096,671.74,1106.75,680.34,1106.75,695.27 M969.68,700.65l-7.33-18.96l-7.32,18.96H969.68z M965.71,671.74l19.02,47.05h-8.06   l-4.37-11.29H952.4l-4.37,11.29h-8.07l19.02-47.05H965.71z M833.21,706.29l-24.28-34.55h-6.98v47.05h7.25v-34.55l24.28,34.55h6.98   v-47.05h-7.25V706.29z M1026.35,692.85c5.52,0,8.01-3.5,8.01-7.06c0-3.57-2.49-7.2-8.01-7.2h-10.49v14.26H1026.35z M1029.98,698.89   l15.86,19.9h-8.6l-15.73-19.63h-5.65v19.63h-7.25v-47.05h17.68c8.41,0,15.59,5.17,15.59,14.05   C1041.87,693.19,1035.76,697.95,1029.98,698.89 M906.95,707.3l-8.81-30.86h-7.53l-8.8,30.86l-8.2-35.56h-7.8l11.83,47.05h7.93   l8.81-30.99l8.81,30.99h7.93l11.83-47.05h-7.8L906.95,707.3z M1143.32,456.61v52.88h-60.95v-52.88h-19.36V582.1h19.36v-54.32h60.95   v54.32h19.36V456.61H1143.32z M1092.72,312.83h57.37v-18.28h-57.37v-34.78h69.56v-18.28h-88.92v125.49h19.36V312.83z    M815.96,368.26c7.3,0,13.41-6.11,13.41-13.41c0-7.3-6.11-13.41-13.41-13.41c-7.3,0-13.41,6.11-13.41,13.41   C802.55,362.15,808.67,368.26,815.96,368.26 M805.9,582.1h19.36V456.61H805.9V582.1z M521.43,369.84c16.49,0,33.17-6.45,45-17.93   l4.12-4.12v-53.42h-52.53v18.29h34.24v26.89c-8.6,7.53-18.11,12.01-30.83,12.01c-25.82,0-45.89-22.05-45.89-47.33   c0-25.28,19.18-47.33,45.89-47.33c12.19,0,23.13,5.38,31.91,14.34l13.98-13.98c-12.01-12.01-27.97-18.64-45.89-18.64   c-36.03,0-65.61,29.4-65.61,65.61S485.4,369.84,521.43,369.84 M476.36,671.74h-6.65c-1.75,4.97-6.72,7.06-11.43,7.06v6.65   c3.9,0,8.74-1.55,11.09-3.76v31.06h-10.89v6.04h27.96v-6.04h-10.09V671.74z M533.63,704.81c0-4.91-4.17-8.34-8.88-8.34   c-4.71,0-8.88,3.43-8.88,8.34s4.17,8.34,8.88,8.34C529.46,713.15,533.63,709.72,533.63,704.81 M517.08,683.43   c0,3.83,2.96,7.13,7.67,7.13c4.71,0,7.67-3.3,7.67-7.13c0-3.84-2.96-7.13-7.67-7.13C520.05,676.3,517.08,679.6,517.08,683.43    M540.75,705.08c0,8.41-6.78,14.79-15.99,14.79c-9.22,0-16-6.38-16-14.79c0-5.65,3.09-9.62,7.32-11.83   c-3.22-2.28-5.58-5.65-5.58-9.95c0-7.6,5.97-12.63,14.25-12.63c8.27,0,14.25,5.03,14.25,12.63c0,4.3-2.35,7.67-5.57,9.95   C537.66,695.46,540.75,699.43,540.75,705.08 M899,474.89h37.47V582.1h19.36V474.89h37.47v-18.29H899V474.89z M540.26,546.42   c0-19.18-13.45-29.04-34.42-38.18c-18.11-7.89-27.79-12.19-27.79-22.41c0-8.07,8.07-14.88,18.82-14.88   c10.4,0,17.75,5.2,25.46,13.98l13.27-13.27c-8.6-10.22-19.54-17.93-38.72-17.93c-21.33,0-37.83,14.88-37.83,33.52   c0,19.72,17.39,29.22,33.35,36.03c22.23,9.5,28.5,15.24,28.5,24.92c0,10.22-9.5,18.11-21.51,18.11c-12.55,0-22.41-6.45-31.91-17.39   l-13.45,13.62c10.4,13.09,25.46,22.41,45.36,22.41C526.63,584.97,540.26,564.89,540.26,546.42 M1162.41,705.42   c0,6.93-5.1,14.45-15.32,14.45c-7.47,0-13.1-3.49-17-8.39l5.04-5.11c3.56,4.1,7.26,6.52,11.97,6.52c4.51,0,8.07-2.96,8.07-6.79   c0-3.64-2.35-5.79-10.69-9.35c-5.98-2.55-12.5-6.12-12.5-13.52c0-6.99,6.18-12.56,14.18-12.56c7.2,0,11.3,2.89,14.52,6.71   l-4.97,4.97c-2.89-3.29-5.65-5.24-9.55-5.24c-4.03,0-7.06,2.55-7.06,5.58c0,3.84,3.63,5.45,10.43,8.41   C1157.38,694.53,1162.41,698.22,1162.41,705.42"></path>
</g>
</svg>
