<?xml version="1.0" encoding="UTF-8"?>
<!-- Generator: Adobe Illustrator 25.2.1, SVG Export Plug-In . SVG Version: 6.00 Build 0)  -->
<svg xmlns="http://www.w3.org/2000/svg" xmlns:xlink="http://www.w3.org/1999/xlink" version="1.1" id="Layer_1" x="0px" y="0px" viewBox="0 0 1615 958" style="enable-background:new 0 0 1615 958;" xml:space="preserve">
<polygon points="589.29,436.57 555.52,569.17 516.44,569.17 483.11,436.16 483.11,569.17 441.22,569.17 441.22,386.65   510.17,386.65 538.53,497.95 567.25,386.65 632.74,386.65 632.74,569.17 589.29,569.17 "></polygon>
<g>
	<path d="M716.05,437.51c-33.92,0-67.41,23.24-67.41,65.6v2.76c0,43.17,33.48,65.95,67.41,65.95c33.98,0,67.64-22.78,67.64-65.95   v-2.76C783.69,460.75,750.04,437.51,716.05,437.51 M740.63,507.35c0,24.92-10.48,35.77-24.58,35.77   c-13.7,0-24.35-10.85-24.35-35.77v-5.75c0-25.16,10.65-35.43,24.35-35.43c14.1,0,24.58,10.27,24.58,35.43V507.35z"></path>
</g>
<polygon points="947.71,436.57 913.94,569.17 874.87,569.17 841.53,436.16 841.53,569.17 799.64,569.17 799.64,386.65   868.59,386.65 896.96,497.95 925.67,386.65 991.16,386.65 991.16,569.17 947.71,569.17 "></polygon>
<path d="M1062.22,386.65h57.43l55.84,182.51h-45.18l-10.17-33.64h-63.03l-10.65,33.64h-43.37L1062.22,386.65z M1109.79,501  l-20.36-67.38L1068.09,501H1109.79z"></path>
</svg>
