<?xml version="1.0" encoding="UTF-8"?>
<!-- Generator: Adobe Illustrator 25.2.1, SVG Export Plug-In . SVG Version: 6.00 Build 0)  -->
<svg xmlns="http://www.w3.org/2000/svg" xmlns:xlink="http://www.w3.org/1999/xlink" version="1.1" id="Layer_1" x="0px" y="0px" viewBox="0 0 1615 958" style="enable-background:new 0 0 1615 958;" xml:space="preserve">
<g>
	<path d="M1042.18,418.97c0.05,0.2,0.09,0.39,0.13,0.54C1042.28,419.37,1042.24,419.2,1042.18,418.97"></path>
	<path d="M1041.96,418.01c0.01,0.06,0.06,0.25,0.12,0.5C1042.04,418.36,1042,418.2,1041.96,418.01"></path>
	<path d="M1022.17,423.78c1.21,2.66,4.82,6.04,8.44,7.24c3.62,1.21,7.97,0.97,9.65-1.69c1.69-2.65,2.66-7.24,1.69-11.34   c0,0-1.93-7.72-6.03-10.14c-4.1-2.42-7.24-2.9-10.38-2.17c-3.13,0.72-6.03,5.55-5.79,8.45   C1019.99,417.03,1020.96,421.13,1022.17,423.78"></path>
	<path d="M1042.36,419.7c0.01,0.05,0.02,0.09,0.02,0.1C1042.38,419.79,1042.37,419.75,1042.36,419.7"></path>
	<path d="M809.54,468.2c-4.83-5.31-26.06-29.93-30.41-39.58c-3.13-6.96,1.45-18.83,19.79-15.93c16.92,2.67,28.47,14.48,28.96,18.82   c0.48,4.34-1.94,4.83-1.94,4.83s-1.93,3.38-0.96,5.79c0,0,4.34,1.45,7.24,1.45s14.47-1.93,13.52-14.96   c-0.97-13.03-23.18-29.92-50.2-30.89c-27.03-0.96-33.79,19.79-33.79,21.72s-3.86,3.86,5.31,21.24   c9.17,17.37,31.86,38.13,42.96,51.17c11.11,13.03,19.31,28.48,20.76,38.61c1.45,10.14-7.24,15.93-15.44,16.41   c-8.21,0.48-15.93-2.89-23.17-7.73c-7.24-4.82-19.79-14.95-19.79-14.95s-6.75-5.79-10.13-0.97c-3.38,4.83,1.45,10.13,1.45,10.13   s14,14,23.65,19.79c9.65,5.79,41.03,18.83,52.61,4.35c11.59-14.49,8.68-29.45,1.94-44.89C836.31,499.88,814.37,473.51,809.54,468.2   "></path>
	<path d="M606.82,508.25c0,0-6.76-8.69-13.51-21.23c-6.76-12.55-11.1-28.48-11.1-38.61c0-10.13,7.24-30.41,17.38-30.41   c10.13,0,13.51,23.17,13.51,45.37C613.09,485.57,606.82,508.25,606.82,508.25 M371.75,559.42c-3.86,0-17.38-1.45-17.38-26.07   c0.01-24.61,9.66-46.81,25.59-46.81c0,0,16.41,1.93,16.41,36.2C396.37,557.01,375.61,559.42,371.75,559.42 M673.42,537.7   c-4.34,0-6.27,1.94-8.69,4.35c-2.42,2.41-7.72,4.82-15.44,4.82c-7.72,0-16.9-2.9-23.17-10.13s-8.21-12.55-8.21-12.55   s10.14-30.89,10.14-61.3c0-30.41-10.14-54.06-28.48-54.06c-13.51,0-30.41,10.62-30.41,46.82s17.86,55.99,20.27,59.37   c2.41,3.39,10.62,13.52,10.62,13.52s-4.83,23.16-20.28,23.16c-15.45,0-32.34-27.51-37.65-36.19c-5.3-8.7-10.13-19.79-15.93-19.79   c-5.8,0-8.69,9.16-9.17,10.61c-0.48,1.45-13.03,25.58-15.44,28.97c-2.42,3.37-5.31,8.21-8.68,8.21c-3.38,0-8.69-4.35-12.07-12.55   c-3.38-8.21-6.76-20.76-7.72-25.59c-0.96-4.82-1.93-14.48-6.76-14.48c-4.82-0.01-7.24,3.38-7.24,3.38v0c0,0-6.27,15.44-9.17,23.64   c-2.89,8.21-9.65,24.62-11.1,27.52c-1.45,2.89-3.86,5.79-6.27,5.79c-2.41,0-6.27-2.9-9.17-8.21c-2.9-5.31-12.07-30.89-13.52-35.71   c-1.45-4.83-7.72-22.21-16.41-27.03c-8.69-4.83-19.79-5.79-28.96-1.45c-9.17,4.35-28.96,26.07-28.96,58.4   c0,32.34,20.27,38.13,34.76,38.13c14.47,0,36.68-24.61,36.68-24.61s10.62,20.75,27.03,20.75c16.41,0,26.54-24.61,28.96-29.92   c2.41-5.31,3.86-4.82,5.79-1.93c1.93,2.89,11.1,22.21,25.1,22.21c14,0,22.69-15.93,26.54-21.24c3.86-5.31,5.31-9.65,9.65-9.65   c4.34,0,8.21,3.37,11.1,8.68c2.9,5.31,11.1,26.55,38.61,26.55c22.2,0,32.34-21.24,32.34-21.24s12.55,15.44,37.17,15.44   c24.62,0,29.45-11.59,30.41-14.49C680.66,543.01,677.76,537.7,673.42,537.7"></path>
	<path d="M1353.04,549.76c-1.45-3.86-5.3-3.86-7.72-2.42c-2.42,1.45-12.55,5.31-22.21,5.31c-9.66,0-17.38-5.79-22.21-11.1   c-4.82-5.31-37.16-38.61-37.16-38.61s-4.34-6.76-11.1-6.76c-6.76,0-15.44,8.21-19.79,12.06c-4.34,3.86-20.76,20.28-27.03,20.28   c-6.28,0-10.62-5.31-10.62-16.41c0-11.1,0.49-52.61-0.48-57.92c-0.97-5.31-4.34-22.69-14-22.2c-9.65,0.49-6.28,22.2-6.28,22.2   s0,64.2-1.45,71.92c-1.45,7.73-6.75,17.39-12.55,17.39c-5.79,0-11.1-5.8-16.9-18.34c-5.79-12.55-9.65-37.17-10.13-45.86   c-0.48-8.69,0-11.1,0-11.1s12.07-5.79,17.86-7.24c5.8-1.45,11.1-2.41,12.06-4.83c0.97-2.41,1.94-7.24,0.49-10.62   c-1.45-3.38-5.31-4.34-7.73-3.86c-2.4,0.48-19.3,3.38-19.3,3.38l-13.04-19.31c0,0-2.41-5.79-6.75-5.79   c-4.35,0-7.73,2.41-6.76,10.62c0.96,8.21,7.24,54.54,5.31,69.99c-1.94,15.44-15.45,41.99-28.96,41.99   c-13.52,0-34.27-43.44-36.2-47.3c-1.93-3.86-4.34-11.1-9.65-11.1c-5.31,0-11.58,18.34-14,24.13c-2.4,5.8-9.65,25.1-14.95,25.1   c-11.59,0-31.86-40.05-31.86-40.05s-4.34-11.58-11.58-11.58s-10.13,11.09-12.07,14.95c-1.93,3.86-12.06,32.34-19.31,32.34   c-7.24,0-13.03-10.61-17.85-18.34c-4.83-7.72-12.07-26.55-16.9-26.55c-4.83,0-7.24,9.17-10.14,14.96   c-2.91,5.78-5.81,11.58-10.63,11.58l-8.21-11.58c0,0-3.37-6.76-7.24-4.34c-3.86,2.42-4.34,5.31-2.9,11.1   c1.45,5.79,11.1,50.68,11.1,50.68s3.37,4.34,6.27,4.34c2.9,0,5.79-5.31,8.21-11.58c2.42-6.28,9.17-27.04,15.44-27.04   c6.28,0,13.03,13.52,15.44,16.9c2.42,3.39,10.13,16.41,10.13,16.41s3.39,5.31,7.24,5.31c3.86,0,7.73-3.86,10.14-7.24   c2.41-3.39,9.16-14.49,11.58-21.24c2.42-6.76,7.71-18.34,13.03-18.34c5.31,0,17.86,20.27,21.24,25.58   c3.13,4.91,14,23.65,21.24,23.65c8.7,0,10.14-8.21,13.04-14.49c2.9-6.27,7.72-24.13,15.93-24.13s13.99,10.62,17.86,14.47   c3.85,3.86,12.55,23.65,26.06,23.65c13.52,0,25.58-16.9,29.44-20.75c3.86-3.86,7.24-6.76,7.24-6.76s13.04,32.82,34.76,32.82   c21.73,0,15.44-18.82,29.45-18.82c14,0,9.16,10.13,19.31,10.13c3.85,0,14-16.9,17.85-21.73c3.86-4.82,18.34-21.72,25.1-21.72   c6.76,0,16.41,11.1,18.34,13.03c1.94,1.94,21.73,24.13,25.1,27.04c3.39,2.88,17.39,12.06,28,11.58c10.62-0.49,19.79-4.34,25.1-6.76   C1352.08,558.45,1354.49,553.63,1353.04,549.76"></path>
	<path d="M334.1,432.48c-5.3,21.72-20.27,36.68-31.37,47.3c-11.1,10.62-18.34,14.49-18.34,14.49s-4.35-34.75,0.96-61.79   c5.31-27.03,24.13-41.99,37.17-41.99C335.55,390.49,339.41,410.76,334.1,432.48 M322.52,377.45c-17.38,0-42.96,18.83-54.55,60.82   c-11.58,41.99-4.83,90.74-0.48,111.98c4.34,21.24,12.06,28.49,17.38,29.94c5.31,1.45,10.62-1.45,10.62-7.25   c0-5.79-4.83-16.41-6.27-28.95c-1.45-12.55-2.41-32.82-2.41-32.82s10.62-7.73,28.96-24.14c18.34-16.41,33.79-39.58,33.79-67.09   C349.55,392.41,335.55,377.45,322.52,377.45"></path>
</g>
</svg>
