<?xml version="1.0" encoding="UTF-8"?>
<!-- Generator: Adobe Illustrator 25.2.1, SVG Export Plug-In . SVG Version: 6.00 Build 0)  -->
<svg xmlns="http://www.w3.org/2000/svg" xmlns:xlink="http://www.w3.org/1999/xlink" version="1.1" id="Layer_1" x="0px" y="0px" viewBox="0 0 1615 958" style="enable-background:new 0 0 1615 958;" xml:space="preserve">
<g>
	<path d="M808.35,272.84c-113.99,0-206.4,92.41-206.4,206.4c0,87.44,54.4,162.19,131.18,192.27c-1.81-16.33-3.43-41.45,0.71-59.27   c3.75-16.11,24.2-102.6,24.2-102.6s-6.17-12.36-6.17-30.64c0-28.7,16.63-50.13,37.35-50.13c17.61,0,26.12,13.22,26.12,29.07   c0,17.71-11.28,44.18-17.1,68.72c-4.86,20.54,10.3,37.3,30.57,37.3c36.68,0,64.88-38.68,64.88-94.52   c0-49.42-35.51-83.97-86.21-83.97c-58.73,0-93.2,44.05-93.2,89.57c0,17.74,6.83,36.76,15.36,47.1c1.68,2.04,1.93,3.84,1.43,5.92   c-1.57,6.52-5.05,20.54-5.73,23.41c-0.9,3.78-2.99,4.58-6.9,2.76c-25.78-12-41.9-49.69-41.9-79.96c0-65.11,47.3-124.9,136.38-124.9   c71.6,0,127.24,51.02,127.24,119.21c0,71.13-44.85,128.38-107.1,128.38c-20.91,0-40.58-10.86-47.31-23.7   c0,0-10.35,39.41-12.86,49.07c-4.66,17.93-17.24,40.4-25.65,54.11c19.31,5.98,39.83,9.2,61.11,9.2   c113.99,0,206.4-92.41,206.4-206.4C1014.76,365.25,922.35,272.84,808.35,272.84"></path>
</g>
</svg>
