<?xml version="1.0" encoding="UTF-8"?>
<!-- Generator: Adobe Illustrator 25.2.1, SVG Export Plug-In . SVG Version: 6.00 Build 0)  -->
<svg xmlns="http://www.w3.org/2000/svg" xmlns:xlink="http://www.w3.org/1999/xlink" version="1.1" id="Layer_1" x="0px" y="0px" viewBox="0 0 1615 958" style="enable-background:new 0 0 1615 958;" xml:space="preserve">
<g>
	<path d="M1228.24,517.05c0.04,9.17-10.16,18.66-27.28,18.66c-14.42,0-25.66-7.2-29.82-10.3l-2.23-1.67l-25.57,17.32l2.81,3.32   c0.83,0.98,20.64,23.96,54.95,23.96c16.5,0,31.64-5.28,42.64-14.85c10.95-9.54,17.2-22.83,17.14-36.45   c-0.06-14.62-6.49-26.91-19.13-36.51c-8.49-6.44-19.61-11.65-36.21-16.91c-32.29-10.25-32.32-18.37-32.34-22.28   c-0.04-9.17,10.15-18.66,27.27-18.66c14.45,0,25.67,7.2,29.82,10.3l2.24,1.67l25.57-17.32l-2.81-3.32   c-0.83-0.98-20.65-23.95-54.96-23.95c-16.48,0-31.62,5.27-42.62,14.84c-10.96,9.54-17.2,22.83-17.15,36.45   c0.06,14.62,6.5,26.9,19.12,36.5c8.48,6.44,19.61,11.65,36.21,16.92C1228.19,505.01,1228.23,513.14,1228.24,517.05 M960.03,479.32   c-0.13-31.45,25.09-57.04,56.22-57.04c31.13,0,56.57,25.59,56.7,57.04c0.13,31.46-25.09,57.05-56.22,57.05   C985.6,536.37,960.16,510.78,960.03,479.32 M927.45,479.32c0.21,49.11,40.32,89.05,89.42,89.05c49.1,0,88.88-39.94,88.67-89.05   c-0.21-49.09-40.32-89.04-89.43-89.04S927.24,430.23,927.45,479.32 M845.32,491.83L737.55,391.9l0.72,170.1h31.81l-0.41-95.33   l107.77,100.07l-0.72-169.66l-31.81,0L845.32,491.83z M542.05,478.68c-0.13-31.45,25.09-57.05,56.22-57.05   c31.13,0,56.57,25.59,56.71,57.05c0.13,31.45-25.09,57.03-56.22,57.03C567.62,535.71,542.18,510.13,542.05,478.68 M509.45,478.68   c0.21,49.09,40.33,89.04,89.43,89.04c49.1,0,88.87-39.95,88.66-89.04c-0.21-49.11-40.32-89.05-89.42-89.05   C549.03,389.62,509.25,429.57,509.45,478.68 M382.46,523.35l-25.58,17.32l2.81,3.32c0.83,0.97,20.65,23.96,54.96,23.96   c16.49,0,31.62-5.28,42.62-14.85c10.96-9.55,17.21-22.83,17.15-36.45c-0.06-14.62-6.49-26.9-19.13-36.5   c-8.48-6.45-19.61-11.65-36.21-16.92c-32.28-10.25-32.32-18.37-32.33-22.29c-0.04-9.16,10.15-18.66,27.27-18.66   c14.42,0,25.67,7.2,29.82,10.3l2.23,1.66l25.57-17.31l-2.81-3.33c-0.83-0.98-20.64-23.95-54.95-23.95   c-16.49,0-31.63,5.27-42.63,14.85c-10.96,9.54-17.2,22.83-17.15,36.44c0.06,14.62,6.49,26.91,19.13,36.51   c8.48,6.45,19.61,11.65,36.21,16.92c32.28,10.25,32.31,18.37,32.33,22.28c0.04,9.17-10.14,18.66-27.27,18.66   c-14.46,0-25.67-7.2-29.82-10.29L382.46,523.35z"></path>
</g>
</svg>
