<?xml version="1.0" encoding="UTF-8"?>
<svg xmlns="http://www.w3.org/2000/svg" xmlns:xlink="http://www.w3.org/1999/xlink" width="387" height="230" viewBox="0 0 387 230">
  <defs>
    <clipPath id="b">
      <rect width="387" height="230"></rect>
    </clipPath>
  </defs>
  <g id="a" clip-path="url(#b)">
    <g transform="translate(0 230)">
      <path d="M0,0A1.059,1.059,0,0,0-1.066,1.066,1.085,1.085,0,0,0,0,2.132,1.059,1.059,0,0,0,1.066,1.066,1.085,1.085,0,0,0,0,0M-2.706-3.075A1.059,1.059,0,0,0-3.772-2.009,1.059,1.059,0,0,0-2.706-.943,1.085,1.085,0,0,0-1.64-2.009,1.059,1.059,0,0,0-2.706-3.075M-5.412-6.191A1.059,1.059,0,0,0-6.478-5.125,1.085,1.085,0,0,0-5.412-4.059,1.059,1.059,0,0,0-4.346-5.125,1.059,1.059,0,0,0-5.412-6.191M-97.252,8.4a1.089,1.089,0,0,0-.984,1.148,1.089,1.089,0,0,0,1.148.984A1.089,1.089,0,0,0-96.1,9.389,1.013,1.013,0,0,0-97.252,8.4m-2.419-2.911a1.089,1.089,0,0,0-.984,1.148,1.089,1.089,0,0,0,1.148.984,1.089,1.089,0,0,0,.984-1.148,1.06,1.06,0,0,0-1.148-.984m4.879,5.781a1.089,1.089,0,0,0-.984,1.148,1.089,1.089,0,0,0,1.148.984,1.089,1.089,0,0,0,.984-1.148,1.116,1.116,0,0,0-1.148-.984M-229.723-2.173a1.085,1.085,0,0,0-1.066-1.066,1.085,1.085,0,0,0-1.066,1.066,1.085,1.085,0,0,0,1.066,1.066,1.085,1.085,0,0,0,1.066-1.066m-7.5,10.578a1.085,1.085,0,0,0-1.066,1.066,1.085,1.085,0,0,0,1.066,1.066,1.085,1.085,0,0,0,1.066-1.066A1.085,1.085,0,0,0-237.226,8.4m1.6-2.911a1.085,1.085,0,0,0-1.066,1.066,1.085,1.085,0,0,0,1.066,1.066,1.085,1.085,0,0,0,1.066-1.066,1.085,1.085,0,0,0-1.066-1.066m1.6-2.911a1.085,1.085,0,0,0-1.066,1.066,1.085,1.085,0,0,0,1.066,1.066,1.085,1.085,0,0,0,1.066-1.066,1.059,1.059,0,0,0-1.066-1.066m1.64,2.911a1.085,1.085,0,0,0-1.066,1.066,1.085,1.085,0,0,0,1.066,1.066,1.085,1.085,0,0,0,1.066-1.066,1.085,1.085,0,0,0-1.066-1.066m-6.478,5.822a1.085,1.085,0,0,0-1.066,1.066,1.085,1.085,0,0,0,1.066,1.066,1.085,1.085,0,0,0,1.066-1.066,1.085,1.085,0,0,0-1.066-1.066m6.478-11.644A1.085,1.085,0,0,0-233.454.738,1.085,1.085,0,0,0-232.388,1.8,1.085,1.085,0,0,0-231.322.738a1.085,1.085,0,0,0-1.066-1.066m3.239,5.822a1.085,1.085,0,0,0-1.066,1.066,1.085,1.085,0,0,0,1.066,1.066,1.085,1.085,0,0,0,1.066-1.066,1.085,1.085,0,0,0-1.066-1.066m0-11.644a1.085,1.085,0,0,0-1.066,1.066,1.085,1.085,0,0,0,1.066,1.066,1.085,1.085,0,0,0,1.066-1.066,1.059,1.059,0,0,0-1.066-1.066m19.065,7.708a1.059,1.059,0,0,0-1.066,1.066,1.059,1.059,0,0,0,1.066,1.066,1.059,1.059,0,0,0,1.066-1.066,1.085,1.085,0,0,0-1.066-1.066m2.378,2.583a1.059,1.059,0,0,0-1.066,1.066,1.059,1.059,0,0,0,1.066,1.066,1.059,1.059,0,0,0,1.066-1.066,1.085,1.085,0,0,0-1.066-1.066m-4.756-5.166A1.059,1.059,0,0,0-213.528.041a1.059,1.059,0,0,0,1.066,1.066A1.059,1.059,0,0,0-211.4.041a1.059,1.059,0,0,0-1.066-1.066m-4.715-5.166a1.059,1.059,0,0,0-1.066,1.066,1.059,1.059,0,0,0,1.066,1.066,1.059,1.059,0,0,0,1.066-1.066,1.059,1.059,0,0,0-1.066-1.066m2.378,2.583a1.059,1.059,0,0,0-1.066,1.066A1.059,1.059,0,0,0-214.8-1.476a1.059,1.059,0,0,0,1.066-1.066A1.085,1.085,0,0,0-214.8-3.608M-260.1-6.15a1.085,1.085,0,0,0-1.066,1.066A1.085,1.085,0,0,0-260.1-4.018a1.085,1.085,0,0,0,1.066-1.066A1.059,1.059,0,0,0-260.1-6.15m4.387,17.466a1.085,1.085,0,0,0-1.066,1.066,1.085,1.085,0,0,0,1.066,1.066,1.085,1.085,0,0,0,1.066-1.066,1.085,1.085,0,0,0-1.066-1.066M-260.1-2.665A1.085,1.085,0,0,0-261.17-1.6,1.085,1.085,0,0,0-260.1-.533,1.085,1.085,0,0,0-259.038-1.6,1.085,1.085,0,0,0-260.1-2.665m0,3.485a1.085,1.085,0,0,0-1.066,1.066A1.085,1.085,0,0,0-260.1,2.952a1.085,1.085,0,0,0,1.066-1.066A1.085,1.085,0,0,0-260.1.82m8.733,10.5a1.085,1.085,0,0,0-1.066,1.066,1.085,1.085,0,0,0,1.066,1.066,1.085,1.085,0,0,0,1.066-1.066,1.085,1.085,0,0,0-1.066-1.066M-283.023,4.3a1.085,1.085,0,0,0-1.066,1.066,1.085,1.085,0,0,0,1.066,1.066,1.085,1.085,0,0,0,1.066-1.066A1.085,1.085,0,0,0-283.023,4.3m0-3.485a1.085,1.085,0,0,0-1.066,1.066,1.085,1.085,0,0,0,1.066,1.066,1.085,1.085,0,0,0,1.066-1.066A1.085,1.085,0,0,0-283.023.82m0,10.5a1.085,1.085,0,0,0-1.066,1.066,1.085,1.085,0,0,0,1.066,1.066,1.085,1.085,0,0,0,1.066-1.066,1.085,1.085,0,0,0-1.066-1.066m0-3.485A1.085,1.085,0,0,0-284.089,8.9a1.085,1.085,0,0,0,1.066,1.066A1.085,1.085,0,0,0-281.957,8.9a1.059,1.059,0,0,0-1.066-1.066M-297.332-6.15A1.085,1.085,0,0,0-298.4-5.084a1.085,1.085,0,0,0,1.066,1.066,1.085,1.085,0,0,0,1.066-1.066,1.059,1.059,0,0,0-1.066-1.066m14.309,3.485A1.085,1.085,0,0,0-284.089-1.6a1.085,1.085,0,0,0,1.066,1.066A1.085,1.085,0,0,0-281.957-1.6a1.085,1.085,0,0,0-1.066-1.066M-260.1,4.3a1.085,1.085,0,0,0-1.066,1.066A1.085,1.085,0,0,0-260.1,6.437a1.085,1.085,0,0,0,1.066-1.066A1.085,1.085,0,0,0-260.1,4.3m0,7.011a1.085,1.085,0,0,0-1.066,1.066,1.085,1.085,0,0,0,1.066,1.066,1.085,1.085,0,0,0,1.066-1.066,1.085,1.085,0,0,0-1.066-1.066m0-3.485A1.085,1.085,0,0,0-261.17,8.9,1.085,1.085,0,0,0-260.1,9.963,1.085,1.085,0,0,0-259.038,8.9,1.059,1.059,0,0,0-260.1,7.831m-14.186,3.485a1.085,1.085,0,0,0-1.066,1.066,1.085,1.085,0,0,0,1.066,1.066,1.085,1.085,0,0,0,1.066-1.066,1.059,1.059,0,0,0-1.066-1.066M-283.023-6.15a1.085,1.085,0,0,0-1.066,1.066,1.085,1.085,0,0,0,1.066,1.066,1.085,1.085,0,0,0,1.066-1.066,1.059,1.059,0,0,0-1.066-1.066m4.387,17.466a1.085,1.085,0,0,0-1.066,1.066,1.085,1.085,0,0,0,1.066,1.066,1.085,1.085,0,0,0,1.066-1.066,1.114,1.114,0,0,0-1.066-1.066M-198.194,4.3a1.085,1.085,0,0,0-1.066,1.066,1.085,1.085,0,0,0,1.066,1.066,1.085,1.085,0,0,0,1.066-1.066A1.085,1.085,0,0,0-198.194,4.3m-99.138,7.011a1.085,1.085,0,0,0-1.066,1.066,1.085,1.085,0,0,0,1.066,1.066,1.085,1.085,0,0,0,1.066-1.066,1.085,1.085,0,0,0-1.066-1.066m99.138,0a1.085,1.085,0,0,0-1.066,1.066,1.085,1.085,0,0,0,1.066,1.066,1.085,1.085,0,0,0,1.066-1.066,1.085,1.085,0,0,0-1.066-1.066m0-10.5a1.085,1.085,0,0,0-1.066,1.066,1.085,1.085,0,0,0,1.066,1.066,1.085,1.085,0,0,0,1.066-1.066A1.085,1.085,0,0,0-198.194.82m0-3.485A1.085,1.085,0,0,0-199.26-1.6a1.085,1.085,0,0,0,1.066,1.066A1.085,1.085,0,0,0-197.128-1.6a1.085,1.085,0,0,0-1.066-1.066M-217.218,4.3a1.085,1.085,0,0,0-1.066,1.066,1.085,1.085,0,0,0,1.066,1.066,1.085,1.085,0,0,0,1.066-1.066A1.059,1.059,0,0,0-217.218,4.3m0,3.526A1.085,1.085,0,0,0-218.284,8.9a1.085,1.085,0,0,0,1.066,1.066A1.085,1.085,0,0,0-216.152,8.9a1.034,1.034,0,0,0-1.066-1.066m0-7.011a1.085,1.085,0,0,0-1.066,1.066,1.085,1.085,0,0,0,1.066,1.066,1.085,1.085,0,0,0,1.066-1.066A1.059,1.059,0,0,0-217.218.82m0,10.5a1.085,1.085,0,0,0-1.066,1.066,1.085,1.085,0,0,0,1.066,1.066,1.085,1.085,0,0,0,1.066-1.066,1.059,1.059,0,0,0-1.066-1.066m0-13.981A1.085,1.085,0,0,0-218.284-1.6a1.085,1.085,0,0,0,1.066,1.066A1.085,1.085,0,0,0-216.152-1.6a1.059,1.059,0,0,0-1.066-1.066m19.024,10.5A1.085,1.085,0,0,0-199.26,8.9a1.085,1.085,0,0,0,1.066,1.066A1.085,1.085,0,0,0-197.128,8.9a1.059,1.059,0,0,0-1.066-1.066m96.227-11.849A1.085,1.085,0,0,0-100.9-5.084a1.085,1.085,0,0,0-1.066-1.066,1.085,1.085,0,0,0-1.066,1.066,1.059,1.059,0,0,0,1.066,1.066m3.321,0A1.085,1.085,0,0,0-97.58-5.084,1.085,1.085,0,0,0-98.646-6.15a1.085,1.085,0,0,0-1.066,1.066,1.085,1.085,0,0,0,1.066,1.066m2.911,1.189a1.085,1.085,0,0,0,1.066-1.066,1.085,1.085,0,0,0-1.066-1.066A1.085,1.085,0,0,0-96.8-3.895a1.034,1.034,0,0,0,1.066,1.066M-301.227-6.15a1.085,1.085,0,0,0-1.066,1.066,1.085,1.085,0,0,0,1.066,1.066,1.085,1.085,0,0,0,1.066-1.066,1.059,1.059,0,0,0-1.066-1.066m-7.79,3.485A1.085,1.085,0,0,0-310.083-1.6a1.085,1.085,0,0,0,1.066,1.066A1.085,1.085,0,0,0-307.951-1.6a1.059,1.059,0,0,0-1.066-1.066m0-3.485a1.085,1.085,0,0,0-1.066,1.066,1.085,1.085,0,0,0,1.066,1.066,1.085,1.085,0,0,0,1.066-1.066,1.034,1.034,0,0,0-1.066-1.066m3.895,17.466a1.085,1.085,0,0,0-1.066,1.066,1.085,1.085,0,0,0,1.066,1.066,1.085,1.085,0,0,0,1.066-1.066,1.085,1.085,0,0,0-1.066-1.066M-309.017,4.3a1.085,1.085,0,0,0-1.066,1.066,1.085,1.085,0,0,0,1.066,1.066,1.085,1.085,0,0,0,1.066-1.066A1.059,1.059,0,0,0-309.017,4.3m3.895-1.722a1.085,1.085,0,0,0-1.066,1.066,1.085,1.085,0,0,0,1.066,1.066,1.085,1.085,0,0,0,1.066-1.066,1.059,1.059,0,0,0-1.066-1.066m-3.895,5.248A1.085,1.085,0,0,0-310.083,8.9a1.085,1.085,0,0,0,1.066,1.066A1.085,1.085,0,0,0-307.951,8.9a1.034,1.034,0,0,0-1.066-1.066m0-7.011a1.085,1.085,0,0,0-1.066,1.066,1.085,1.085,0,0,0,1.066,1.066,1.085,1.085,0,0,0,1.066-1.066A1.059,1.059,0,0,0-309.017.82m3.895-6.97a1.085,1.085,0,0,0-1.066,1.066,1.085,1.085,0,0,0,1.066,1.066,1.085,1.085,0,0,0,1.066-1.066,1.059,1.059,0,0,0-1.066-1.066m3.9,8.733a1.085,1.085,0,0,0-1.066,1.066,1.085,1.085,0,0,0,1.066,1.066,1.085,1.085,0,0,0,1.066-1.066,1.059,1.059,0,0,0-1.066-1.066m0,8.733a1.085,1.085,0,0,0-1.066,1.066,1.085,1.085,0,0,0,1.066,1.066,1.085,1.085,0,0,0,1.066-1.066,1.085,1.085,0,0,0-1.066-1.066M-333.945-6.15a1.085,1.085,0,0,0-1.066,1.066,1.085,1.085,0,0,0,1.066,1.066,1.085,1.085,0,0,0,1.066-1.066,1.059,1.059,0,0,0-1.066-1.066m5.248,17.466a1.085,1.085,0,0,0-1.066,1.066,1.085,1.085,0,0,0,1.066,1.066,1.085,1.085,0,0,0,1.066-1.066,1.085,1.085,0,0,0-1.066-1.066m19.68,0a1.085,1.085,0,0,0-1.066,1.066,1.085,1.085,0,0,0,1.066,1.066,1.085,1.085,0,0,0,1.066-1.066,1.059,1.059,0,0,0-1.066-1.066m-19.68-7.3a1.085,1.085,0,0,0-1.066,1.066A1.085,1.085,0,0,0-328.7,6.15a1.085,1.085,0,0,0,1.066-1.066A1.085,1.085,0,0,0-328.7,4.018M-337.43-6.15A1.085,1.085,0,0,0-338.5-5.084a1.085,1.085,0,0,0,1.066,1.066,1.085,1.085,0,0,0,1.066-1.066A1.059,1.059,0,0,0-337.43-6.15m6.97,0a1.085,1.085,0,0,0-1.066,1.066,1.085,1.085,0,0,0,1.066,1.066,1.085,1.085,0,0,0,1.066-1.066A1.034,1.034,0,0,0-330.46-6.15M-328.7,7.667a1.085,1.085,0,0,0-1.066,1.066A1.085,1.085,0,0,0-328.7,9.8a1.085,1.085,0,0,0,1.066-1.066A1.085,1.085,0,0,0-328.7,7.667m0-7.257a1.085,1.085,0,0,0-1.066,1.066A1.085,1.085,0,0,0-328.7,2.542a1.085,1.085,0,0,0,1.066-1.066A1.059,1.059,0,0,0-328.7.41m8.733-6.56a1.085,1.085,0,0,0-1.066,1.066,1.085,1.085,0,0,0,1.066,1.066A1.085,1.085,0,0,0-318.9-5.084a1.059,1.059,0,0,0-1.066-1.066m-6.97,0A1.085,1.085,0,0,0-328-5.084a1.085,1.085,0,0,0,1.066,1.066,1.085,1.085,0,0,0,1.066-1.066,1.085,1.085,0,0,0-1.066-1.066m3.485,0a1.085,1.085,0,0,0-1.066,1.066,1.085,1.085,0,0,0,1.066,1.066,1.085,1.085,0,0,0,1.066-1.066,1.059,1.059,0,0,0-1.066-1.066M-328.7-3.239a1.085,1.085,0,0,0-1.066,1.066A1.085,1.085,0,0,0-328.7-1.107a1.085,1.085,0,0,0,1.066-1.066A1.059,1.059,0,0,0-328.7-3.239M-40.221,7.831A1.085,1.085,0,0,0-41.287,8.9a1.085,1.085,0,0,0,1.066,1.066A1.085,1.085,0,0,0-39.155,8.9a1.059,1.059,0,0,0-1.066-1.066m0-3.526a1.085,1.085,0,0,0-1.066,1.066,1.085,1.085,0,0,0,1.066,1.066,1.085,1.085,0,0,0,1.066-1.066A1.085,1.085,0,0,0-40.221,4.3m0-6.97A1.085,1.085,0,0,0-41.287-1.6,1.085,1.085,0,0,0-40.221-.533,1.085,1.085,0,0,0-39.155-1.6a1.085,1.085,0,0,0-1.066-1.066m0-3.485a1.085,1.085,0,0,0-1.066,1.066,1.085,1.085,0,0,0,1.066,1.066,1.085,1.085,0,0,0,1.066-1.066A1.059,1.059,0,0,0-40.221-6.15m12.956,17.466a1.085,1.085,0,0,0-1.066,1.066,1.085,1.085,0,0,0,1.066,1.066A1.085,1.085,0,0,0-26.2,12.382a1.085,1.085,0,0,0-1.066-1.066M-40.221.82a1.085,1.085,0,0,0-1.066,1.066,1.085,1.085,0,0,0,1.066,1.066,1.085,1.085,0,0,0,1.066-1.066A1.085,1.085,0,0,0-40.221.82m-15.785,10.5a1.085,1.085,0,0,0-1.066,1.066,1.085,1.085,0,0,0,1.066,1.066,1.085,1.085,0,0,0,1.066-1.066,1.085,1.085,0,0,0-1.066-1.066M-70.725-6.15a1.085,1.085,0,0,0-1.066,1.066,1.085,1.085,0,0,0,1.066,1.066,1.085,1.085,0,0,0,1.066-1.066A1.059,1.059,0,0,0-70.725-6.15m3.485,0a1.085,1.085,0,0,0-1.066,1.066A1.085,1.085,0,0,0-67.24-4.018a1.085,1.085,0,0,0,1.066-1.066A1.034,1.034,0,0,0-67.24-6.15m-6.97,0a1.085,1.085,0,0,0-1.066,1.066A1.085,1.085,0,0,0-74.21-4.018a1.085,1.085,0,0,0,1.066-1.066A1.059,1.059,0,0,0-74.21-6.15M-75.973.41a1.085,1.085,0,0,0-1.066,1.066,1.085,1.085,0,0,0,1.066,1.066,1.085,1.085,0,0,0,1.066-1.066A1.059,1.059,0,0,0-75.973.41m48.708,7.421A1.085,1.085,0,0,0-28.331,8.9a1.085,1.085,0,0,0,1.066,1.066A1.085,1.085,0,0,0-26.2,8.9a1.059,1.059,0,0,0-1.066-1.066M-75.973-3.239a1.085,1.085,0,0,0-1.066,1.066,1.085,1.085,0,0,0,1.066,1.066,1.085,1.085,0,0,0,1.066-1.066,1.059,1.059,0,0,0-1.066-1.066M-56.006.82a1.085,1.085,0,0,0-1.066,1.066,1.085,1.085,0,0,0,1.066,1.066A1.085,1.085,0,0,0-54.94,1.886,1.085,1.085,0,0,0-56.006.82m0-3.485A1.085,1.085,0,0,0-57.072-1.6,1.085,1.085,0,0,0-56.006-.533,1.085,1.085,0,0,0-54.94-1.6a1.085,1.085,0,0,0-1.066-1.066m0,10.5A1.085,1.085,0,0,0-57.072,8.9a1.085,1.085,0,0,0,1.066,1.066A1.085,1.085,0,0,0-54.94,8.9a1.059,1.059,0,0,0-1.066-1.066m0-3.526a1.085,1.085,0,0,0-1.066,1.066,1.085,1.085,0,0,0,1.066,1.066A1.085,1.085,0,0,0-54.94,5.371,1.085,1.085,0,0,0-56.006,4.3M2.706,11.316a1.066,1.066,0,1,0,0,2.132,1.066,1.066,0,1,0,0-2.132M-15.621-6.15a1.085,1.085,0,0,0-1.066,1.066,1.085,1.085,0,0,0,1.066,1.066,1.085,1.085,0,0,0,1.066-1.066A1.059,1.059,0,0,0-15.621-6.15m0,17.466a1.085,1.085,0,0,0-1.066,1.066,1.085,1.085,0,0,0,1.066,1.066,1.085,1.085,0,0,0,1.066-1.066,1.085,1.085,0,0,0-1.066-1.066m18.327-4.1a1.066,1.066,0,1,0,0,2.132,1.066,1.066,0,1,0,0-2.132M-27.265-6.15a1.085,1.085,0,0,0-1.066,1.066,1.085,1.085,0,0,0,1.066,1.066A1.085,1.085,0,0,0-26.2-5.084,1.059,1.059,0,0,0-27.265-6.15m7.749,0a1.085,1.085,0,0,0-1.066,1.066,1.085,1.085,0,0,0,1.066,1.066A1.085,1.085,0,0,0-18.45-5.084,1.034,1.034,0,0,0-19.516-6.15m-3.895,8.733a1.085,1.085,0,0,0-1.066,1.066,1.085,1.085,0,0,0,1.066,1.066,1.085,1.085,0,0,0,1.066-1.066,1.034,1.034,0,0,0-1.066-1.066m0,8.733a1.085,1.085,0,0,0-1.066,1.066,1.085,1.085,0,0,0,1.066,1.066,1.085,1.085,0,0,0,1.066-1.066,1.059,1.059,0,0,0-1.066-1.066M-27.265.82a1.085,1.085,0,0,0-1.066,1.066,1.085,1.085,0,0,0,1.066,1.066A1.085,1.085,0,0,0-26.2,1.886,1.085,1.085,0,0,0-27.265.82m0-3.485A1.085,1.085,0,0,0-28.331-1.6,1.085,1.085,0,0,0-27.265-.533,1.085,1.085,0,0,0-26.2-1.6a1.085,1.085,0,0,0-1.066-1.066m7.749,13.981a1.085,1.085,0,0,0-1.066,1.066,1.085,1.085,0,0,0,1.066,1.066,1.085,1.085,0,0,0,1.066-1.066,1.059,1.059,0,0,0-1.066-1.066m0-8.733a1.085,1.085,0,0,0-1.066,1.066,1.085,1.085,0,0,0,1.066,1.066A1.085,1.085,0,0,0-18.45,3.649a1.034,1.034,0,0,0-1.066-1.066M-27.265,4.3a1.085,1.085,0,0,0-1.066,1.066,1.085,1.085,0,0,0,1.066,1.066A1.085,1.085,0,0,0-26.2,5.371,1.085,1.085,0,0,0-27.265,4.3M-23.411-6.15a1.085,1.085,0,0,0-1.066,1.066,1.085,1.085,0,0,0,1.066,1.066,1.085,1.085,0,0,0,1.066-1.066A1.034,1.034,0,0,0-23.411-6.15M-94.669,2.132a1.085,1.085,0,0,0-1.066-1.066A1.085,1.085,0,0,0-96.8,2.132,1.085,1.085,0,0,0-95.735,3.2a1.059,1.059,0,0,0,1.066-1.066m18.7,1.886a1.085,1.085,0,0,0-1.066,1.066A1.085,1.085,0,0,0-75.973,6.15a1.085,1.085,0,0,0,1.066-1.066,1.085,1.085,0,0,0-1.066-1.066m78.679-.9a1.066,1.066,0,1,0,0,2.132A1.085,1.085,0,0,0,3.772,4.182,1.059,1.059,0,0,0,2.706,3.116M-93.562-.861a1.085,1.085,0,0,0-1.066-1.066A1.085,1.085,0,0,0-95.694-.861,1.085,1.085,0,0,0-94.628.2,1.114,1.114,0,0,0-93.562-.861m17.589,12.177a1.085,1.085,0,0,0-1.066,1.066,1.085,1.085,0,0,0,1.066,1.066,1.085,1.085,0,0,0,1.066-1.066,1.085,1.085,0,0,0-1.066-1.066M-77.736-6.15A1.085,1.085,0,0,0-78.8-5.084a1.085,1.085,0,0,0,1.066,1.066A1.085,1.085,0,0,0-76.67-5.084,1.034,1.034,0,0,0-77.736-6.15m1.763,13.817a1.085,1.085,0,0,0-1.066,1.066A1.085,1.085,0,0,0-75.973,9.8a1.085,1.085,0,0,0,1.066-1.066,1.085,1.085,0,0,0-1.066-1.066M-84.706-6.15a1.085,1.085,0,0,0-1.066,1.066,1.085,1.085,0,0,0,1.066,1.066A1.085,1.085,0,0,0-83.64-5.084,1.059,1.059,0,0,0-84.706-6.15m3.485,0a1.085,1.085,0,0,0-1.066,1.066,1.085,1.085,0,0,0,1.066,1.066,1.085,1.085,0,0,0,1.066-1.066A1.059,1.059,0,0,0-81.221-6.15M-108.691,4.3a1.085,1.085,0,0,0-1.066,1.066,1.085,1.085,0,0,0,1.066,1.066,1.085,1.085,0,0,0,1.066-1.066A1.059,1.059,0,0,0-108.691,4.3m3.362-10.455a1.085,1.085,0,0,0-1.066,1.066,1.085,1.085,0,0,0,1.066,1.066,1.085,1.085,0,0,0,1.066-1.066,1.059,1.059,0,0,0-1.066-1.066m-3.362,17.466a1.085,1.085,0,0,0-1.066,1.066,1.085,1.085,0,0,0,1.066,1.066,1.085,1.085,0,0,0,1.066-1.066,1.059,1.059,0,0,0-1.066-1.066m0-3.485A1.085,1.085,0,0,0-109.757,8.9a1.085,1.085,0,0,0,1.066,1.066A1.085,1.085,0,0,0-107.625,8.9a1.034,1.034,0,0,0-1.066-1.066m0-13.981a1.085,1.085,0,0,0-1.066,1.066,1.085,1.085,0,0,0,1.066,1.066,1.085,1.085,0,0,0,1.066-1.066,1.034,1.034,0,0,0-1.066-1.066m6.683,10.865a1.085,1.085,0,0,0,1.066-1.066,1.085,1.085,0,0,0-1.066-1.066,1.085,1.085,0,0,0-1.066,1.066,1.085,1.085,0,0,0,1.066,1.066m3.362,0A1.085,1.085,0,0,0-97.58,3.649a1.085,1.085,0,0,0-1.066-1.066,1.085,1.085,0,0,0-1.066,1.066,1.085,1.085,0,0,0,1.066,1.066m-6.765-2.132a1.085,1.085,0,0,0-1.066,1.066,1.085,1.085,0,0,0,1.066,1.066,1.085,1.085,0,0,0,1.066-1.066,1.059,1.059,0,0,0-1.066-1.066m-3.28-5.248A1.085,1.085,0,0,0-109.757-1.6a1.085,1.085,0,0,0,1.066,1.066A1.085,1.085,0,0,0-107.625-1.6a1.059,1.059,0,0,0-1.066-1.066m0,3.485a1.085,1.085,0,0,0-1.066,1.066,1.085,1.085,0,0,0,1.066,1.066,1.085,1.085,0,0,0,1.066-1.066A1.059,1.059,0,0,0-108.691.82m-97.744,1.8a1.085,1.085,0,0,0,1.066,1.066A1.085,1.085,0,0,0-204.3,2.624a1.085,1.085,0,0,0-1.066-1.066,1.059,1.059,0,0,0-1.066,1.066m2.378-2.542a1.085,1.085,0,0,0,1.066,1.066A1.085,1.085,0,0,0-201.925.082a1.085,1.085,0,0,0-1.066-1.066A1.011,1.011,0,0,0-204.057.082m4.715-5.166a1.085,1.085,0,0,0,1.066,1.066,1.085,1.085,0,0,0,1.066-1.066,1.085,1.085,0,0,0-1.066-1.066,1.034,1.034,0,0,0-1.066,1.066M-201.72-2.5a1.085,1.085,0,0,0,1.066,1.066A1.085,1.085,0,0,0-199.588-2.5a1.085,1.085,0,0,0-1.066-1.066A1.059,1.059,0,0,0-201.72-2.5m74.251,1.394A1.085,1.085,0,0,0-126.4-2.173a1.085,1.085,0,0,0-1.066-1.066,1.085,1.085,0,0,0-1.066,1.066,1.085,1.085,0,0,0,1.066,1.066m5.412,10.578a1.085,1.085,0,0,0,1.066,1.066,1.085,1.085,0,0,0,1.066-1.066A1.085,1.085,0,0,0-120.991,8.4a1.085,1.085,0,0,0-1.066,1.066m-1.6-2.911a1.085,1.085,0,0,0,1.066,1.066,1.085,1.085,0,0,0,1.066-1.066,1.085,1.085,0,0,0-1.066-1.066,1.059,1.059,0,0,0-1.066,1.066m-1.64-2.911a1.085,1.085,0,0,0,1.066,1.066,1.085,1.085,0,0,0,1.066-1.066,1.085,1.085,0,0,0-1.066-1.066A1.085,1.085,0,0,0-125.3,3.649m-1.6,2.911a1.085,1.085,0,0,0,1.066,1.066,1.085,1.085,0,0,0,1.066-1.066,1.085,1.085,0,0,0-1.066-1.066,1.059,1.059,0,0,0-1.066,1.066m6.478,5.822a1.085,1.085,0,0,0,1.066,1.066,1.085,1.085,0,0,0,1.066-1.066,1.085,1.085,0,0,0-1.066-1.066,1.059,1.059,0,0,0-1.066,1.066M-126.895.738A1.085,1.085,0,0,0-125.829,1.8,1.085,1.085,0,0,0-124.763.738a1.085,1.085,0,0,0-1.066-1.066A1.059,1.059,0,0,0-126.895.738m-3.239,5.822a1.085,1.085,0,0,0,1.066,1.066A1.085,1.085,0,0,0-128,6.56a1.085,1.085,0,0,0-1.066-1.066,1.059,1.059,0,0,0-1.066,1.066m0-11.644a1.085,1.085,0,0,0,1.066,1.066A1.085,1.085,0,0,0-128-5.084a1.085,1.085,0,0,0-1.066-1.066,1.034,1.034,0,0,0-1.066,1.066M4.346,1.066a1.066,1.066,0,1,0,2.132,0A1.085,1.085,0,0,0,5.412,0,1.059,1.059,0,0,0,4.346,1.066M7.052-2.009A1.085,1.085,0,0,0,8.118-.943,1.085,1.085,0,0,0,9.184-2.009,1.085,1.085,0,0,0,8.118-3.075,1.034,1.034,0,0,0,7.052-2.009M9.758-5.125a1.085,1.085,0,0,0,1.066,1.066A1.085,1.085,0,0,0,11.89-5.125a1.085,1.085,0,0,0-1.066-1.066A1.059,1.059,0,0,0,9.758-5.125M-42.845,8.4a1.085,1.085,0,0,0-1.066,1.066,1.059,1.059,0,0,0,1.066,1.066,1.085,1.085,0,0,0,1.066-1.066A1.085,1.085,0,0,0-42.845,8.4m-2.624-2.911A1.059,1.059,0,0,0-46.535,6.56a1.085,1.085,0,0,0,1.066,1.066A1.085,1.085,0,0,0-44.4,6.56a1.085,1.085,0,0,0-1.066-1.066m5.248,5.822a1.059,1.059,0,0,0-1.066,1.066,1.059,1.059,0,0,0,1.066,1.066,1.059,1.059,0,0,0,1.066-1.066,1.059,1.059,0,0,0-1.066-1.066m-7.872-8.733a1.059,1.059,0,0,0-1.066,1.066,1.059,1.059,0,0,0,1.066,1.066,1.085,1.085,0,0,0,1.066-1.066,1.114,1.114,0,0,0-1.066-1.066M-50.758-.328A1.059,1.059,0,0,0-51.824.738,1.059,1.059,0,0,0-50.758,1.8,1.059,1.059,0,0,0-49.692.738,1.059,1.059,0,0,0-50.758-.328m-2.624-2.911a1.059,1.059,0,0,0-1.066,1.066,1.059,1.059,0,0,0,1.066,1.066,1.059,1.059,0,0,0,1.066-1.066,1.059,1.059,0,0,0-1.066-1.066M-56.006-6.15a1.059,1.059,0,0,0-1.066,1.066,1.059,1.059,0,0,0,1.066,1.066A1.059,1.059,0,0,0-54.94-5.084,1.059,1.059,0,0,0-56.006-6.15M-172.61,9.43a1.085,1.085,0,0,0-1.066,1.066,1.085,1.085,0,0,0,1.066,1.066,1.085,1.085,0,0,0,1.066-1.066A1.114,1.114,0,0,0-172.61,9.43m-3.075,1.722a1.085,1.085,0,0,0-1.066,1.066,1.085,1.085,0,0,0,1.066,1.066,1.085,1.085,0,0,0,1.066-1.066,1.085,1.085,0,0,0-1.066-1.066m-3.567.492a1.085,1.085,0,0,0-1.066,1.066,1.085,1.085,0,0,0,1.066,1.066,1.085,1.085,0,0,0,1.066-1.066,1.085,1.085,0,0,0-1.066-1.066m-3.4-.7a1.085,1.085,0,0,0-1.066,1.066,1.085,1.085,0,0,0,1.066,1.066,1.085,1.085,0,0,0,1.066-1.066,1.034,1.034,0,0,0-1.066-1.066M-185.2,8.528a1.085,1.085,0,0,0-1.066,1.066A1.085,1.085,0,0,0-185.2,10.66a1.085,1.085,0,0,0,1.066-1.066A1.034,1.034,0,0,0-185.2,8.528m-.9-3.485a1.085,1.085,0,0,0-1.066,1.066A1.085,1.085,0,0,0-186.1,7.175a1.085,1.085,0,0,0,1.066-1.066A1.085,1.085,0,0,0-186.1,5.043m.9-3.444a1.085,1.085,0,0,0-1.066,1.066A1.085,1.085,0,0,0-185.2,3.731a1.085,1.085,0,0,0,1.066-1.066A1.059,1.059,0,0,0-185.2,1.6m2.542-2.419A1.085,1.085,0,0,0-183.721.246a1.085,1.085,0,0,0,1.066,1.066A1.085,1.085,0,0,0-181.589.246,1.034,1.034,0,0,0-182.655-.82m3.4-.738a1.085,1.085,0,0,0-1.066,1.066A1.085,1.085,0,0,0-179.252.574a1.085,1.085,0,0,0,1.066-1.066,1.085,1.085,0,0,0-1.066-1.066m3.567.492A1.085,1.085,0,0,0-176.751,0a1.085,1.085,0,0,0,1.066,1.066A1.085,1.085,0,0,0-174.619,0a1.085,1.085,0,0,0-1.066-1.066M-172.61.656a1.085,1.085,0,0,0-1.066,1.066,1.085,1.085,0,0,0,1.066,1.066,1.085,1.085,0,0,0,1.066-1.066A1.114,1.114,0,0,0-172.61.656M-141.86-3.4a1.085,1.085,0,0,0-1.066,1.066,1.085,1.085,0,0,0,1.066,1.066,1.085,1.085,0,0,0,1.066-1.066A1.059,1.059,0,0,0-141.86-3.4m-2.829-2.05a1.085,1.085,0,0,0-1.066,1.066,1.085,1.085,0,0,0,1.066,1.066,1.085,1.085,0,0,0,1.066-1.066,1.085,1.085,0,0,0-1.066-1.066m-3.4-1.066a1.085,1.085,0,0,0-1.066,1.066,1.085,1.085,0,0,0,1.066,1.066,1.085,1.085,0,0,0,1.066-1.066,1.085,1.085,0,0,0-1.066-1.066m-3.69-.164a1.085,1.085,0,0,0-1.066,1.066,1.085,1.085,0,0,0,1.066,1.066,1.085,1.085,0,0,0,1.066-1.066,1.059,1.059,0,0,0-1.066-1.066m-3.526.656a1.085,1.085,0,0,0-1.066,1.066,1.085,1.085,0,0,0,1.066,1.066,1.085,1.085,0,0,0,1.066-1.066,1.085,1.085,0,0,0-1.066-1.066m-2.829,1.845A1.085,1.085,0,0,0-159.2-3.116a1.085,1.085,0,0,0,1.066,1.066,1.085,1.085,0,0,0,1.066-1.066,1.085,1.085,0,0,0-1.066-1.066m-1.927,3.116A1.085,1.085,0,0,0-161.13,0a1.085,1.085,0,0,0,1.066,1.066A1.085,1.085,0,0,0-159,0a1.085,1.085,0,0,0-1.066-1.066M-160.8,2.5a1.085,1.085,0,0,0-1.066,1.066A1.085,1.085,0,0,0-160.8,4.633a1.085,1.085,0,0,0,1.066-1.066A1.085,1.085,0,0,0-160.8,2.5m18.942,8.036a1.085,1.085,0,0,1-1.066-1.066A1.085,1.085,0,0,1-141.86,8.4a1.085,1.085,0,0,1,1.066,1.066,1.059,1.059,0,0,1-1.066,1.066m-2.829,2.05a1.085,1.085,0,0,1-1.066-1.066,1.085,1.085,0,0,1,1.066-1.066,1.085,1.085,0,0,1,1.066,1.066,1.085,1.085,0,0,1-1.066,1.066m-3.4,1.066a1.085,1.085,0,0,1-1.066-1.066,1.085,1.085,0,0,1,1.066-1.066,1.085,1.085,0,0,1,1.066,1.066,1.085,1.085,0,0,1-1.066,1.066m-3.69.164a1.085,1.085,0,0,1-1.066-1.066,1.085,1.085,0,0,1,1.066-1.066,1.085,1.085,0,0,1,1.066,1.066,1.034,1.034,0,0,1-1.066,1.066m-3.526-.656a1.085,1.085,0,0,1-1.066-1.066,1.085,1.085,0,0,1,1.066-1.066,1.085,1.085,0,0,1,1.066,1.066,1.085,1.085,0,0,1-1.066,1.066m-2.829-1.845A1.085,1.085,0,0,1-159.2,10.25a1.085,1.085,0,0,1,1.066-1.066,1.085,1.085,0,0,1,1.066,1.066,1.085,1.085,0,0,1-1.066,1.066M-160.064,8.2a1.085,1.085,0,0,1-1.066-1.066,1.085,1.085,0,0,1,1.066-1.066A1.085,1.085,0,0,1-159,7.134,1.085,1.085,0,0,1-160.064,8.2m-195.365,3.4a1.085,1.085,0,0,0-1.066,1.066,1.085,1.085,0,0,0,1.066,1.066,1.085,1.085,0,0,0,1.066-1.066,1.059,1.059,0,0,0-1.066-1.066m.656-8.2a1.085,1.085,0,0,0-1.066-1.066A1.085,1.085,0,0,0-356.9,3.4a1.085,1.085,0,0,0,1.066,1.066A1.059,1.059,0,0,0-354.773,3.4m-3.977,6.929a1.085,1.085,0,0,0-1.066,1.066,1.085,1.085,0,0,0,1.066,1.066,1.085,1.085,0,0,0,1.066-1.066,1.059,1.059,0,0,0-1.066-1.066M-360.841.246A1.085,1.085,0,0,0-359.775-.82a1.085,1.085,0,0,0-1.066-1.066A1.085,1.085,0,0,0-361.907-.82,1.085,1.085,0,0,0-360.841.246m-.451,7.5a1.085,1.085,0,0,0-1.066,1.066,1.085,1.085,0,0,0,1.066,1.066,1.085,1.085,0,0,0,1.066-1.066,1.085,1.085,0,0,0-1.066-1.066m12.956,3.239a1.085,1.085,0,0,0-1.066,1.066,1.085,1.085,0,0,0,1.066,1.066,1.085,1.085,0,0,0,1.066-1.066,1.085,1.085,0,0,0-1.066-1.066m-11.931-8.733A1.085,1.085,0,0,0-359.2,3.321a1.085,1.085,0,0,0,1.066-1.066A1.085,1.085,0,0,0-359.2,1.189a1.059,1.059,0,0,0-1.066,1.066m14.473,6.314a1.085,1.085,0,0,0-1.066,1.066,1.085,1.085,0,0,0,1.066,1.066,1.085,1.085,0,0,0,1.066-1.066,1.034,1.034,0,0,0-1.066-1.066M-347.6,4.1a1.085,1.085,0,0,0-1.066-1.066A1.085,1.085,0,0,0-349.73,4.1a1.085,1.085,0,0,0,1.066,1.066A1.059,1.059,0,0,0-347.6,4.1m-4.223,7.667a1.085,1.085,0,0,0-1.066,1.066,1.085,1.085,0,0,0,1.066,1.066,1.085,1.085,0,0,0,1.066-1.066,1.085,1.085,0,0,0-1.066-1.066m.656-8.077a1.085,1.085,0,0,0-1.066-1.066A1.085,1.085,0,0,0-353.3,3.69a1.085,1.085,0,0,0,1.066,1.066,1.059,1.059,0,0,0,1.066-1.066m-5.084-7.954a1.085,1.085,0,0,0,1.066-1.066A1.085,1.085,0,0,0-356.249-6.4a1.085,1.085,0,0,0-1.066,1.066,1.059,1.059,0,0,0,1.066,1.066m10.455,9.307a1.085,1.085,0,0,0-1.066,1.066,1.085,1.085,0,0,0,1.066,1.066,1.085,1.085,0,0,0,1.066-1.066,1.085,1.085,0,0,0-1.066-1.066m-6.888-9.512a1.085,1.085,0,0,0,1.066-1.066A1.085,1.085,0,0,0-352.682-6.6a1.085,1.085,0,0,0-1.066,1.066,1.085,1.085,0,0,0,1.066,1.066m-6.929,1.476a1.085,1.085,0,0,0,1.066-1.066,1.085,1.085,0,0,0-1.066-1.066,1.094,1.094,0,0,0-1.066,1.107,1.025,1.025,0,0,0,1.066,1.025m13.448,1.107A1.085,1.085,0,0,0-345.1-2.952a1.085,1.085,0,0,0-1.066-1.066,1.085,1.085,0,0,0-1.066,1.066,1.085,1.085,0,0,0,1.066,1.066m-2.993-1.927a1.085,1.085,0,0,0,1.066-1.066,1.085,1.085,0,0,0-1.066-1.066,1.085,1.085,0,0,0-1.066,1.066,1.085,1.085,0,0,0,1.066,1.066" transform="translate(368.734 -118.606)"></path>
      <path d="M0,0H387V-230H0Z" fill="none"></path>
    </g>
  </g>
</svg>
