<?xml version="1.0" encoding="UTF-8"?>
<svg xmlns="http://www.w3.org/2000/svg" xmlns:xlink="http://www.w3.org/1999/xlink" width="387" height="230" viewBox="0 0 387 230">
  <defs>
    <clipPath id="b">
      <rect width="387" height="230"></rect>
    </clipPath>
  </defs>
  <g id="a" clip-path="url(#b)">
    <path d="M0,0H0A12.536,12.536,0,0,0,3.072,8.607q3.073,3.475,8.708,3.478a11.115,11.115,0,0,0,7.2-2.24A9.514,9.514,0,0,0,22.4,3.77H17.177A5.293,5.293,0,0,1,15.4,6.635a5.539,5.539,0,0,1-3.514,1,5.791,5.791,0,0,1-4.72-2.155A8.367,8.367,0,0,1,5.4,0,8.506,8.506,0,0,1,7.114-5.5a5.719,5.719,0,0,1,4.735-2.138,5.677,5.677,0,0,1,3.462,1A5.092,5.092,0,0,1,17.177-3.77H22.4a9.591,9.591,0,0,0-3.393-6.075,10.983,10.983,0,0,0-7.162-2.24A11.182,11.182,0,0,0,3.21-8.607,12.225,12.225,0,0,0,0,0" transform="translate(159.292 144.943)" fill="#2b2e34"></path>
    <path d="M0,0H7.775V18.975h5.259V0h7.775V-4.378H0ZM41.346,18.975h5.263V9.37H56.86v9.605h5.3V-4.378h-5.3V4.955H46.609V-4.378H41.346Zm43.692,0h17.887v-4.31H90.3v-5.6h9.983V5.024H90.3V-.069h12.255V-4.378H85.038Zm62.277,0h5.26l-.134-14.458h.134l11.236,14.458H168.4V-4.378H163.1l.134,14.393H163.1L152-4.378h-4.683ZM190.9,9.54h0q0,5.534,2.938,7.69a14.047,14.047,0,0,0,14.953,0q2.916-2.161,2.918-7.69V-4.378h-5.263V9.471a5.8,5.8,0,0,1-1.291,4.058,5.925,5.925,0,0,1-7.669,0A5.808,5.808,0,0,1,196.2,9.471V-4.378h-5.3Zm43.351,9.435H252.14v-4.31H239.512v-5.6h9.982V5.024h-9.982V-.069h12.255V-4.378H234.253Z" transform="translate(67.43 77.355)" fill="#2b2e34"></path>
    <path d="M67.43-72.973H319.565v-84.051H67.43Z" transform="translate(0 230)" fill="none"></path>
    <path d="M0,0A6.134,6.134,0,0,1-4.89,2.171,6.164,6.164,0,0,1-9.776.033a8.057,8.057,0,0,1-1.87-5.5,8.052,8.052,0,0,1,1.87-5.5A6.174,6.174,0,0,1-4.89-13.1,6.137,6.137,0,0,1,0-10.932,8.09,8.09,0,0,1,1.867-5.466,8.087,8.087,0,0,1,0,0M3.9-14.1A11.736,11.736,0,0,0-4.89-17.55,11.692,11.692,0,0,0-13.732-14.1a11.971,11.971,0,0,0-3.311,8.639,11.973,11.973,0,0,0,3.311,8.64A11.7,11.7,0,0,0-4.89,6.619,11.74,11.74,0,0,0,3.9,3.174a11.88,11.88,0,0,0,3.36-8.64A11.878,11.878,0,0,0,3.9-14.1" transform="translate(219.175 138.041)" fill="#2b2e34"></path>
    <path d="M202.156-72.973h24.258v-3.608H202.156Z" transform="translate(0 230)" fill="#2b2e34"></path>
  </g>
</svg>
