<?xml version="1.0" encoding="UTF-8"?>
<svg xmlns="http://www.w3.org/2000/svg" xmlns:xlink="http://www.w3.org/1999/xlink" width="387" height="230" viewBox="0 0 387 230">
  <defs>
    <clipPath id="b">
      <rect width="387" height="230"></rect>
    </clipPath>
  </defs>
  <g id="a" clip-path="url(#b)">
    <path d="M0,0C0-3.611-1.19-5.119-4.326-5.119-7.56-5.117-10.1-2.8-10.1,1.29V19.41H-20.187v-33.1h9.875l0,4.323s4.1-4.964,9.709-4.967A10.246,10.246,0,0,1,8.736-9.057c2.639-2.739,4.788-5.274,10.831-5.274,6.584,0,10.63,4.848,10.63,11.1V19.507H20.113V.109c0-3.72-1.3-5.228-4.538-5.228s-5.4,2.48-5.393,6.467V19.41H0ZM-40.436-5.1A7.546,7.546,0,0,1-32.51,2.5c0,5.185-3.016,8.358-7.989,8.358a7.769,7.769,0,0,1-7.98-7.864A7.783,7.783,0,0,1-40.436-5.1M-58.509,2.837a17.844,17.844,0,0,0,17.9,17.5c10.793,0,18.067-7.587,18.067-17.671,0-9.969-7.82-17.189-17.847-17.189-10.2,0-18.122,7.442-18.122,17.358M-72.017-13.024h-8.515v-9.817h28.251l0,9.817H-60.8v32.3H-72.014ZM44.772,50.232a6.15,6.15,0,0,1-6.2,6.138,5.941,5.941,0,0,1-5.935-6.03,6.068,6.068,0,0,1,12.135-.108M30.249,32.857V55.588H19.888V36.194c0-2.744-.75-5.331-5.163-5.331-3.255,0-4.658,2.638-4.658,5.82V55.588H-.063V22.516H9.972v4.309s1.881-4.967,8.345-4.967c6.6,0,11.932,4.75,11.932,11M-20.527,46.9a7.771,7.771,0,0,1-7.983-7.861,7.776,7.776,0,0,1,8.032-8.084,7.546,7.546,0,0,1,7.935,7.6c0,5.174-3.016,8.345-7.984,8.345m.106-25.369c-10.192,0-18.113,7.44-18.113,17.347a17.837,17.837,0,0,0,17.9,17.516c10.787,0,18.059-7.6,18.059-17.676,0-9.972-7.815-17.187-17.845-17.187m-54.1-7.695a6.163,6.163,0,0,1-6.207,6.141,5.934,5.934,0,0,1-5.934-6.03,6.08,6.08,0,0,1,6.046-6.092,6.041,6.041,0,0,1,6.1,5.981M-46.585,38.7l13.222,17.04H-45.781l-.019-.022-.658-.9-6.749-9.206L-56.1,49.6l-4.418,6.116h-.017l0,.022H-72.959L-59.748,38.7-72.465,22.445H-59.52l.011.008.492.685,5.864,8.143,6.334-8.836h12.937Zm-38.67-16.152h10.032V55.6H-85.252ZM-109,46.354h-4.739l0-23.018h5.068c5.774,0,9.973,4.693,9.973,11,0,6.953-3.935,12.021-10.3,12.021m1.568-32.015h-17.255V55.6h17.358c11.486,0,19.518-9.041,19.518-21.111,0-11.912-8.518-20.154-19.621-20.154" transform="translate(233.455 98.225)" fill="#2b2e34"></path>
  </g>
</svg>
